<?xml version="1.0" standalone="no"?>
<!DOCTYPE svg PUBLIC "-//W3C//DTD SVG 1.1//EN" "http://www.w3.org/Graphics/SVG/1.1/DTD/svg11.dtd" >
<svg xmlns="http://www.w3.org/2000/svg" xmlns:xlink="http://www.w3.org/1999/xlink" version="1.1">
<metadata>
Created by FontForge 20171206 at Thu Jul  4 20:50:28 2019
 By fw_worker
</metadata>
<defs>
<font id="THEJung160" horiz-adv-x="800" >
  <font-face 
    font-family="THEJung160"
    font-weight="400"
    font-stretch="normal"
    units-per-em="1000"
    panose-1="2 2 6 3 2 1 1 2 1 1"
    ascent="800"
    descent="-200"
    x-height="529"
    cap-height="802"
    bbox="-37 -222 984 897"
    underline-thickness="25"
    underline-position="-154"
    unicode-range="U+0020-FFE6"
  />
<missing-glyph horiz-adv-x="1000" 
d="M100 -42v800h800v-800h-800zM150 8h700v700h-700v-700z" />
    <glyph glyph-name=".notdef" horiz-adv-x="1000" 
d="M100 -42v800h800v-800h-800zM150 8h700v700h-700v-700z" />
    <glyph glyph-name="glyph1" horiz-adv-x="0" 
 />
    <glyph glyph-name="glyph2" horiz-adv-x="1000" 
 />
    <glyph glyph-name="space" unicode=" " horiz-adv-x="400" 
 />
    <glyph glyph-name="exclam" unicode="!" horiz-adv-x="202" 
d="M173 776v-262l-21 -313h-97l-21 313v262h139zM172 60q0 -28 -18 -48t-50 -20t-51 20t-19 48q0 29 19 48.5t51 19.5t50 -19.5t18 -48.5z" />
    <glyph glyph-name="quotedbl" unicode="&#x22;" horiz-adv-x="374" 
d="M48 564l-25 237h131l-27 -237h-79zM231 564l-24 237h131l-27 -237h-80z" />
    <glyph glyph-name="numbersign" unicode="#" horiz-adv-x="723" 
d="M578 485l-25 -182h88l-11 -92h-90l-28 -210h-114l28 210h-183l-30 -210h-113l28 210h-99l12 92h99l26 182h-98l13 93h98l33 223h114l-33 -223h183l34 223h114l-33 -223h91l-15 -93h-89zM464 485h-184l-25 -182h183z" />
    <glyph glyph-name="dollar" unicode="$" horiz-adv-x="628" 
d="M397 -70h-115v105q-72 7 -134 38t-101 87l84 60q26 -39 66 -63.5t85 -32.5v258q-45 11 -80.5 27t-59.5 40q-25 23 -38.5 56t-13.5 79q0 35 14.5 64.5t40.5 53.5q26 23 61 38.5t76 21.5v73h115v-75q57 -10 104.5 -38t77.5 -73l-81 -56q-17 23 -44 41.5t-57 29.5v-213
q44 -13 82 -33t66 -47t43.5 -61t14.5 -76q-1 -35 -17 -66.5t-44 -56.5t-65 -43t-80 -27v-111zM483 235q1 41 -24.5 69.5t-61.5 45.5v-216q36 14 60 40t26 61zM208 584q-3 -75 74 -105v192q-30 -10 -52 -32.5t-22 -54.5z" />
    <glyph glyph-name="percent" unicode="%" horiz-adv-x="832" 
d="M158 2l390 799h112l-391 -799h-111zM609 -4q-35 0 -67.5 13.5t-57.5 36.5q-25 24 -39.5 55.5t-14.5 66.5q0 34 14 65.5t38 55.5t56.5 38t70.5 14q35 0 67.5 -13.5t57.5 -36.5q24 -23 39 -55t15 -68q0 -34 -14 -65t-38 -55q-25 -24 -57.5 -38t-69.5 -14zM609 260
q-36 0 -62.5 -25t-26.5 -67t26.5 -66.5t62.5 -24.5q18 0 34 6.5t28 18.5t19.5 28.5t7.5 37.5t-7.5 38t-19.5 29t-28 18.5t-34 6.5zM229 454q-35 0 -67.5 13.5t-57.5 37.5q-25 23 -39.5 54.5t-14.5 67.5q0 34 14 65.5t38 55.5t56.5 38t70.5 14q35 0 67.5 -13.5t57.5 -36.5
q24 -24 39 -55.5t15 -67.5q0 -34 -14 -65.5t-38 -55.5q-25 -24 -57.5 -38t-69.5 -14zM229 719q-36 0 -62.5 -25t-26.5 -67t26.5 -66.5t62.5 -24.5q18 0 34 6.5t28 18.5t19.5 28.5t7.5 37.5t-7.5 38t-19.5 29t-28 18.5t-34 6.5z" />
    <glyph glyph-name="ampersand" unicode="&#x26;" horiz-adv-x="707" 
d="M568 149q31 -38 61.5 -74t61.5 -73h-138l-57 66q-48 -37 -103 -58t-120 -21q-50 0 -93.5 18.5t-75.5 50.5q-33 32 -52 74t-19 90q2 59 40 117.5t126 106.5h-2q-12 13 -26.5 30t-26.5 38q-13 20 -21.5 42t-8.5 45q0 37 14.5 70.5t40.5 58.5q26 24 61.5 38.5t76.5 14.5
q38 0 73 -15t62 -40t43 -58t16 -69q0 -35 -12 -62t-32 -48q-21 -22 -47 -40.5t-53 -34.5q35 -44 69 -88t69 -89q12 29 18.5 65t7.5 71h115q0 -57 -15.5 -116.5t-52.5 -109.5zM273 85q48 1 84 16.5t73 47.5h-1q-43 55 -84.5 109.5t-84.5 109.5q-23 -12 -43.5 -26t-35.5 -32
q-16 -18 -25 -41t-9 -54q0 -27 11 -50.5t29 -40.5q17 -18 39.5 -28.5t46.5 -10.5zM228 601q0 -15 6.5 -29.5t16.5 -27.5q9 -14 20.5 -26.5t21.5 -23.5q13 8 29.5 17t30.5 21t23.5 28.5t9.5 40.5q0 20 -7 36.5t-18 28.5q-12 11 -26 17t-28 6t-28.5 -6t-25.5 -17t-18 -27.5
t-7 -37.5z" />
    <glyph glyph-name="quotesingle" unicode="'" horiz-adv-x="220" 
d="M68 564l-25 237h131l-27 -237h-79z" />
    <glyph glyph-name="parenleft" unicode="(" horiz-adv-x="354" 
d="M317 -92q-65 28 -118 68.5t-90 95.5q-38 54 -58.5 124t-20.5 158q0 166 74 278t213 169v-121q-41 -23 -73 -53.5t-53 -69.5q-22 -40 -33.5 -90t-11.5 -113q0 -125 44.5 -201.5t126.5 -122.5v-122z" />
    <glyph glyph-name="parenright" unicode=")" horiz-adv-x="354" 
d="M38 30q82 46 126.5 122.5t44.5 201.5q0 63 -11.5 113t-32.5 90q-22 39 -54 69.5t-73 53.5v121q139 -57 213.5 -169t74.5 -278q0 -88 -20.5 -158t-58.5 -124q-38 -55 -91 -95.5t-118 -68.5v122z" />
    <glyph glyph-name="asterisk" unicode="*" horiz-adv-x="422" 
d="M385 401h-103l55 -95l-79 -40l-48 83l-48 -84l-79 42l55 94h-104v75h104l-56 92l78 45l50 -87l48 86l78 -43l-54 -93h103v-75z" />
    <glyph glyph-name="plus" unicode="+" horiz-adv-x="619" 
d="M571 299h-211v-212h-114v212h-213v96h213v212h114v-212h211v-96z" />
    <glyph glyph-name="comma" unicode="," horiz-adv-x="234" 
d="M197 49q0 -46 -22 -83.5t-75 -54.5q-11 -3 -21.5 -2t-15.5 9q-3 8 2 12.5t11 6.5q20 10 29.5 26.5t2.5 27.5q-26 4 -43 23t-17 44q0 29 21.5 49t53.5 20q19 0 33 -6.5t23 -17.5t13.5 -25t4.5 -29z" />
    <glyph glyph-name="hyphen" unicode="-" horiz-adv-x="505" 
d="M456 299h-423v96h423v-96z" />
    <glyph glyph-name="period" unicode="." horiz-adv-x="234" 
d="M191 58q0 -28 -19.5 -48t-51.5 -20q-31 0 -51.5 20t-20.5 48q0 29 20.5 49t51.5 20q32 0 51.5 -20t19.5 -49z" />
    <glyph glyph-name="slash" unicode="/" horiz-adv-x="593" 
d="M47 2l390 799h112l-391 -799h-111z" />
    <glyph glyph-name="zero" unicode="0" horiz-adv-x="673" 
d="M625 400q0 -90 -20 -165t-57 -129q-38 -54 -93 -84t-124 -30t-124 30t-92 84q-38 54 -58 129t-20 165t20 165t58 129q37 53 92 83t124 30t124 -30t93 -83q37 -54 57 -129t20 -165zM144 400q0 -72 16.5 -130t42.5 -98q26 -41 59.5 -63t68.5 -22q34 0 68 22t60 63
q26 40 42.5 98t16.5 130t-16.5 130t-42.5 99q-26 40 -60 62t-68 22q-35 0 -68.5 -22t-59.5 -62q-26 -41 -42.5 -99t-16.5 -130z" />
    <glyph glyph-name="one" unicode="1" horiz-adv-x="312" 
d="M226 801v-799h-115v705h-79v94h194z" />
    <glyph glyph-name="two" unicode="2" horiz-adv-x="636" 
d="M321 806q57 0 103.5 -21t80.5 -56q33 -35 51 -80t18 -93q0 -73 -35.5 -134t-107.5 -101q-106 -62 -162.5 -119.5t-56.5 -105.5h378v-94h-530q0 48 13.5 97t47.5 99q34 49 92 99t147 100q51 32 75.5 73t24.5 83q0 30 -10.5 57t-29.5 48t-44 33t-55 12q-28 0 -52.5 -11
t-42.5 -30q-19 -20 -29.5 -46.5t-10.5 -58.5h-120q0 49 20.5 94t55.5 80q34 34 80.5 54.5t98.5 20.5z" />
    <glyph glyph-name="three" unicode="3" horiz-adv-x="644" 
d="M569 590q0 -22 -6.5 -45t-17.5 -45q-12 -22 -28.5 -41t-37.5 -32q26 -15 47 -37t36 -47t23.5 -53t8.5 -55q0 -48 -21.5 -92t-58.5 -77q-37 -34 -86.5 -54t-106.5 -20t-106.5 19t-86.5 52q-38 33 -59.5 78t-21.5 98h118q0 -32 13 -59.5t35 -47.5t50 -31.5t58 -11.5
q31 0 59 12t50 32q21 20 33.5 46.5t12.5 55.5q0 26 -12.5 51.5t-33.5 45.5t-48.5 32.5t-57.5 12.5h-79v96h79q25 1 48 11t41 26q17 16 27.5 36.5t10.5 43.5q0 24 -11 45.5t-29 38.5q-18 16 -41.5 25.5t-48.5 9.5q-22 0 -43.5 -8.5t-39.5 -22.5q-18 -15 -30 -35t-15 -42h-121
q3 43 24 80.5t55 65.5t78 44t92 16q52 0 97 -18t79 -48q33 -30 52.5 -69t19.5 -82z" />
    <glyph glyph-name="four" unicode="4" horiz-adv-x="665" 
d="M43 274l380 527h83v-527h105v-98h-105v-174h-117v174h-346v98zM389 274v303l-213 -303h213z" />
    <glyph glyph-name="five" unicode="5" horiz-adv-x="622" 
d="M544 801v-96h-324q-2 -17 -5 -46t-6 -60q-4 -31 -7 -59.5t-5 -46.5q24 15 60.5 26t68.5 11q56 0 103 -22t81 -59q33 -37 52 -86t19 -103q0 -53 -21.5 -101.5t-57.5 -85.5q-37 -37 -86.5 -59t-105.5 -22q-51 0 -96 17t-80 47q-36 30 -59.5 72t-30.5 92h117q6 -30 20 -54.5
t34 -41.5t44 -26.5t51 -9.5q32 0 60.5 14.5t49.5 38.5t33 55t12 64q0 34 -11 65.5t-31 55.5q-21 24 -50 38t-64 14q-33 0 -69 -17.5t-56 -45.5h-120l49 431h431z" />
    <glyph glyph-name="six" unicode="6" horiz-adv-x="655" 
d="M337 511q55 0 104.5 -20.5t86.5 -55.5q36 -36 57.5 -83t21.5 -101t-21.5 -101t-57.5 -82q-37 -35 -86.5 -55.5t-104.5 -20.5q-57 0 -108.5 20t-90.5 67q-39 46 -62 123.5t-23 192.5q0 88 18.5 163.5t55.5 130.5q36 55 91 86t128 31q57 0 102.5 -18t77.5 -47
q31 -29 48.5 -67.5t19.5 -78.5h-107q-2 20 -14 41t-31 38t-44.5 27.5t-54.5 10.5q-38 0 -71.5 -22t-58.5 -62t-39 -94.5t-14 -118.5q12 25 33.5 43t46.5 30q24 12 50 17.5t47 5.5zM337 88q32 0 60 13t49 35q20 22 32 51.5t12 63.5t-12 63.5t-32 51.5q-21 22 -49 35t-60 13
q-31 0 -58.5 -12t-47.5 -34q-21 -22 -33 -51.5t-12 -65.5q0 -34 12 -63.5t32 -51.5t47.5 -35t59.5 -13z" />
    <glyph glyph-name="seven" unicode="7" horiz-adv-x="636" 
d="M569 801v-223q-63 -54 -114 -123t-87 -145q-37 -76 -57 -155t-20 -153h-116q0 70 21.5 156.5t59.5 171.5t90.5 160.5t115.5 123.5v91h-409v96h516z" />
    <glyph glyph-name="eight" unicode="8" horiz-adv-x="637" 
d="M65 590q0 43 19.5 82.5t53.5 69.5q33 30 78 47.5t97 17.5t97.5 -17.5t79.5 -47.5q33 -30 52.5 -69.5t19.5 -82.5q0 -45 -23 -90.5t-66 -73.5q49 -31 81 -83t32 -109q0 -49 -21.5 -93t-58.5 -77t-86.5 -52.5t-106.5 -19.5q-56 0 -105.5 19.5t-86.5 52.5t-58.5 77t-21.5 93
q0 57 31.5 109t81.5 83q-43 28 -66 73.5t-23 90.5zM469 234q0 26 -12.5 51.5t-33.5 46.5q-22 20 -49.5 32.5t-57.5 12.5t-58.5 -12.5t-50.5 -32.5q-22 -21 -35.5 -46.5t-13.5 -51.5q0 -30 12.5 -56t34.5 -46q21 -20 49 -31.5t59 -11.5t59.5 11.5t50.5 31.5q21 20 33.5 46
t12.5 56zM445 590q0 24 -11 45.5t-29 38.5q-18 16 -42 26t-50 10t-49.5 -10t-41.5 -26q-18 -17 -29 -38.5t-11 -45.5q0 -23 11.5 -43.5t30.5 -36.5t43 -25.5t49 -10.5q25 1 48 10.5t41 25.5t29 36.5t11 43.5z" />
    <glyph glyph-name="nine" unicode="9" horiz-adv-x="665" 
d="M323 276q-56 0 -105 20t-85 56q-37 36 -58.5 84.5t-21.5 105.5t21.5 105t58.5 84q36 35 85 55t105 20q57 0 108.5 -19t90.5 -64t62 -119.5t23 -185.5q0 -89 -17 -166t-52 -135t-88.5 -91t-126.5 -33q-57 0 -102.5 18t-76.5 47q-32 29 -49.5 67t-19.5 79h108
q2 -20 13.5 -41t31.5 -38q19 -17 44 -27.5t54 -10.5q38 0 70 21.5t55 60.5q23 38 36 90t13 113q-12 -24 -33.5 -42t-45.5 -30q-25 -12 -51 -18t-47 -6zM323 710q-32 0 -60 -12.5t-48 -34.5q-21 -23 -33 -53.5t-12 -67.5t12 -68t33 -53q20 -23 48 -35.5t60 -12.5
q31 0 58.5 13.5t48.5 36.5q21 22 33 52.5t12 65.5q0 34 -11.5 65t-31.5 54q-21 23 -49 36.5t-60 13.5z" />
    <glyph glyph-name="colon" unicode=":" horiz-adv-x="234" 
d="M194 511q0 -28 -19 -47.5t-52 -19.5q-31 0 -51 19.5t-20 47.5q0 29 20 49.5t51 20.5q33 0 52 -20.5t19 -49.5zM194 151q0 -28 -19 -48t-52 -20q-31 0 -51 20t-20 48q0 29 20 49t51 20q33 0 52 -20t19 -49z" />
    <glyph glyph-name="semicolon" unicode=";" horiz-adv-x="234" 
d="M197 141q0 -46 -22 -83.5t-75 -54.5q-11 -3 -21.5 -2t-15.5 9q-3 8 2 12.5t11 6.5q20 10 29.5 26.5t2.5 27.5q-26 4 -43 23t-17 45q0 29 21.5 49t53.5 20q19 0 33 -7t23 -18t13.5 -25t4.5 -29zM194 512q0 -28 -19 -48t-52 -20q-31 0 -51 20t-20 48q0 29 20 49t51 20
q33 0 52 -20t19 -49z" />
    <glyph glyph-name="less" unicode="&#x3c;" horiz-adv-x="653" 
d="M585 -3l-534 347l534 346v-121l-357 -225l357 -226v-121z" />
    <glyph glyph-name="equal" unicode="=" horiz-adv-x="505" 
d="M456 418h-423v96h423v-96zM456 180h-423v96h423v-96z" />
    <glyph glyph-name="greater" unicode="&#x3e;" horiz-adv-x="653" 
d="M67 118l358 226l-358 225v121l534 -346l-534 -347v121z" />
    <glyph glyph-name="question" unicode="?" horiz-adv-x="561" 
d="M296 796q53 0 96.5 -16t75.5 -45q31 -30 48.5 -72t17.5 -94q0 -32 -8.5 -59t-22.5 -50q-15 -24 -34 -43t-40 -34q-14 -13 -31 -25.5t-31 -27.5q-15 -16 -25 -35.5t-10 -44.5v-54h-115v54q0 60 30.5 105.5t83.5 80.5q15 9 30.5 22t28.5 31q13 17 21.5 37t8.5 43
q0 66 -34 97t-90 31q-23 0 -44.5 -10t-37.5 -27q-17 -18 -27.5 -42t-10.5 -52h-115q0 48 19.5 89.5t51.5 73.5q32 31 74.5 49t89.5 18zM343 59q0 -27 -18 -47t-50 -20t-51 20t-19 47q0 29 19 49t51 20t50 -20t18 -49z" />
    <glyph glyph-name="at" unicode="@" horiz-adv-x="881" 
d="M465 653q-59 0 -118 -25.5t-105 -69.5q-47 -45 -76 -103.5t-29 -124.5q0 -64 18.5 -115t52.5 -87t83 -55t110 -19q38 0 84 13.5t87 36.5l30 -80q-48 -26 -99 -38.5t-101 -12.5q-71 0 -136.5 19.5t-115.5 62.5q-51 43 -81.5 111t-30.5 166q0 72 32 144t90 130
q57 57 136.5 93.5t175.5 38.5q70 0 134.5 -27t114.5 -75q49 -48 78 -113t29 -140q0 -37 -9 -80t-29 -80q-20 -38 -53.5 -63t-82.5 -25q-25 0 -55.5 15t-46.5 39q-37 -31 -78 -45t-86 -14q-37 0 -69 13t-56 39t-37.5 64.5t-13.5 89.5q0 45 18.5 88.5t50.5 77.5q32 33 75 54
t92 21q37 0 70 -10t56 -31q2 8 3.5 20.5t2.5 19.5h86l-47 -305q-3 -20 4 -38.5t31 -17.5q45 0 66 46t21 122q0 55 -21.5 104t-58.5 86q-38 37 -88 58.5t-108 21.5zM396 215q27 0 52 10.5t46 30.5q20 19 33.5 45.5t18.5 58.5q6 33 0.5 57.5t-20.5 41.5q-15 16 -37 24.5
t-48 8.5q-28 0 -54 -14t-45 -36q-20 -23 -31.5 -52t-11.5 -59q0 -56 26 -86t71 -30z" />
    <glyph glyph-name="A" unicode="A" horiz-adv-x="790" 
d="M444 801q76 -201 152 -399.5t152 -399.5h-124q-20 53 -39 105.5t-39 106.5h-300q-20 -54 -40 -106.5t-40 -105.5h-124q78 201 154.5 399.5t154.5 399.5h93zM510 311q-29 76 -57.5 151.5t-57.5 151.5q-29 -76 -56.5 -151.5t-55.5 -151.5h227z" />
    <glyph glyph-name="B" unicode="B" horiz-adv-x="685" 
d="M540 425q54 -29 82.5 -83t28.5 -110q0 -46 -18.5 -87.5t-49.5 -72.5q-32 -32 -74.5 -51t-90.5 -19h-365v799h345q45 0 85.5 -17t70.5 -46q30 -30 47.5 -69t17.5 -83q0 -41 -18 -83.5t-49 -72.5q-5 -5 -12 -5zM418 98q24 0 45.5 11t37.5 30q15 19 24.5 43t9.5 50
q0 24 -7.5 48t-20.5 43q-14 19 -32.5 31t-40.5 12h-265v-268h249zM169 705v-242h226q22 0 41.5 10.5t34.5 27.5q14 17 22.5 39.5t8.5 45.5q0 24 -8 46t-22 38t-33 25.5t-41 9.5h-229z" />
    <glyph glyph-name="C" unicode="C" horiz-adv-x="764" 
d="M713 114q-51 -54 -121.5 -88t-161.5 -34q-87 0 -157.5 32.5t-120.5 87.5t-77 128.5t-27 156.5q0 79 25.5 152.5t74.5 129.5q48 56 119 89.5t163 33.5q88 0 157 -31.5t127 -88.5l-76 -78q-44 48 -96 75t-112 27q-58 0 -107.5 -24.5t-85.5 -66.5q-37 -42 -57.5 -98.5
t-20.5 -119.5t20.5 -119t56.5 -98q36 -43 85.5 -67.5t108.5 -24.5q60 0 111.5 27t93.5 75z" />
    <glyph glyph-name="D" unicode="D" horiz-adv-x="752" 
d="M707 401q0 -75 -28.5 -146.5t-78.5 -127.5q-50 -57 -119 -91t-150 -34h-278v799h278q77 0 145.5 -33t119.5 -88q51 -56 81 -128.5t30 -150.5zM170 705v-607h161q54 0 101.5 25.5t82.5 68.5q35 42 55 96.5t20 112.5t-19.5 113t-53.5 98q-35 42 -82.5 67.5t-103.5 25.5
h-161z" />
    <glyph glyph-name="E" unicode="E" horiz-adv-x="641" 
d="M590 705h-420v-252h390v-95h-390v-260h420v-96h-537v799h537v-96z" />
    <glyph glyph-name="F" unicode="F" horiz-adv-x="641" 
d="M590 705h-420v-252h386v-95h-386v-356h-117v799h537v-96z" />
    <glyph glyph-name="G" unicode="G" horiz-adv-x="791" 
d="M735 114q-26 -27 -60 -49.5t-73 -38.5t-83 -25t-89 -9q-87 0 -157.5 32.5t-120.5 87.5t-77 128.5t-27 156.5q0 79 25.5 152.5t74.5 129.5q48 56 119 89.5t163 33.5q88 0 157 -31.5t127 -88.5l-76 -78q-44 48 -96 75t-112 27q-58 0 -107.5 -24.5t-85.5 -66.5
q-37 -42 -57.5 -98.5t-20.5 -119.5t20.5 -119t56.5 -98q36 -43 85.5 -67.5t108.5 -24.5q51 0 104 19.5t95 54.5v194h-175v97h284z" />
    <glyph glyph-name="H" unicode="H" horiz-adv-x="718" 
d="M661 2h-117v366h-374v-366h-117v799h117v-338h374v338h117v-799z" />
    <glyph glyph-name="I" unicode="I" horiz-adv-x="247" 
d="M182 2h-117v799h117v-799z" />
    <glyph glyph-name="J" unicode="J" horiz-adv-x="511" 
d="M453 801v-568q0 -50 -18.5 -93.5t-50.5 -76.5q-33 -33 -78 -52t-97 -19q-53 0 -96.5 21t-81.5 59l74 74q29 -27 53.5 -42.5t50.5 -15.5q28 0 51.5 11.5t40.5 31.5q16 19 25 45.5t9 56.5v568h118z" />
    <glyph glyph-name="K" unicode="K" horiz-adv-x="727" 
d="M313 451l383 -449h-142l-309 367l-75 -82v-285h-117v799h117v-341l313 341h143z" />
    <glyph glyph-name="L" unicode="L" horiz-adv-x="600" 
d="M561 2h-508v799h116v-703h392v-96z" />
    <glyph glyph-name="M" unicode="M" horiz-adv-x="816" 
d="M734 801l41 -799h-119l-16 546l-227 -417l-228 418l-15 -547h-119l41 799h64l257 -477l254 477h67z" />
    <glyph glyph-name="N" unicode="N" horiz-adv-x="705" 
d="M572 2q-101 143 -201 284t-201 284v-568h-117v799h81l396 -558v558h117v-799h-75z" />
    <glyph glyph-name="O" unicode="O" horiz-adv-x="843" 
d="M422 -8q-81 0 -149.5 33t-117.5 89q-50 56 -78 130t-28 156q0 80 27 153.5t76 129.5t117.5 89.5t152.5 33.5q78 0 146.5 -32t118.5 -87q50 -56 79 -130t29 -157q0 -78 -27 -151.5t-76 -130.5q-50 -57 -118.5 -91.5t-151.5 -34.5zM422 711q-55 0 -102.5 -23.5t-82.5 -65.5
q-36 -42 -56.5 -99t-20.5 -123t20.5 -123t56.5 -99q35 -42 82.5 -66t102.5 -24q54 0 101 24t83 66q35 42 55.5 99t20.5 123t-20.5 123t-55.5 99q-36 42 -83 65.5t-101 23.5z" />
    <glyph glyph-name="P" unicode="P" horiz-adv-x="658" 
d="M619 541q0 -57 -19 -104.5t-50 -81.5q-31 -35 -72 -54t-84 -19h-224v-280h-117v799h328q47 0 90 -18.5t76 -52.5t52.5 -82t19.5 -107zM381 379q24 0 45.5 11t38.5 32q17 20 27 50t10 69t-10 69.5t-26 51.5q-17 21 -38.5 32t-44.5 11h-213v-326h211z" />
    <glyph glyph-name="Q" unicode="Q" horiz-adv-x="843" 
d="M693 2q-14 17 -27 33.5t-26 33.5q-45 -35 -100 -56t-118 -21q-81 0 -149.5 33t-117.5 89q-50 55 -78 129t-28 157q0 79 27 152.5t76 130.5q48 56 117 89.5t153 33.5q78 0 146.5 -32t118.5 -87q50 -56 79 -130t29 -157q0 -70 -21.5 -136t-61.5 -121q27 -35 54 -70.5
t55 -70.5h-128zM422 710q-55 0 -102.5 -23.5t-82.5 -65.5q-36 -42 -56.5 -98.5t-20.5 -122.5t20.5 -123t56.5 -99q35 -42 82.5 -66t102.5 -24q44 0 83 15.5t72 44.5q-29 37 -57 73t-57 73h134q11 -15 22.5 -30.5t23.5 -30.5q19 36 29 78t10 89q0 66 -20.5 122.5t-55.5 98.5
q-36 42 -83 65.5t-101 23.5z" />
    <glyph glyph-name="R" unicode="R" horiz-adv-x="658" 
d="M619 541q0 -45 -12 -84.5t-32 -70.5q-21 -32 -49 -54.5t-60 -35.5q45 -74 88.5 -147.5t88.5 -146.5h-128q-44 70 -86.5 139.5t-86.5 139.5h-173v-279h-116v799h328q47 0 90 -18.5t76 -52.5t52.5 -82t19.5 -107zM381 378q23 0 45 11t39 32q16 20 26 50.5t10 69.5t-10 69.5
t-26 51.5q-17 21 -38.5 32t-43.5 11h-214v-327h212z" />
    <glyph glyph-name="S" unicode="S" horiz-adv-x="649" 
d="M335 806q75 0 140.5 -32.5t103.5 -96.5l-81 -62q-14 20 -34 37t-43 30q-24 12 -48.5 19t-47.5 7q-21 0 -41.5 -7t-37.5 -20q-17 -14 -27.5 -33t-10.5 -43q-3 -104 118 -131q57 -9 108 -30t89 -53t59.5 -76t20.5 -100q-1 -47 -24 -87.5t-61 -70.5q-39 -30 -89.5 -47.5
t-107.5 -17.5q-83 0 -156 35.5t-118 106.5l84 66q32 -53 84 -82t107 -29q30 0 58.5 9t51.5 26q22 17 36 40t15 52q1 33 -13 59.5t-36 45.5q-23 19 -51 31t-56 18q-54 12 -98 28.5t-75 43.5t-47.5 66.5t-16.5 96.5q0 45 19.5 82t53.5 64q33 26 77.5 40.5t94.5 14.5z" />
    <glyph glyph-name="T" unicode="T" horiz-adv-x="655" 
d="M620 801v-96h-235v-703h-118v703h-236v96h589z" />
    <glyph glyph-name="U" unicode="U" horiz-adv-x="694" 
d="M636 801v-547q0 -57 -24 -105t-64 -83q-41 -35 -93.5 -54.5t-109.5 -19.5q-55 0 -107 18.5t-92 53.5q-41 34 -66.5 82t-26.5 108v547h117v-547q0 -34 13.5 -63.5t37.5 -51.5q23 -22 55 -34.5t69 -12.5q36 0 68 12.5t56 34.5q23 22 36.5 51.5t13.5 63.5v547h117z" />
    <glyph glyph-name="V" unicode="V" horiz-adv-x="783" 
d="M393 259q28 62 57 131t58 140t58 140t56 131h124q-89 -204 -176.5 -405t-176.5 -404q-88 203 -176 404t-177 405h124q58 -137 115 -271t114 -271z" />
    <glyph glyph-name="W" unicode="W" horiz-adv-x="868" 
d="M663 -8l-233 459l-233 -459l-156 809h116l88 -512l185 395l183 -395l91 512h116z" />
    <glyph glyph-name="X" unicode="X" horiz-adv-x="738" 
d="M433 415l267 -413h-131l-202 313l-201 -313h-132l268 413l-253 386h132l186 -288l187 288h132z" />
    <glyph glyph-name="Y" unicode="Y" horiz-adv-x="747" 
d="M708 801q-70 -112 -139 -221.5t-138 -220.5l1 -357h-117v357h2q-69 111 -139 220.5t-139 221.5h131l204 -330q51 83 101.5 165t101.5 165h131v0z" />
    <glyph glyph-name="Z" unicode="Z" horiz-adv-x="732" 
d="M681 98v-96h-641l446 703h-403v96h595l-446 -703h449z" />
    <glyph glyph-name="bracketleft" unicode="[" horiz-adv-x="344" 
d="M164 1h110v-93h-207v893h207v-91h-110v-709z" />
    <glyph glyph-name="backslash" unicode="\" horiz-adv-x="868" 
d="M813 349h-81l-69 -357l-169 357h-129l-168 -357l-69 357h-95v80h79l-71 372h116l55 -372h95l123 289l121 -289h95l58 372h116l-72 -372h65v-80zM621 264l13 85h-49zM237 264l36 85h-49zM403 429h53l-26 56z" />
    <glyph glyph-name="bracketright" unicode="]" horiz-adv-x="344" 
d="M177 710h-110v91h207v-893h-207v93h110v709z" />
    <glyph glyph-name="asciicircum" unicode="^" horiz-adv-x="488" 
d="M437 521h-115l-78 122l-77 -122h-116l192 279z" />
    <glyph glyph-name="underscore" unicode="_" horiz-adv-x="556" 
d="M556 -7v-85h-556v85h556z" />
    <glyph glyph-name="grave" unicode="`" horiz-adv-x="264" 
d="M163 801l75 -171h-83l-121 171h129z" />
    <glyph glyph-name="a" unicode="a" horiz-adv-x="656" 
d="M322 -7q-52 0 -102 20t-89 56q-40 36 -64 85t-24 108q0 54 22.5 103t60.5 86t89 58.5t107 21.5q21 0 44 -5t46 -14q22 -9 41.5 -20.5t33.5 -24.5v61h115v-526h-115v54q-28 -29 -74 -46t-91 -17zM322 437q-34 0 -64.5 -12.5t-53.5 -35.5q-23 -24 -36.5 -56t-13.5 -71
t13.5 -71.5t36.5 -54.5q23 -23 53.5 -35.5t64.5 -12.5t64.5 12.5t54.5 35.5q23 22 36.5 54.5t13.5 71.5q-1 40 -15 72.5t-37 55.5t-53.5 35t-63.5 12z" />
    <glyph glyph-name="b" unicode="b" horiz-adv-x="655" 
d="M333 -7q-45 0 -91 17t-74 46v-54h-115v819h115v-354q13 13 33 24.5t43 20.5q22 9 45 14t44 5q56 0 106.5 -21.5t89.5 -57.5q38 -37 60.5 -86t22.5 -104q0 -59 -24 -108t-63 -85q-40 -36 -90 -56t-102 -20zM333 437q-33 0 -63.5 -12t-53.5 -35t-37 -55.5t-15 -72.5
q0 -39 13.5 -71.5t37.5 -54.5q23 -23 53.5 -35.5t64.5 -12.5t64.5 12.5t53.5 35.5q23 22 36.5 54.5t13.5 71.5t-13.5 71t-36.5 56q-23 23 -53.5 35.5t-64.5 12.5z" />
    <glyph glyph-name="c" unicode="c" horiz-adv-x="579" 
d="M533 92q-18 -24 -42.5 -43t-51.5 -32q-28 -12 -58 -18.5t-59 -6.5q-57 0 -108 21t-89 58q-38 36 -60 85.5t-22 105.5q0 54 20.5 103t57.5 87q37 37 88 59.5t113 22.5q58 0 111.5 -25.5t94.5 -68.5l-75 -67q-24 31 -55.5 48.5t-75.5 17.5q-34 0 -64.5 -14t-53.5 -38
t-36.5 -56t-13.5 -69q0 -36 13.5 -68t36.5 -55q23 -24 53.5 -38t64.5 -14q44 0 78 19.5t58 53.5z" />
    <glyph glyph-name="d" unicode="d" horiz-adv-x="656" 
d="M322 -7q-52 0 -102 20t-89 56q-40 36 -64 85t-24 108q0 55 22.5 104t60.5 86q38 36 89 57.5t107 21.5q21 0 44 -5t46 -14q22 -9 41.5 -20.5t33.5 -24.5v354h115v-819h-115v54q-28 -29 -74 -46t-91 -17zM322 437q-34 0 -64.5 -12.5t-53.5 -35.5q-23 -24 -36.5 -56
t-13.5 -71t13.5 -71.5t36.5 -54.5q23 -23 53.5 -35.5t64.5 -12.5t64.5 12.5t54.5 35.5q23 22 36.5 54.5t13.5 71.5q-1 40 -15 72.5t-37 55.5t-53.5 35t-63.5 12z" />
    <glyph glyph-name="e" unicode="e" horiz-adv-x="606" 
d="M303 538q64 0 113 -23.5t82 -64.5q32 -42 48.5 -97.5t16.5 -119.5h-403q0 -26 13 -51t35 -44q22 -20 51 -31.5t61 -11.5q39 0 83 19t74 60l69 -65q-42 -49 -99.5 -79t-126.5 -30q-53 0 -102.5 19.5t-88.5 55.5t-62.5 85.5t-23.5 109.5q0 54 17.5 102.5t50.5 85.5
q33 36 81.5 58t110.5 22zM442 327q0 23 -11.5 44t-30.5 37q-20 16 -45 25.5t-52 9.5q-29 0 -55 -9t-45 -24q-20 -16 -31.5 -37.5t-11.5 -45.5h282z" />
    <glyph glyph-name="f" unicode="f" horiz-adv-x="500" 
d="M232 503h145v-95h-145v-406h-115v406h-76v95h76v96q0 46 16 84t44 66q27 27 65.5 42t83.5 15q48 0 87.5 -21t66.5 -56l-82 -57q-12 20 -31.5 30t-40.5 10q-43 0 -68.5 -29.5t-25.5 -83.5v-96z" />
    <glyph glyph-name="g" unicode="g" horiz-adv-x="656" 
d="M322 -7q-52 0 -102 20t-89 56q-40 36 -64 85t-24 108q0 54 22.5 103t60.5 86t89 58.5t107 21.5q21 0 44 -5t46 -14q22 -9 41.5 -20.5t33.5 -24.5v61h115v-493q-1 -60 -23 -107.5t-60 -81.5q-39 -33 -91 -50.5t-113 -17.5q-72 0 -130 29.5t-103 77.5l73 69
q30 -32 71.5 -57t88.5 -25q36 0 67 9.5t55 29.5q23 21 36.5 51.5t13.5 72.5v21q-28 -29 -74 -46t-91 -17zM322 437q-34 0 -64.5 -12.5t-53.5 -35.5q-23 -24 -36.5 -56t-13.5 -71t13.5 -71.5t36.5 -54.5q23 -23 53.5 -35.5t64.5 -12.5t64.5 12.5t54.5 35.5q23 22 36.5 54.5
t13.5 71.5q-1 40 -15 72.5t-37 55.5t-53.5 35t-63.5 12z" />
    <glyph glyph-name="h" unicode="h" horiz-adv-x="637" 
d="M550 2h-115v311q0 54 -36 90t-98 36q-24 0 -48 -10.5t-42 -27.5q-19 -17 -31 -40t-12 -48v-311h-115v819h115v-349q15 18 34 30t38 19q18 7 35.5 10t29.5 3q54 0 99 -17t78 -47q32 -30 50 -70.5t18 -86.5v-311z" />
    <glyph glyph-name="i" unicode="i" horiz-adv-x="251" 
d="M72 535h114v-533h-114v533zM128 622q-31 0 -50.5 19.5t-19.5 45.5q0 27 19.5 46t50.5 19q32 0 50.5 -19t18.5 -46q0 -26 -18.5 -45.5t-50.5 -19.5z" />
    <glyph glyph-name="j" unicode="j" horiz-adv-x="427" 
d="M373 72q0 -51 -15.5 -94t-44.5 -75t-69.5 -50t-91.5 -18q-21 0 -41.5 5.5t-39.5 14.5q-20 9 -36 20.5t-28 22.5l61 68q15 -15 38 -25.5t37 -10.5q25 0 46 7t37 23q15 17 24 44t9 68v462h114v-462zM319 622q-31 0 -50 19.5t-19 45.5q0 27 19 46t50 19q32 0 50.5 -19
t18.5 -46q0 -26 -18.5 -45.5t-50.5 -19.5z" />
    <glyph glyph-name="k" unicode="k" horiz-adv-x="579" 
d="M168 354l201 188h142l-227 -211l266 -329h-133l-204 249q-2 -2 -8.5 -9t-14.5 -15q-9 -8 -16 -15l-9 -9l3 -201h-115v819h115v-467z" />
    <glyph glyph-name="l" unicode="l" horiz-adv-x="264" 
d="M238 -14q-6 -1 -13.5 -1.5t-14.5 -1.5q-83 0 -120 34t-37 121v683h114v-679q0 -31 11 -48t35 -17h25v-91z" />
    <glyph glyph-name="m" unicode="m" horiz-adv-x="824" 
d="M776 2h-115v312q0 54 -23 89.5t-71 35.5t-72 -36.5t-24 -88.5v-312h-115v312q0 52 -23 88.5t-70 36.5t-71 -36t-24 -88v-313h-115v526h115v-27q21 15 42.5 24t52.5 9q52 0 87.5 -20t63.5 -57q29 35 65.5 56t87.5 21q49 0 87.5 -17t65.5 -47t41.5 -70t14.5 -86v-312z" />
    <glyph glyph-name="n" unicode="n" horiz-adv-x="607" 
d="M550 2h-115v312q0 54 -36 89.5t-98 35.5q-24 0 -48 -9.5t-42 -26.5q-19 -17 -31 -40t-12 -49v-312h-115v526h115v-56q15 18 33.5 30t37.5 19t36.5 10t29.5 3q52 0 97 -17t78 -46q33 -30 51.5 -70t18.5 -87v-312z" />
    <glyph glyph-name="o" unicode="o" horiz-adv-x="642" 
d="M322 -8q-55 0 -105.5 21t-88.5 58q-39 36 -62 85t-23 105q0 53 22 102t60 86q37 37 88 59t109 22q55 0 106 -21t90 -57q38 -37 61 -86t23 -105q0 -53 -22 -102t-60 -86t-89 -59t-109 -22zM322 436q-34 0 -64.5 -12.5t-53.5 -35.5t-36.5 -55.5t-13.5 -71.5t13.5 -71.5
t36.5 -54.5q23 -23 53.5 -35.5t64.5 -12.5t64.5 12.5t54.5 35.5q23 22 36.5 54.5t13.5 71.5t-13.5 71.5t-36.5 55.5q-24 23 -54.5 35.5t-64.5 12.5z" />
    <glyph glyph-name="p" unicode="p" horiz-adv-x="655" 
d="M333 -7q-23 0 -46.5 5t-44.5 13q-22 9 -41.5 20.5t-32.5 24.5v-265h-115v737h115v-61q14 14 34 25.5t43 20.5q22 8 45 13t43 5q56 0 106.5 -21.5t89.5 -57.5q38 -37 60.5 -86t22.5 -104q0 -59 -24 -108t-63 -85t-89.5 -56t-102.5 -20zM333 437q-34 0 -64 -12t-53 -35
t-37 -55.5t-15 -72.5q0 -40 13.5 -72t37.5 -54q23 -23 53.5 -35.5t64.5 -12.5t64.5 12.5t53.5 35.5q23 22 36.5 54.5t13.5 71.5t-13.5 71t-36.5 56q-23 23 -53.5 35.5t-64.5 12.5z" />
    <glyph glyph-name="q" unicode="q" horiz-adv-x="656" 
d="M322 -7q-53 0 -103 20t-89 56t-63 85t-24 108q0 55 22.5 104t61.5 86q38 36 88.5 57.5t106.5 21.5q20 0 43 -5t46 -13q22 -9 42 -20.5t34 -25.5v61h115v-737h-115v265q-14 -13 -33 -24.5t-40 -20.5q-22 -8 -46 -13t-46 -5zM322 437q-34 0 -64.5 -12.5t-53.5 -35.5
q-23 -24 -36.5 -56t-13.5 -71t13.5 -71.5t36.5 -54.5q23 -23 53.5 -35.5t64.5 -12.5t64.5 12.5t54.5 35.5q23 22 36.5 54t13.5 72q-1 40 -15 72.5t-37 55.5t-53 35t-64 12z" />
    <glyph glyph-name="r" unicode="r" horiz-adv-x="391" 
d="M348 442q-37 0 -70 -13t-57 -36q-25 -23 -39.5 -55t-14.5 -70v-266h-114v527h114v-89q33 49 80.5 73t100.5 24v-95z" />
    <glyph glyph-name="s" unicode="s" horiz-adv-x="515" 
d="M271 531q57 0 109.5 -24.5t89.5 -69.5q-18 -14 -36 -28.5t-35 -28.5q-12 15 -27.5 25.5t-32.5 17.5q-18 6 -36 9.5t-33 3.5q-10 0 -23 -2.5t-25 -8.5q-12 -7 -20 -17t-8 -25q0 -18 11.5 -28.5t28.5 -16.5q16 -7 35 -10.5t34 -6.5q36 -5 68.5 -18t58.5 -35q25 -22 40 -52
t15 -69q0 -33 -17 -61t-47 -49t-70.5 -32.5t-87.5 -11.5q-28 0 -59.5 6t-60.5 18q-30 13 -56 32.5t-44 46.5q17 17 34.5 32.5t36.5 34.5q14 -20 32.5 -34.5t38.5 -23.5q20 -10 40 -15t37 -5q16 0 35 4.5t35 13.5q15 9 25.5 22t10.5 30q0 22 -12.5 36.5t-30.5 23.5
q-19 9 -40.5 14.5t-39.5 10.5h1q-31 7 -62 17.5t-55 27.5q-25 17 -40 43t-15 63q0 33 17.5 59t45.5 44t63 27.5t71 9.5z" />
    <glyph glyph-name="t" unicode="t" horiz-adv-x="484" 
d="M217 183q0 -30 6 -49t16 -29q10 -11 22.5 -15t25.5 -4q23 0 44 16.5t34 31.5l60 -64q-11 -15 -28.5 -29t-38.5 -25q-22 -11 -44.5 -17.5t-43.5 -6.5q-45 0 -76.5 11.5t-51.5 35.5q-21 24 -30 62t-9 91v221h-71v94h71v258h114v-258h121v-94h-121v-230z" />
    <glyph glyph-name="u" unicode="u" horiz-adv-x="603" 
d="M53 530h115v-319q0 -54 36 -89t98 -35q24 0 48 9.5t43 26.5q18 17 30 39.5t12 48.5v319h115v-528h-115v51q-15 -18 -33.5 -30t-37.5 -19q-19 -6 -36.5 -9t-29.5 -3q-53 0 -98 16.5t-77 45.5q-33 30 -51.5 70t-18.5 87v319z" />
    <glyph glyph-name="v" unicode="v" horiz-adv-x="577" 
d="M531 529q-62 -137 -122 -271t-122 -270q-62 136 -123 270t-123 271h122q31 -70 62 -139.5t62 -140.5q30 70 60.5 140.5t61.5 139.5h122v0z" />
    <glyph glyph-name="w" unicode="w" horiz-adv-x="627" 
d="M579 529q-23 -137 -45 -271t-45 -270q-45 78 -88 155.5t-88 155.5q-45 -78 -88.5 -155.5t-88.5 -155.5q-23 136 -45 270t-45 271h116q8 -65 15 -129t15 -130q28 51 61.5 107t59.5 104l120 -210l30 258h116v0z" />
    <glyph glyph-name="x" unicode="x" horiz-adv-x="580" 
d="M350 294l187 -286h-126l-125 187l-124 -187h-126l188 286l-161 243h126l97 -142l99 142h126z" />
    <glyph glyph-name="y" unicode="y" horiz-adv-x="599" 
d="M564 530l-282 -730h-118l89 228l-212 502h120l146 -361l137 361h120z" />
    <glyph glyph-name="z" unicode="z" horiz-adv-x="573" 
d="M231 92h299v-95h-486l291 438h-266v95h453z" />
    <glyph glyph-name="braceleft" unicode="{" horiz-adv-x="395" 
d="M254 498q0 -40 -21 -79t-50 -65q29 -27 50 -66t21 -79v-133q0 -38 27 -55.5t73 -17.5v-95q-46 0 -85 8.5t-68 26.5q-29 19 -45.5 49.5t-16.5 75.5v141q0 20 -8.5 37.5t-22.5 30.5q-15 13 -35 21t-43 8v95q23 0 43 8t35 21q14 13 22.5 30.5t8.5 37.5v141q0 44 16.5 75
t45.5 51q29 19 68.5 27.5t84.5 8.5v-95q-46 0 -73 -17.5t-27 -58.5v-132v0z" />
    <glyph glyph-name="bar" unicode="|" horiz-adv-x="217" 
d="M165 -92h-115v893h115v-893z" />
    <glyph glyph-name="braceright" unicode="}" horiz-adv-x="398" 
d="M137 630q0 41 -26.5 58.5t-72.5 17.5v95q47 0 86.5 -9t68.5 -29q28 -20 43.5 -52.5t15.5 -79.5v-93q0 -12 0.5 -23.5t0.5 -22.5q1 -19 10 -35.5t24 -28.5q14 -12 33.5 -19.5t41.5 -7.5v-95q-23 0 -43 -8t-35 -21t-23.5 -30.5t-8.5 -37.5v-141q0 -45 -16.5 -75.5
t-44.5 -49.5q-29 -18 -68.5 -26.5t-84.5 -8.5v95q45 0 72 17.5t27 55.5v133q0 40 21.5 79t50.5 66q-29 26 -50.5 65t-21.5 79v132z" />
    <glyph glyph-name="asciitilde" unicode="~" horiz-adv-x="631" 
d="M218 390q42 0 72 -13.5t58 -33.5q14 -10 35.5 -18.5t43.5 -8.5q28 0 53.5 15.5t46.5 54.5l64 -63q-28 -48 -76 -75t-105 -27q-20 0 -35.5 2.5t-28.5 7.5t-25.5 13t-27.5 19q-20 17 -41.5 24.5t-42.5 7.5q-26 0 -57 -16t-54 -52l-62 62q29 47 77 74t105 27z" />
    <glyph glyph-name="uni007F" horiz-adv-x="1000" 
 />
    <glyph glyph-name="exclamdown" unicode="&#xa1;" horiz-adv-x="300" 
d="M80 -8v262l21 313h98l20 -312v-263h-139zM219 708q0 -29 -18.5 -48.5t-50.5 -19.5q-31 0 -50.5 19.5t-19.5 48.5q0 28 19.5 48t50.5 20q32 0 50.5 -20t18.5 -48z" />
    <glyph glyph-name="currency" unicode="&#xa4;" horiz-adv-x="950" 
d="M203 358q0 -58 21.5 -110t58.5 -91t87 -61.5t107 -22.5q56 0 105.5 23t87.5 62q37 39 58.5 90.5t21.5 109.5t-22 109.5t-59 90.5t-87 61.5t-105 22.5q-57 0 -106.5 -22.5t-86.5 -61.5q-38 -39 -59.5 -90.5t-21.5 -109.5zM830 21q-8 -8 -16 -16.5t-16 -16.5
q-29 29 -56.5 58t-56.5 58q-42 -38 -95 -59t-113 -21t-113.5 21.5t-96.5 59.5q-28 -30 -56 -59l-56 -58l-33 33q29 29 56.5 58t55.5 59q-36 45 -57 100.5t-21 119.5q0 63 21 118.5t57 100.5q-29 29 -56 59.5t-56 59.5l33 33q29 -30 56.5 -59.5t56.5 -59.5q43 39 95.5 60
t113.5 21q60 0 112.5 -21t95.5 -59q29 29 57 59t56 59q8 -8 16 -16.5t16 -16.5q-28 -30 -56 -59.5t-56 -59.5q38 -45 58 -100.5t20 -118.5q0 -64 -20.5 -119.5t-57.5 -100.5q28 -29 56 -58.5t56 -58.5z" />
    <glyph glyph-name="section" unicode="&#xa7;" horiz-adv-x="516" 
d="M254 778q23 0 45 -8t39 -21q17 -14 27 -30.5t10 -34.5q0 -15 -7.5 -27t-21.5 -12q-17 0 -24 7t-10 18q-3 8 -4.5 21t-7.5 25t-18.5 21t-36.5 9q-25 0 -39.5 -18.5t-15.5 -59.5q-1 -92 105 -177q51 -41 75 -86.5t24 -93.5q0 -28 -10 -45t-23 -26q-13 -10 -24.5 -13.5
t-15.5 -3.5q9 -12 18.5 -28.5t17.5 -35.5t13 -38.5t5 -35.5q0 -29 -8 -56t-23 -48q-16 -20 -37.5 -32t-48.5 -12q-28 0 -52 6.5t-42 19.5t-28 32t-10 43q0 17 10.5 27t21.5 10q22 0 33 -11t11 -29q0 -7 -1 -12.5t-1 -9.5q0 -17 12 -27t34 -10q29 0 48 23.5t19 57.5
q0 38 -20 75t-46 63q-26 25 -49.5 51t-40.5 51q-18 25 -28.5 48t-10.5 44q0 28 7.5 47t20.5 31q13 11 28.5 16t32.5 5q-29 36 -46.5 75.5t-17.5 81.5q0 63 31 96.5t80 36.5zM222 452q-19 5 -36 -8t-17 -36q0 -25 6.5 -41t20.5 -34v1q70 -81 107 -81q18 0 32 13.5t11 33.5
q-5 31 -19.5 57.5t-32.5 46.5q-19 20 -38.5 32.5t-33.5 15.5z" />
    <glyph glyph-name="dieresis" unicode="&#xa8;" horiz-adv-x="950" 
d="M761 834v-148h-142v148h142zM330 834v-148h-142v148h142z" />
    <glyph glyph-name="ordfeminine" unicode="&#xaa;" horiz-adv-x="950" 
d="M782 -29h-599v90h599v-90zM459 141q-52 0 -102 20t-89 56q-40 36 -64 85.5t-24 107.5q0 55 22.5 104t60.5 86t89 58.5t107 21.5q21 0 44 -5t46 -14q22 -9 41.5 -21t33.5 -25v62h115v-527h-115v55q-29 -29 -74.5 -46.5t-90.5 -17.5zM459 585q-34 0 -64.5 -12.5
t-53.5 -35.5q-23 -24 -36.5 -56t-13.5 -71t13.5 -71t36.5 -54q23 -23 53.5 -35.5t64.5 -12.5t64.5 12.5t54.5 35.5q23 22 36.5 54t13.5 71q-1 41 -15 73.5t-37 55.5q-23 22 -53.5 34t-63.5 12z" />
    <glyph glyph-name="uni00AD" unicode="&#xad;" 
d="M659 300h-519v112h519v-112z" />
    <glyph glyph-name="registered" unicode="&#xae;" horiz-adv-x="950" 
d="M780 251q-5 -57 -9.5 -111t-9.5 -109h-586v73q0 33 24.5 69t66.5 71q41 34 94 65.5t110 55.5q31 13 55.5 31t40.5 39q16 20 24.5 41t8.5 40q0 23 -7 38v-1q-16 40 -49.5 53t-86.5 13q-58 0 -83 -15q-34 -21 -34 -23q0 -4 4.5 -9.5t9.5 -13.5t9.5 -18t4.5 -23
q0 -22 -7 -39t-19 -28q-12 -12 -27 -18t-31 -6q-23 0 -40 8.5t-28 22.5q-12 14 -17.5 31.5t-5.5 34.5q0 22 10 41q41 71 107 101.5t139 30.5q52 0 90 -3.5t62 -8.5q33 -8 64.5 -24t55.5 -39t38.5 -51t14.5 -59q0 -32 -16 -71v1q-15 -33 -40.5 -58t-56.5 -44
q-32 -19 -66.5 -32t-66.5 -23q-53 -16 -94.5 -33t-69.5 -32q-29 -15 -44.5 -25.5t-15.5 -14.5q0 -1 21.5 -1.5t55.5 -0.5q33 0 73.5 -0.5t78.5 -0.5h67h42q11 0 26 6t26 17q10 12 13.5 22t6.5 17q3 6 8 9.5t18 3.5h41zM787 -85q29 0 49.5 10t34.5 27q13 17 19 38.5t6 44.5
v649q0 20 -6.5 45t-17.5 37v-1q-17 21 -41.5 28.5t-47.5 7.5h-616q-25 0 -49 -7.5t-41 -28.5v1q-11 -12 -17.5 -37t-6.5 -45v-649q0 -24 7 -45.5t21 -38.5q13 -16 33.5 -26t48.5 -10h624zM770 840q50 0 82 -14t50 -36q18 -23 24.5 -50t6.5 -53v-640q0 -50 -13.5 -83
t-34.5 -53q-21 -19 -47.5 -27t-52.5 -8h-620q-22 0 -51.5 8t-53.5 28q-15 13 -24 32t-13 38q-5 20 -6 37.5t-1 27.5v640q0 20 5.5 51t26.5 57q13 16 31.5 25t37.5 14q19 4 36 5t27 1h590z" />
    <glyph glyph-name="degree" unicode="&#xb0;" horiz-adv-x="846" 
d="M26 707q0 25 9 47.5t25 39.5q16 16 37.5 26t45.5 10q25 0 46.5 -10t37.5 -27t25 -39t9 -47q0 -24 -9 -46.5t-25 -39.5t-37.5 -27t-46.5 -10q-24 0 -45.5 9.5t-37.5 26.5t-25 39t-9 48zM73 707q0 -32 20 -53t50 -21t50.5 21t20.5 53t-20.5 53t-50.5 21t-50 -21t-20 -53z
" />
    <glyph glyph-name="plusminus" unicode="&#xb1;" horiz-adv-x="600" 
d="M576 397h-211v-212h-114v212h-213v97h213v212h114v-212h211v-97zM576 2h-538v96h538v-96z" />
    <glyph glyph-name="uni00B2" unicode="&#xb2;" horiz-adv-x="300" 
d="M153 802q25 0 44.5 -8t33.5 -21q13 -14 20 -32t7 -37q0 -35 -16.5 -57.5t-37.5 -37.5q-22 -16 -43 -29t-31 -30h129v-63h-220q0 74 70 128l15 10t25 20q12 11 22.5 25t10.5 28q0 10 -7 24.5t-26 14.5q-17 0 -26.5 -14t-9.5 -36h-69q0 22 7.5 43t21.5 37t34 25.5t46 9.5z
" />
    <glyph glyph-name="uni00B3" unicode="&#xb3;" horiz-adv-x="300" 
d="M253 736q0 -21 -7.5 -37t-20.5 -26q17 -11 27 -29.5t10 -39.5t-8.5 -38.5t-23.5 -30.5t-35.5 -20.5t-44.5 -7.5q-49 0 -80.5 29.5t-31.5 81.5h71q0 -46 41 -46q18 0 29.5 11.5t11.5 25.5q0 15 -5.5 23.5t-14.5 12.5q-10 3 -22.5 3.5t-26.5 0.5v45q27 0 44 7t17 33
q0 8 -7.5 18t-25.5 10q-15 0 -23.5 -9.5t-8.5 -23.5q0 -2 0.5 -3.5t0.5 -3.5h-73q0 22 8 41t22 33t33 21.5t41 7.5q46 0 74.5 -26.5t28.5 -62.5z" />
    <glyph glyph-name="acute" unicode="&#xb4;" horiz-adv-x="300" 
d="M64 586q12 40 23.5 74.5t22.5 63.5q22 57 48 100q20 32 50 15q29 -17 12 -52q-12 -22 -25 -43t-28 -42q-15 -20 -40.5 -49t-62.5 -67z" />
    <glyph glyph-name="paragraph" unicode="&#xb6;" horiz-adv-x="500" 
d="M443 808v-903h-45v858h-97v-858h-45v505q-47 0 -84.5 15.5t-62.5 42.5q-26 27 -39.5 63.5t-13.5 78.5q0 41 14.5 77t40.5 63q25 27 60 42.5t75 15.5h197z" />
    <glyph glyph-name="periodcentered" unicode="&#xb7;" horiz-adv-x="300" 
d="M229 358q0 -32 -21.5 -54t-57.5 -22q-35 0 -57.5 22t-22.5 54t22.5 54.5t57.5 22.5q36 0 57.5 -22.5t21.5 -54.5z" />
    <glyph glyph-name="cedilla" unicode="&#xb8;" horiz-adv-x="300" 
d="M76 -38l89 94l-89 90v57l148 -146l-148 -154v59z" />
    <glyph glyph-name="uni00B9" unicode="&#xb9;" horiz-adv-x="300" 
d="M88 805q31 0 61.5 0.5t61.5 0.5v-315h-66v254h-57v60v0z" />
    <glyph glyph-name="ordmasculine" unicode="&#xba;" horiz-adv-x="950" 
d="M782 -31h-599v91h599v-91zM474 140q-55 0 -105.5 21t-88.5 58q-39 37 -62 85.5t-23 104.5q0 54 22 102.5t60 86.5q37 37 88 59t109 22q55 0 105.5 -21t89.5 -57q38 -37 61 -86.5t23 -105.5q0 -53 -22 -102t-60 -86t-88.5 -59t-108.5 -22zM474 584q-34 0 -64.5 -12.5
t-53.5 -35.5q-24 -23 -37.5 -55.5t-13.5 -71.5t13.5 -71t37.5 -54q23 -23 53.5 -35.5t64.5 -12.5t64.5 12.5t54.5 35.5q23 22 36.5 54t13.5 71t-13.5 71.5t-36.5 55.5q-24 23 -54.5 35.5t-64.5 12.5z" />
    <glyph glyph-name="onequarter" unicode="&#xbc;" horiz-adv-x="950" 
d="M130 386h689v-56h-689v56zM451 413v287h-93v70q45 0 75.5 16t30.5 57h71v-430h-84zM287 -64v79q51 72 100.5 143.5t100.5 143.5h79v-293h58v-73h-58v-64h-82v64h-198zM485 171q-29 -43 -55.5 -82t-55.5 -83h111v165z" />
    <glyph glyph-name="onehalf" unicode="&#xbd;" horiz-adv-x="950" 
d="M130 386h690v-56h-690v56zM479 310q36 0 64 -11.5t47 -30.5q18 -19 27.5 -43t9.5 -49q0 -35 -15.5 -61t-39.5 -48q-25 -22 -55.5 -41t-59.5 -40h1q-15 -13 -26 -26t-16 -25h212v-70h-311q0 24 3 46.5t14 44.5q10 23 28.5 46t50.5 47q18 12 40 24.5t42 28.5
q20 15 33.5 34.5t13.5 44.5q0 24 -16.5 41.5t-46.5 17.5q-37 0 -54 -23.5t-17 -57.5h-83q0 29 9.5 56t28.5 48t48 34t68 13zM446 413v287h-93v70q21 0 40.5 4t33.5 13q14 8 22.5 22t8.5 34h70v-430h-82z" />
    <glyph glyph-name="threequarters" unicode="&#xbe;" horiz-adv-x="950" 
d="M130 385h689v-56h-689v56zM400 551q0 -29 19 -51t56 -22q35 0 55 19t20 48q0 25 -23 40.5t-52 15.5h-34v74q16 0 33.5 1.5t31.5 8.5q14 6 23 18.5t9 34.5q0 18 -16.5 33.5t-51.5 15.5q-31 -2 -45.5 -20.5t-14.5 -45.5h-82q0 61 40.5 98t106.5 37q30 0 56.5 -9.5
t46.5 -25.5q19 -17 30.5 -39.5t11.5 -47.5q0 -37 -16 -60.5t-35 -34.5q29 -14 47.5 -40t18.5 -60q0 -29 -12 -53.5t-33 -42.5q-22 -18 -51 -28.5t-63 -10.5t-63.5 10t-50.5 29q-22 18 -34 45.5t-12 62.5h84zM287 -64v79q51 72 100.5 143.5t100.5 143.5h79v-293h58v-73h-58
v-64h-82v64h-198zM485 171q-29 -43 -55.5 -82t-55.5 -83h111v165z" />
    <glyph glyph-name="questiondown" unicode="&#xbf;" horiz-adv-x="584" 
d="M292 -17q-53 0 -96.5 15.5t-74.5 44.5q-32 30 -49.5 71.5t-17.5 93.5q0 32 9 59.5t24 50.5q14 23 33 42t39 35q13 11 30 23.5t32 28.5q15 15 25.5 35t10.5 46v53h114v-53q0 -60 -30 -105.5t-84 -80.5h1q-15 -9 -30.5 -22.5t-28.5 -30.5q-13 -18 -21.5 -38.5t-8.5 -42.5
q0 -65 34 -96.5t89 -31.5q23 0 45 10t39 28q16 18 26.5 42t10.5 52h115q-1 -48 -20.5 -89.5t-51.5 -72.5t-74.5 -49t-89.5 -18zM245 718q0 28 18.5 48t50.5 20t51 -20t19 -48q0 -29 -19 -48.5t-51 -19.5t-50.5 19.5t-18.5 48.5z" />
    <glyph glyph-name="AE" unicode="&#xc6;" horiz-adv-x="950" 
d="M588 2q-17 47 -33 92.5t-33 92.5h-309q-17 -47 -33 -92.5t-33 -92.5h-119q69 195 138 389t138 390h579v-113h-415q20 -52 38.5 -103.5t37.5 -103.5h321v-114h-281q21 -58 41 -116t41 -116h225v-113h-303zM367 625q-29 -81 -57.5 -162t-57.5 -162h230q-29 81 -57.5 162
t-57.5 162z" />
    <glyph glyph-name="Eth" unicode="&#xd0;" horiz-adv-x="950" 
d="M877 401q0 -75 -28.5 -146.5t-78.5 -127.5q-50 -57 -119 -91t-150 -34h-278v293h-137v86h137v420h278q77 0 145.5 -33t119.5 -88q51 -56 81 -128.5t30 -150.5zM340 705v-324h241v-86h-241v-197h161q54 0 101.5 25.5t82.5 68.5q35 42 55 96.5t20 112.5t-19.5 113t-53.5 98
q-35 42 -82.5 67.5t-103.5 25.5h-161z" />
    <glyph glyph-name="multiply" unicode="&#xd7;" horiz-adv-x="950" 
d="M812 8q-32 -2 -63.5 -2.5t-63.5 -2.5q-53 78 -105 156t-106 157q-52 -78 -103.5 -156t-104.5 -156l-128 4q68 102 135.5 203t135.5 204q-64 96 -128 190.5t-128 190.5q32 2 63.5 2.5t63.5 2.5q49 -73 97.5 -145t97.5 -145q48 72 96.5 144.5t97.5 144.5q32 -1 64 -1.5
t64 -2.5q-64 -96 -128 -190.5t-128 -190.5q68 -103 135.5 -204t135.5 -203z" />
    <glyph glyph-name="Oslash" unicode="&#xd8;" horiz-adv-x="950" 
d="M256 73q-14 -17 -28.5 -34.5t-28.5 -34.5q-22 18 -43.5 35.5t-42.5 34.5q18 23 36 45.5t36 45.5q-30 50 -46.5 109.5t-16.5 125.5q0 79 24.5 152.5t69.5 130.5q44 56 107 89.5t140 33.5q52 0 98.5 -17t85.5 -47q19 23 37 46t37 46l92 -72q-22 -27 -43 -53.5t-43 -53.5
q37 -52 57.5 -117.5t20.5 -137.5q0 -78 -25 -151.5t-70 -130.5t-108 -91.5t-139 -34.5q-60 0 -112 22t-95 59zM463 88q49 0 92 23.5t76 64.5q32 41 51 96t19 119q0 52 -10.5 97t-30.5 85q-86 -107 -171.5 -212t-171.5 -212q31 -29 67.5 -45t78.5 -16zM463 710
q-51 0 -94.5 -23.5t-75.5 -65.5q-33 -42 -51 -98.5t-18 -122.5q0 -41 8 -79t22 -70q84 105 166.5 208t166.5 207q-27 21 -58.5 32.5t-65.5 11.5z" />
    <glyph glyph-name="Thorn" unicode="&#xde;" horiz-adv-x="950" 
d="M519 98q-45 0 -91 17.5t-74 45.5v-160h-115v799h115v-228q13 13 33 24.5t43 20.5q22 9 45 14t44 5q56 0 106.5 -21.5t89.5 -57.5q38 -37 60.5 -86t22.5 -104q0 -58 -24 -107.5t-63 -85.5q-40 -36 -90 -56t-102 -20zM519 542q-33 0 -63.5 -12t-53.5 -35t-37 -55.5
t-15 -72.5q0 -39 13.5 -71.5t37.5 -54.5q23 -23 53.5 -35.5t64.5 -12.5t64.5 12.5t53.5 35.5q23 22 36.5 54.5t13.5 71.5t-13.5 71t-36.5 56q-23 23 -53.5 35.5t-64.5 12.5z" />
    <glyph glyph-name="germandbls" unicode="&#xdf;" horiz-adv-x="950" 
d="M251 -26v581q0 112 56.5 165.5t157.5 53.5q56 0 99.5 -15.5t72.5 -41.5q29 -27 44.5 -61.5t16.5 -72.5q0 -41 -8.5 -70.5t-22.5 -50.5q-15 -21 -33.5 -34t-39.5 -20q15 -4 35 -17.5t45 -36.5q52 -48 52 -150q0 -96 -62 -154t-181 -58h-65v93h40q32 0 59.5 5.5t47.5 20.5
q20 14 31.5 38t11.5 62q0 37 -11 63.5t-29 42.5q-19 16 -44 23.5t-52 7.5h-47v98h25q62 0 98.5 30.5t36.5 93.5q0 59 -31 87t-88 28q-29 0 -49 -10.5t-33 -27.5q-13 -18 -19 -40t-6 -44v-589h-108z" />
    <glyph glyph-name="ae" unicode="&#xe6;" horiz-adv-x="950" 
d="M711 358q-1 26 -8 49.5t-20 41.5q-13 17 -30 27.5t-37 10.5q-21 0 -37.5 -10.5t-28.5 -28.5q-13 -18 -21 -41.5t-10 -48.5h192zM401 229q2 12 1.5 24.5t-1.5 26.5q-5 -5 -19 -12.5t-51 -15.5q-64 -15 -90 -34.5t-26 -53.5q0 -23 14.5 -39.5t40.5 -16.5q21 0 43 9.5
t41 26.5q18 16 31 38t16 47zM510 48q2 -8 2.5 -16t0.5 -14h-102q-1 7 -4 22.5t-5 28.5q-9 -12 -23 -23.5t-31 -21.5q-18 -9 -38 -14.5t-40 -5.5q-29 0 -58 10.5t-52 30.5t-37.5 50t-14.5 69q0 58 29.5 98.5t80.5 60.5q23 9 54.5 13.5t60.5 12.5q28 7 47.5 21t19.5 43
q0 14 -5.5 28t-16.5 26q-11 11 -26.5 18.5t-35.5 7.5q-42 0 -62 -28.5t-21 -73.5h-100q0 39 11.5 75.5t35.5 64.5q23 27 57.5 43.5t79.5 16.5q50 0 90 -21t63 -59q27 36 64 57.5t82 21.5q38 0 75.5 -17.5t67.5 -53.5t49 -91t19 -130v-21.5t-1 -20.5h-310q0 -30 7 -57t20 -47
q13 -21 31.5 -33t41.5 -12q77 0 80 70h115q-4 -34 -18 -65t-38 -55q-25 -24 -59.5 -38t-77.5 -14q-62 0 -108 43z" />
    <glyph glyph-name="eth" unicode="&#xf0;" horiz-adv-x="950" 
d="M472 0q-65 0 -113.5 23.5t-80.5 64.5t-48.5 96.5t-16.5 119.5h402q0 25 -11.5 48.5t-31.5 41.5q-18 -16 -35 -32t-35 -33q-14 15 -28.5 30t-29.5 30q13 12 25 23.5t24 23.5q-20 6 -38 6q-39 0 -83 -19t-74 -60q-17 17 -34.5 32.5t-34.5 32.5q42 49 99.5 79.5t126.5 30.5
q29 0 58.5 -7t55.5 -19q32 31 63 62t63 62q14 -17 29.5 -33.5t29.5 -33.5q-28 -27 -55 -53t-56 -52q41 -36 65 -86t24 -111q0 -54 -17.5 -102t-50.5 -85t-81.5 -58.5t-110.5 -21.5zM333 210q0 -23 11.5 -44t31.5 -37q19 -16 44 -25.5t52 -9.5q29 0 55 9t46 25
q19 15 30.5 36.5t11.5 45.5h-282z" />
    <glyph glyph-name="divide" unicode="&#xf7;" horiz-adv-x="926" 
d="M461 680q41 0 62 -25.5t21 -60.5t-23.5 -59t-56.5 -24q-35 0 -59.5 22.5t-24.5 60.5q0 18 6 33.5t17 27.5q11 11 26 18t32 7zM789 298h-653v112h653v-112zM545 117q0 -34 -23.5 -59.5t-57.5 -25.5q-35 1 -59.5 24t-24.5 61q0 34 22.5 59.5t57.5 25.5q43 0 64 -25t21 -60z
" />
    <glyph glyph-name="oslash" unicode="&#xf8;" horiz-adv-x="950" 
d="M203 260q0 54 21.5 102.5t59.5 86.5q38 37 88.5 59t109.5 22q30 0 59.5 -7t57.5 -20q14 17 27.5 34.5t27.5 34.5q23 -18 46.5 -36t46.5 -35q-14 -17 -27.5 -33.5t-27.5 -33.5q32 -35 50.5 -79t18.5 -95q0 -53 -22 -101.5t-60 -85.5t-88.5 -59t-108.5 -22q-34 0 -66 8.5
t-61 23.5q-13 -16 -25.5 -31t-24.5 -31q-22 18 -43.5 35.5t-42.5 35.5q11 15 23.5 29.5t24.5 29.5q-30 35 -47 77.5t-17 90.5zM313 260q0 -48 23 -83q50 62 99 124t100 124q-27 9 -54 9q-34 0 -64.5 -12.5t-53.5 -34.5q-23 -23 -36.5 -55.5t-13.5 -71.5zM482 87
q34 0 64 12.5t53 35.5q23 22 36.5 53t13.5 69q0 53 -25 95q-51 -63 -102.5 -126t-103.5 -127q15 -5 31 -8.5t33 -3.5z" />
    <glyph glyph-name="thorn" unicode="&#xfe;" horiz-adv-x="950" 
d="M723 2h-115v294q0 54 -35.5 90t-98.5 36q-24 0 -48 -10.5t-42 -27.5q-19 -17 -31 -40t-12 -48v-294h-115v791h115v-338q15 18 34 30t38 19q18 7 35.5 10t29.5 3q54 0 99 -17t78 -47q32 -30 50 -70.5t18 -86.5v-294z" />
    <glyph glyph-name="dcroat" unicode="&#x111;" horiz-adv-x="950" 
d="M469 -7q-52 0 -102 20t-89 56q-40 36 -64 85t-24 108q0 55 22.5 104t60.5 86q38 36 89 57.5t107 21.5q21 0 44 -5t46 -14q22 -9 41.5 -20.5t33.5 -24.5v159h-290v87h290v108h115v-108h102v-87h-102v-624h-115v54q-29 -29 -74.5 -46t-90.5 -17zM469 437q-34 0 -64.5 -12.5
t-53.5 -35.5q-23 -24 -36.5 -56t-13.5 -71t13.5 -71.5t36.5 -54.5q23 -23 53.5 -35.5t64.5 -12.5t64.5 12.5t54.5 35.5q23 22 36.5 54.5t13.5 71.5q-1 40 -15 72.5t-37 55.5t-53.5 35t-63.5 12z" />
    <glyph glyph-name="Hbar" unicode="&#x126;" horiz-adv-x="950" 
d="M751 2h-116v290h-302v-290h-117v549h-122v86h122v144h117v-144h302v144h116v-144h120v-86h-120v-549zM635 405v146h-302v-146h302z" />
    <glyph glyph-name="hbar" unicode="&#x127;" horiz-adv-x="950" 
d="M706 2h-115v294q0 54 -36 90t-98 36q-24 0 -48 -10.5t-42 -27.5q-19 -17 -31 -40t-12 -48v-294h-115v623h-99v87h99v106h115v-106h293v-87h-293v-171q15 18 34 30.5t38 19.5q18 7 35.5 10t29.5 3q54 0 99 -17t78 -47q32 -30 50 -70.5t18 -86.5v-294z" />
    <glyph glyph-name="dotlessi" unicode="&#x131;" horiz-adv-x="950" 
d="M408 535h115v-533h-115v533zM464 622q-31 0 -50 19.5t-19 45.5q0 27 19 46t50 19q32 0 50.5 -19t18.5 -46q0 -26 -18.5 -45.5t-50.5 -19.5z" />
    <glyph glyph-name="IJ" unicode="&#x132;" horiz-adv-x="950" 
d="M298 2h-117v799h117v-799zM771 801v-568q0 -50 -18.5 -93.5t-50.5 -76.5q-33 -33 -77.5 -52t-96.5 -19q-54 0 -97.5 21t-81.5 59l75 74q29 -27 53 -42.5t51 -15.5q28 0 51 11.5t40 31.5q16 19 25.5 45.5t9.5 56.5v568h117z" />
    <glyph glyph-name="ij" unicode="&#x133;" horiz-adv-x="950" 
d="M703 72q0 -51 -15.5 -94t-44.5 -75t-69.5 -50t-91.5 -18q-21 0 -41.5 5.5t-39.5 14.5q-20 9 -36 20.5t-28 22.5l61 68q15 -15 38 -25.5t37 -10.5q25 0 46 7t37 23q15 17 24 44t9 68v462h114v-462zM644 622q-30 0 -49.5 19.5t-19.5 45.5q0 27 19.5 46t49.5 19q32 0 51 -19
t19 -46q0 -26 -19 -45.5t-51 -19.5zM288 535h115v-533h-115v533zM349 622q-31 0 -50.5 19.5t-19.5 45.5q0 27 19.5 46t50.5 19q32 0 50.5 -19t18.5 -46q0 -26 -18.5 -45.5t-50.5 -19.5z" />
    <glyph glyph-name="kgreenlandic" unicode="&#x138;" horiz-adv-x="950" 
d="M689 583q-54 -65 -108 -129t-109 -129q63 -81 125.5 -162t125.5 -162h-137q-47 61 -93.5 122t-93.5 123l-43 -43v-202h-112v582h112v-226q49 57 97.5 112.5t98.5 112.5q35 0 68.5 0.5t68.5 0.5z" />
    <glyph glyph-name="Ldot" unicode="&#x13f;" horiz-adv-x="950" 
d="M748 2h-508v799h116v-703h392v-96zM712 351q0 -29 -19 -48.5t-50 -19.5q-33 0 -51.5 19.5t-18.5 48.5q0 28 18.5 48t51.5 20q31 0 50 -20t19 -48z" />
    <glyph glyph-name="ldot" unicode="&#x140;" horiz-adv-x="950" 
d="M532 430q0 28 18.5 48t50.5 20t51 -20t19 -48q0 -29 -19 -48.5t-51 -19.5t-50.5 19.5t-18.5 48.5zM392 2h-117v799h117v-799z" />
    <glyph glyph-name="Lslash" unicode="&#x141;" horiz-adv-x="950" 
d="M748 2h-508v337q-23 -19 -45 -37l-44 -36l-54 69q35 29 71 58l72 58v350h116v-256l117 96q14 -17 26.5 -34.5t26.5 -34.5q-43 -35 -85 -69.5t-85 -69.5v-335h392v-96z" />
    <glyph glyph-name="lslash" unicode="&#x142;" horiz-adv-x="950" 
d="M525 2h-117v342l-108 -89l-55 71l163 131v344h117v-249l113 92l54 -69l-167 -137v-436z" />
    <glyph glyph-name="napostrophe" unicode="&#x149;" horiz-adv-x="950" 
d="M724 2h-114v312q0 54 -36.5 89.5t-97.5 35.5q-24 0 -48 -9.5t-42 -26.5q-19 -17 -31 -40t-12 -49v-312h-115v526h115v-56q15 18 33.5 30t37.5 19t36.5 10t29.5 3q52 0 97 -17t78 -46q32 -30 50.5 -70t18.5 -87v-312z" />
    <glyph glyph-name="Eng" unicode="&#x14a;" horiz-adv-x="950" 
d="M589 296q0 26 -9.5 49t-26.5 40q-18 17 -42.5 27t-55.5 10q-24 0 -47.5 -10.5t-42.5 -27.5t-31 -40t-12 -48v-294h-114v819h114v-367q15 18 34 30.5t38 19.5q18 7 35.5 10t30.5 3q53 0 98 -17t78 -47q32 -30 50 -70.5t18 -86.5v-80q0 -83 -22.5 -140.5t-58.5 -93.5
t-82 -52.5t-93 -17.5q0 28 -0.5 56t-0.5 57q66 5 104 53.5t38 132.5v85z" />
    <glyph glyph-name="eng" unicode="&#x14b;" horiz-adv-x="950" 
d="M699 57q0 -61 -9 -98t-26 -58q-18 -20 -43.5 -26.5t-58.5 -6.5h-57v107h13q15 0 27.5 2t21.5 9q8 8 12.5 22.5t4.5 39.5v266q0 54 -36 89.5t-98 35.5q-24 0 -48 -9.5t-42 -26.5q-19 -17 -31 -40t-12 -49v-312h-115v526h115v-56q15 18 33.5 30t37.5 19q19 6 36.5 9t29.5 3
q55 0 100 -17.5t78 -47.5q32 -31 49.5 -73.5t17.5 -91.5v-246z" />
    <glyph glyph-name="OE" unicode="&#x152;" horiz-adv-x="950" 
d="M871 807v-93h-280q40 -45 63.5 -111t29.5 -147h165v-116h-165q-6 -81 -29.5 -145.5t-63.5 -108.5h292v-94h-491q-69 0 -124 30t-92 84q-38 54 -58 129t-20 165t20 165t58 129q37 53 92 83t124 30h479zM392 87q36 2 70 24.5t60 63.5q26 40 41.5 97t15.5 128q0 72 -16 130
t-42 99q-27 40 -60.5 62t-68.5 22t-68.5 -22t-59.5 -62q-26 -41 -42.5 -99t-16.5 -130t16.5 -130t42.5 -98q26 -41 59.5 -63t68.5 -22z" />
    <glyph glyph-name="oe" unicode="&#x153;" horiz-adv-x="950" 
d="M318 492q-23 0 -41.5 -16t-31.5 -43q-14 -27 -21 -62t-7 -74t7 -74t21 -61q13 -27 31.5 -43t41.5 -16t41.5 16.5t31.5 43.5t20 62t7 72q0 38 -7 73.5t-20 62.5q-14 27 -32.5 43t-40.5 16zM732 358q-2 25 -8.5 48.5t-18.5 41.5t-28.5 28.5t-37.5 10.5q-20 0 -36.5 -10.5
t-28.5 -27.5q-13 -18 -20.5 -41.5t-9.5 -49.5h188zM478 485q29 45 69 75t92 30t91 -27t65 -71t38.5 -99.5t12.5 -111.5q0 -6 -0.5 -12.5t-0.5 -12.5h-305q2 -25 9 -51.5t19 -47.5q12 -22 30 -36t41 -14q18 0 32 7t24 18q9 10 14.5 22t7.5 23h114q-8 -30 -22.5 -60.5
t-37.5 -55.5t-55 -40.5t-75 -15.5q-51 0 -92 29.5t-70 77.5q-26 -48 -66.5 -78t-94.5 -30q-47 0 -84.5 23t-63.5 63q-27 40 -41.5 93.5t-14.5 113.5q0 61 14.5 114.5t41.5 93.5t64.5 63t83.5 23q53 0 93.5 -28.5t66.5 -77.5z" />
    <glyph glyph-name="Tbar" unicode="&#x166;" horiz-adv-x="950" 
d="M416 383h-235v86h235v195h-235v113h587v-113h-235v-195h235v-86h-235v-381h-117v381z" />
    <glyph glyph-name="tbar" unicode="&#x167;" horiz-adv-x="950" 
d="M650 406v-90h-143v-133q0 -30 6 -49t16 -29q10 -11 22 -14.5t24 -3.5q23 0 45 16t35 31l60 -64q-11 -16 -29.5 -30t-40.5 -25q-22 -10 -46 -16t-46 -6q-87 0 -123.5 48.5t-36.5 149.5v125h-142v90h142v106h-116v94h116v159h114v-159h110v-94h-110v-106h143z" />
    <glyph glyph-name="caron" unicode="&#x2c7;" horiz-adv-x="384" 
d="M191 522l-192 279h115l78 -122l78 122h115z" />
    <glyph glyph-name="uni02D0" unicode="&#x2d0;" horiz-adv-x="300" 
d="M150 470l-72 131h143zM150 246l71 -131h-142z" />
    <glyph glyph-name="breve" unicode="&#x2d8;" horiz-adv-x="416" 
d="M39 860q13 -20 32 -37.5t42 -29.5q22 -13 46.5 -20t48.5 -7q51 0 96.5 27t73.5 67l43 -31q-37 -53 -92 -83.5t-121 -30.5q-65 0 -120 30.5t-93 83.5z" />
    <glyph glyph-name="dotaccent" unicode="&#x2d9;" horiz-adv-x="300" 
d="M150 659q-32 0 -52.5 20.5t-20.5 47.5q0 29 20.5 48.5t52.5 19.5q33 0 53 -19.5t20 -48.5q0 -27 -20 -47.5t-53 -20.5z" />
    <glyph glyph-name="ring" unicode="&#x2da;" horiz-adv-x="300" 
d="M36 703q0 23 8.5 44.5t23.5 38.5q15 16 35.5 26t45.5 10t46 -10t36 -26q15 -17 23.5 -38.5t8.5 -44.5t-8.5 -44.5t-23.5 -37.5q-15 -17 -36 -27t-46 -10t-45.5 10t-35.5 27q-15 16 -23.5 37.5t-8.5 44.5zM81 703q0 -33 19 -52.5t49 -19.5t49.5 19.5t19.5 52.5
q0 32 -19.5 51.5t-49.5 19.5t-49 -19.5t-19 -51.5z" />
    <glyph glyph-name="ogonek" unicode="&#x2db;" horiz-adv-x="300" 
d="M224 -97l-148 154l148 146v-74l-73 -73l73 -78v-75z" />
    <glyph glyph-name="hungarumlaut" unicode="&#x2dd;" horiz-adv-x="416" 
d="M35 586q12 40 23 74.5t22 63.5q22 57 48 100q21 31 51 15q28 -17 11 -52q-11 -22 -24.5 -43t-28.5 -42q-14 -20 -39.5 -49t-62.5 -67zM210 586q12 40 23.5 74.5t22.5 63.5t22.5 54t24.5 46q21 31 51 15q28 -17 11 -52q-11 -22 -24.5 -43t-28.5 -42q-14 -20 -39.5 -49
t-62.5 -67z" />
    <glyph glyph-name="Alpha" unicode="&#x391;" horiz-adv-x="950" 
d="M187 121q103 168 206 334.5t207 334.5q6 9 16 12.5t22 3.5q21 0 23 -18q21 -172 42 -345.5t42 -345.5q0 -26 11.5 -32.5t45.5 -6.5q21 0 21 -18q0 -16 -10.5 -27t-24.5 -11h-239q-23 0 -23 18q0 19 11 28.5t24 9.5q39 0 52.5 5.5t13.5 25.5q0 41 -7.5 83.5t-12.5 83.5
h-263q-14 -21 -32.5 -49.5t-35.5 -55.5q-17 -28 -29 -50.5t-12 -31.5q1 -6 13.5 -7t27.5 -2q14 -2 26 -5.5t12 -14.5q0 -38 -35 -38h-197q-20 0 -20 22q0 17 9.5 25.5t21.5 8.5q19 0 31.5 1.5t22.5 8.5q9 6 18 18.5t22 34.5zM602 319q-10 78 -18.5 150.5t-16.5 150.5
q-50 -77 -93.5 -150t-91.5 -151h220z" />
    <glyph glyph-name="Beta" unicode="&#x392;" horiz-adv-x="950" 
d="M84 2q-22 0 -22 16q0 20 10 30t25 10q26 0 41.5 2t24.5 8t13 17t8 28q35 141 71.5 281.5t71.5 282.5q5 20 5 30q0 13 -10.5 17.5t-52.5 4.5q-22 0 -22 17q0 18 10.5 28.5t24.5 10.5h330q37 0 74.5 -8t67.5 -25q29 -18 47.5 -46.5t18.5 -69.5q0 -43 -17.5 -81t-45.5 -67
q-29 -30 -65 -50t-74 -28q28 -6 54 -17t46 -28q20 -18 32.5 -42t12.5 -55q0 -26 -8 -55q-20 -71 -60 -112.5t-92 -63.5t-112.5 -28.5t-121.5 -6.5h-285zM444 675q-16 -61 -31 -121t-30 -121h45q29 0 51 1t38 3q30 4 62 18.5t59 39.5q26 24 43.5 58.5t17.5 78.5q0 23 -8 41
t-19 28q-9 8 -20.5 13.5t-28.5 8.5q-18 3 -43 4.5t-60 1.5q-39 0 -53.5 -11.5t-22.5 -42.5zM368 377q-17 -67 -34 -132.5t-34 -133.5q-3 -11 -4 -18.5t-1 -12.5q0 -13 10.5 -17.5t39.5 -4.5h54q34 0 66.5 4.5t60.5 18.5q24 11 44.5 31.5t35.5 46.5q15 25 24 55t9 61
q0 28 -12.5 47.5t-33.5 31.5q-22 12 -52.5 17.5t-66.5 5.5h-106z" />
    <glyph glyph-name="Gamma" unicode="&#x393;" horiz-adv-x="950" 
d="M182 136q33 134 67.5 265t67.5 265q3 13 4.5 24t1.5 18q0 14 -11.5 18t-50.5 4q-23 0 -23 19q0 18 10.5 27t24.5 9h550q19 0 19 -14l-44 -248q-2 -13 -11 -21t-24 -8q-19 0 -19 20q2 14 2 28.5v25.5q0 52 -6.5 83.5t-29.5 49.5q-24 17 -69 23t-122 6q-26 0 -41.5 -5.5
t-24.5 -14.5t-13 -21t-8 -26l-134 -530q-10 -37 -10 -57q0 -11 14 -14.5t48 -3.5q21 0 21 -17q0 -19 -10.5 -29t-24.5 -10h-259q-24 0 -24 18q0 20 10.5 29t26.5 9q28 0 43 2t23 10q8 7 13 23t13 43z" />
    <glyph glyph-name="uni0394" unicode="&#x394;" horiz-adv-x="950" 
d="M616 104q-12 122 -24.5 243.5t-25.5 242.5q-75 -121 -150.5 -241.5t-150.5 -242.5q-17 -26 -17 -38q0 -11 16 -11.5t42 -0.5h246q38 0 51.5 6.5t13.5 26.5v6.5t-1 8.5zM660 777q20 -174 39 -345.5t38 -345.5v1q3 -24 3 -40q0 -45 -41 -45h-497q-39 0 -39 25
q0 11 4.5 23.5t19.5 36.5q108 174 213.5 346.5t213.5 346.5q5 8 13.5 12t14.5 4q7 0 12 -4.5t6 -14.5z" />
    <glyph glyph-name="Epsilon" unicode="&#x395;" horiz-adv-x="950" 
d="M727 289q10 0 18.5 -3.5t3.5 -17.5q-20 -62 -38 -122.5t-38 -120.5q-8 -23 -30 -23h-572q-23 0 -23 18q0 20 10.5 29t24.5 9q28 0 44 2t24 8t11.5 17t7.5 29q36 141 72 280.5t72 281.5q3 11 4 20t1 14q0 11 -11.5 15t-50.5 4q-23 0 -23 18q0 19 10 28.5t26 9.5h558
q11 0 15.5 -2.5t4.5 -10.5q0 -5 -1 -9q-12 -60 -24.5 -119.5t-24.5 -119.5q-3 -9 -11 -15.5t-23 -6.5q-16 0 -16 19q0 14 1 30t1 28q-1 48 -7.5 79t-20.5 43q-34 28 -212 28q-24 0 -36.5 -1t-19.5 -6t-11.5 -16t-11.5 -31q-15 -62 -30.5 -122t-31.5 -122q51 1 84 4.5
t47 14.5q29 22 67 108v-1q5 13 12.5 18.5t16.5 5.5q23 0 23 -20q0 -2 -2 -12q-19 -73 -38 -148t-38 -149q-4 -14 -12.5 -18.5t-20.5 -4.5q-19 0 -19 19q0 13 1 26t1 24q0 26 -4 41t-18 23q-15 8 -42.5 10t-73.5 2q-15 -66 -32 -131.5t-33 -130.5q-4 -16 -5 -26.5t4 -16.5
q4 -6 16 -8.5t36 -2.5q188 0 241 32q50 31 120 182q8 17 27 17z" />
    <glyph glyph-name="Zeta" unicode="&#x396;" horiz-adv-x="950" 
d="M617 728q-128 0 -182 -30q-25 -14 -54 -57.5t-62 -120.5v2q-9 -20 -25 -20q-12 0 -18 6t-6 14q0 4 2 12q19 58 37 115.5t37 115.5q4 20 28 20h471q8 0 11.5 -5t3.5 -13q0 -7 -3 -15.5t-9 -15.5q-149 -171 -296 -338.5t-295 -338.5h125q127 0 183 30q53 28 117 176
q4 9 10 14t20 5q11 0 18 -6t4 -16q-18 -60 -37.5 -119.5t-38.5 -119.5q-8 -21 -28 -21h-506q-15 0 -15 17t13 33q146 170 291 337.5t291 338.5h-87z" />
    <glyph glyph-name="Eta" unicode="&#x397;" horiz-adv-x="950" 
d="M653 439l54 216q5 19 7.5 32.5t2.5 21.5q0 11 -10.5 16t-51.5 5q-22 0 -22 16q0 20 10.5 29.5t25.5 9.5h258q23 0 23 -19q0 -14 -9.5 -25t-25.5 -11q-27 0 -42.5 -1.5t-24.5 -8.5q-9 -8 -14 -24t-12 -44q-33 -131 -65.5 -260t-66.5 -260q-9 -36 -9 -54q0 -14 11.5 -17
t49.5 -3q22 0 22 -18q0 -38 -35 -38h-260q-23 0 -23 18q0 19 12 28.5t26 9.5q54 0 65 11q9 9 20.5 44.5t23.5 81.5q11 45 22.5 94t20.5 85h-332q-14 -60 -30.5 -120.5t-31.5 -121.5q-5 -20 -6.5 -33.5t-1.5 -21.5q0 -13 12.5 -16t48.5 -3q21 0 21 -17q0 -39 -35 -39h-258
q-24 0 -24 20q0 18 11 27t25 9q28 0 43.5 1.5t24.5 9.5q8 7 12.5 22.5t11.5 42.5q34 131 66.5 260.5t65.5 260.5q11 42 11 57q0 10 -13.5 14t-48.5 4q-23 0 -23 19q0 18 10.5 27t25.5 9h259q22 0 22 -18q0 -14 -9.5 -25.5t-25.5 -11.5q-29 0 -44 -2t-23 -9q-9 -8 -13.5 -24
t-11.5 -43l-54 -213h332z" />
    <glyph glyph-name="Theta" unicode="&#x398;" horiz-adv-x="950" 
d="M585 800q51 0 99 -19t85 -55q37 -37 59 -91.5t22 -124.5q0 -66 -18.5 -130t-51.5 -122q-33 -59 -77.5 -109t-96.5 -86q-52 -37 -110 -57.5t-116 -20.5q-60 0 -109 21t-83 60q-35 38 -54 90.5t-19 115.5q0 68 19 133.5t53 124.5q33 58 78 107.5t97 85.5t109 56.5t114 20.5
zM570 731q-52 -1 -97 -24t-81 -61q-37 -39 -65 -88.5t-47 -102.5t-29 -107t-10 -100q0 -95 39.5 -144.5t114.5 -49.5q107 0 189 94q29 34 54 79.5t44 97.5q18 52 29 107.5t12 109.5q1 36 -8 69t-28 59t-48 42.5t-69 18.5zM387 352q-19 0 -27 -11t-13 -24q-6 -13 -13 -24
t-23 -11q-12 0 -12 12q0 5 1 14t4 20q7 25 15 57t16 61q8 28 17.5 47.5t19.5 19.5q8 0 14 -5t2 -17q-3 -12 -3 -22q0 -7 2.5 -17t23.5 -10h174q18 0 27 11t15 25q6 13 13 24.5t21 11.5q12 0 12 -15q0 -6 -2 -14t-4 -17l-38 -142q-5 -20 -13.5 -33t-16.5 -13q-12 0 -14.5 9.5
t-2.5 21.5v17q0 8 -4.5 16t-19.5 8h-171z" />
    <glyph glyph-name="Iota" unicode="&#x399;" horiz-adv-x="950" 
d="M468 133q-9 -36 -9 -53q0 -8 2 -12t9 -6q7 -3 20 -3.5t35 -0.5q21 0 21 -18q0 -38 -34 -38h-267q-25 0 -25 18q0 19 12 28.5t26 9.5q30 0 44.5 1.5t22.5 9.5q7 7 12 22.5t16 43.5l132 518q5 20 7 34.5t2 22.5q0 11 -13 15.5t-51 4.5q-24 0 -24 19q0 18 11 27t26 9h267
q22 0 22 -18q0 -14 -9.5 -25.5t-25.5 -11.5q-28 0 -43.5 -1t-24.5 -8t-14.5 -23t-13.5 -46z" />
    <glyph glyph-name="Kappa" unicode="&#x39a;" horiz-adv-x="950" 
d="M440 385q-38 -31 -75.5 -61t-75.5 -60q-6 -23 -13.5 -51t-14.5 -54t-11.5 -47.5t-4.5 -32.5q0 -7 2 -11t9 -6q7 -3 19.5 -3.5t32.5 -0.5t20 -19q0 -14 -10 -25.5t-24 -11.5h-259q-24 0 -24 18q0 19 11.5 28.5t24.5 9.5q27 0 42 1.5t24 9.5q9 7 14 22t12 43
q33 131 66.5 260.5t66.5 260.5q8 32 8 49q0 12 -4 17t-11 7q-8 2 -19 1.5t-26 -0.5q-11 0 -17 6t-6 14q0 18 10.5 27t25.5 9h258q24 0 24 -17q0 -19 -10.5 -29t-24.5 -10q-29 0 -45 -2t-24 -10t-12.5 -23t-10.5 -41q-19 -75 -37 -147t-37 -147q81 69 159 137.5t159 137.5
q32 27 52.5 49t20.5 30q0 9 -14.5 11t-31.5 3q-18 1 -32.5 4.5t-14.5 16.5q0 18 10 27.5t23 9.5h273q22 0 22 -18q0 -19 -11 -28.5t-23 -9.5q-25 0 -41 -2.5t-28 -7.5q-13 -6 -25 -15.5t-30 -23.5q-59 -52 -120.5 -104.5t-120.5 -106.5q38 -93 76.5 -184.5t76.5 -185.5v2
q7 -14 12.5 -22.5t13.5 -12.5q8 -5 21.5 -6.5t36.5 -1.5q19 0 19 -17q0 -18 -9 -28.5t-23 -10.5h-294q-20 0 -20 15q0 18 9.5 29.5t24.5 11.5q32 0 56 3.5t24 13.5q0 6 -7 24q-30 72 -59.5 143t-58.5 143z" />
    <glyph glyph-name="Lambda" unicode="&#x39b;" horiz-adv-x="950" 
d="M628 106q-14 128 -29 256t-30 257q-79 -128 -157.5 -255.5t-157.5 -255.5q-8 -14 -12.5 -22t-4.5 -14q0 -10 12.5 -11.5t27.5 -1.5t27.5 -3t12.5 -16q0 -16 -11 -27t-25 -11h-197q-21 0 -21 17t10 28t24 11q19 0 30.5 1.5t20.5 8.5q9 6 17.5 18.5t22.5 34.5
q104 169 207 335t208 334q5 9 14 12t23 3q21 0 22 -17q22 -172 43 -345.5t42 -345.5q0 -26 13 -33q3 -2 13.5 -2.5t22.5 -1.5q11 -2 20 -6t9 -13q0 -16 -10 -27.5t-24 -11.5h-240q-12 0 -17 6t-5 11q0 17 10 28t23 11h8q34 0 46.5 5t12.5 25v8.5t-1 9.5z" />
    <glyph glyph-name="Mu" unicode="&#x39c;" horiz-adv-x="950" 
d="M292 669q-33 -136 -67 -269t-66 -268q-5 -17 -6.5 -30.5t-1.5 -22.5q0 -14 11.5 -18t46.5 -4q21 0 21 -18q0 -17 -10.5 -27t-24.5 -10h-208q-24 0 -24 18q0 19 11 28t25 9q27 0 41 2.5t22 10.5q7 7 11.5 22t11.5 41q32 129 65 262t65 261q9 39 9 55q0 11 -12.5 15
t-44.5 4q-21 0 -21 17q0 15 9.5 26t23.5 11h202q11 0 15.5 -5t6.5 -19q8 -136 15.5 -269.5t15.5 -269.5q74 137 146 271t147 270q5 10 12 16t18 6h205q22 0 22 -18q0 -36 -33 -36q-29 0 -43.5 -2t-22.5 -9q-8 -8 -12.5 -22.5t-11.5 -39.5q-32 -131 -65 -262.5t-65 -262.5
q-9 -35 -9 -54q0 -7 2 -11t8 -6q6 -3 18 -3.5t32 -0.5q23 0 23 -18q0 -17 -11 -27t-25 -10h-253q-23 0 -23 18q0 19 10.5 28t24.5 9q27 0 41.5 1t22.5 8t13 23t12 45q33 135 67 269t66 269q-91 -168 -182 -332.5t-181 -331.5q-8 -16 -28 -16q-11 0 -19.5 7.5t-9.5 19.5
q-10 163 -18.5 324.5t-19.5 325.5z" />
    <glyph glyph-name="Nu" unicode="&#x39d;" horiz-adv-x="950" 
d="M633 218q28 110 55.5 218t55.5 218q9 37 9 54q0 12 -10 17t-48 5q-22 0 -22 17q0 15 11 26.5t25 11.5h212q24 0 24 -18t-11 -27.5t-25 -9.5q-27 0 -42 -2.5t-23 -10.5q-9 -9 -13.5 -24.5t-10.5 -40.5q-41 -157 -82 -318.5t-80 -319.5q-3 -12 -13.5 -20t-28.5 -8
q-20 0 -29 19v-1q-67 160 -130.5 313.5t-130.5 313.5q-32 -125 -63.5 -249t-62.5 -249q-5 -18 -7.5 -33t-2.5 -24q0 -10 12 -14t47 -4q21 0 21 -17q0 -16 -10.5 -27.5t-25.5 -11.5h-213q-23 0 -23 17q0 20 9.5 29.5t26.5 9.5q25 0 39 1.5t23 8.5q8 7 13.5 22.5t13.5 44.5
q32 131 66 260.5t66 260.5q5 18 7.5 31.5t2.5 21.5q0 13 -12 17t-47 4q-12 0 -17 5t-5 13q0 17 10 27t24 10h160q11 0 15.5 -2.5t9.5 -13.5q57 -139 115 -275.5t115 -275.5z" />
    <glyph glyph-name="Xi" unicode="&#x39e;" horiz-adv-x="950" 
d="M828 775q21 0 21 -14q0 -5 -1 -8q-13 -60 -25.5 -119.5t-25.5 -119.5q-3 -9 -9.5 -15.5t-17.5 -6.5q-10 0 -15 3t-5 12q0 26 3.5 47.5t3.5 39.5q0 54 -20 69q-35 18 -110 18h-145q-75 0 -117 -21q-34 -17 -88 -148q-5 -12 -13.5 -15.5t-20.5 -3.5q-16 0 -16 15q0 5 1 8
q18 60 37 119t38 119q6 21 28 21h497zM104 2q-20 0 -20 17q0 4 1 6q12 58 25 117.5t25 119.5q2 8 8 15.5t17 7.5t17 -2.5t6 -13.5q0 -27 -3.5 -48.5t-3.5 -38.5q0 -32 7.5 -49.5t23.5 -25.5q15 -8 40 -9.5t60 -1.5h202q77 0 116 18l3 3q39 19 91 148q5 11 13 14.5t21 3.5
q14 0 14 -14q0 -5 -1 -8q-19 -60 -36.5 -119t-36.5 -118q-7 -22 -29 -22h-560zM356 340q-18 0 -26.5 -11t-14.5 -24q-6 -14 -12.5 -25t-21.5 -11q-14 0 -14 14q0 12 6 32q7 24 14.5 56.5t16.5 61.5t18 49t19 20q15 0 15 -20q0 -7 -0.5 -13.5t-0.5 -12.5q0 -8 3 -17t23 -9
h220q12 0 18 3.5t10 8.5q3 5 6.5 11.5t9.5 12.5h-1q4 12 13 24.5t20 12.5t11 -18q0 -13 -4 -29q-10 -36 -19.5 -71.5t-19.5 -71.5q-6 -20 -11.5 -32.5t-19.5 -12.5q-10 0 -13.5 8t-3.5 18q0 5 0.5 10t0.5 10q0 8 -4.5 17t-18.5 9h-219z" />
    <glyph glyph-name="Omicron" unicode="&#x39f;" horiz-adv-x="950" 
d="M815 388q-10 -49 -33 -98.5t-56 -95.5q-34 -46 -75.5 -85t-88.5 -68q-48 -29 -98.5 -45t-101.5 -15q-54 -3 -97.5 14t-76.5 47q-33 31 -54 72.5t-31 87.5t-7.5 94.5t17.5 92.5q17 75 60.5 148.5t105.5 131.5q61 58 135.5 93.5t152.5 34.5q80 3 136 -28.5t88 -87.5
q31 -57 37 -132.5t-13 -160.5zM685 389q9 31 15 68.5t6 74.5t-8 72.5t-25 62.5q-18 27 -47.5 43.5t-73.5 17.5q-63 -2 -113.5 -33.5t-88.5 -79.5q-39 -48 -65.5 -108t-41.5 -119q-10 -31 -16 -68.5t-6 -74.5q0 -38 8 -73t27 -62q18 -27 47.5 -43.5t73.5 -16.5q64 3 114.5 34
t88.5 79t64 107t41 119z" />
    <glyph glyph-name="Pi" unicode="&#x3a0;" horiz-adv-x="950" 
d="M513 729q-29 0 -46 -1.5t-28 -8.5q-11 -8 -17.5 -24t-13.5 -44q-33 -131 -66.5 -259.5t-66.5 -259.5q-9 -36 -9 -53q0 -7 2 -11t9 -6q6 -3 19 -4t35 -1t22 -18t-9 -27.5t-24 -9.5h-269q-24 0 -24 16q0 19 12 29t25 10q28 0 44 1t25 8t14 23t13 45q33 130 66 258.5
t65 259.5q4 17 6.5 29t2.5 23q0 14 -4 21q-4 4 -59 4q-24 0 -24 17q0 16 11 27.5t25 11.5h639q22 0 22 -17q0 -15 -9.5 -27t-24.5 -12q-30 0 -46 -1t-24 -8q-9 -7 -14 -23t-13 -46q-34 -131 -67 -259.5t-66 -259.5q-5 -19 -7.5 -32.5t-2.5 -22.5q0 -6 2 -10h-1q6 -10 65 -10
q22 0 22 -18q0 -16 -10 -26.5t-24 -10.5h-268q-24 0 -24 19q0 18 11.5 27t25.5 9q29 0 45 1.5t25 8.5q8 7 13 22.5t12 44.5q32 131 66 259.5t67 258.5q7 29 7 51q0 9 -1 14t-15 8t-46 3.5t-95 0.5z" />
    <glyph glyph-name="Rho" unicode="&#x3a1;" horiz-adv-x="950" 
d="M503 729q-20 0 -31.5 -1.5t-18.5 -6.5q-7 -6 -11.5 -16.5t-10.5 -28.5q-16 -66 -34 -136t-35 -138h100q42 0 78 8t65 27q17 11 33.5 29t29.5 43q13 24 21 53.5t8 62.5q0 48 -26.5 76t-80.5 28h-87zM605 785q46 0 85 -9.5t68 -28.5q29 -20 45.5 -48.5t16.5 -67.5
q0 -73 -31.5 -127t-77.5 -89q-47 -36 -101.5 -53.5t-100.5 -17.5h-162q-14 -54 -27.5 -106.5t-26.5 -106.5q-9 -36 -9 -55q0 -12 11.5 -15.5t49.5 -3.5q22 0 22 -19q0 -17 -9 -26.5t-26 -9.5h-259q-24 0 -24 17q0 19 11.5 28.5t25.5 9.5q29 0 44.5 2.5t24.5 10.5q8 8 12 23
t10 40q15 57 32.5 126.5t35.5 141.5q18 71 36 140.5t33 127.5q3 13 5 23t2 16q0 12 -11 16.5t-52 4.5q-21 0 -21 19q0 18 9.5 27.5t23.5 9.5h335z" />
    <glyph glyph-name="Sigma" unicode="&#x3a3;" horiz-adv-x="950" 
d="M132 2q-35 0 -35 14t22 39q75 83 149.5 164t149.5 163q-34 88 -67.5 172.5t-67.5 172.5q-7 15 -7 27q0 20 33 20h516q10 0 14.5 -2t4.5 -10q0 -6 -1 -10q-11 -57 -22.5 -112.5t-23.5 -112.5q-2 -11 -11 -21t-23 -10q-15 0 -15 18q0 11 1 21t1 20q0 58 -5.5 90t-21.5 42
q-38 23 -238 23q-37 0 -50 -3t-13 -11q0 -14 12 -42q22 -57 46 -114.5t47 -114.5v-1q2 -5 3 -8t1 -6q-1 -6 -5 -14t-17 -22q-69 -73 -139 -145t-139 -144q-10 -12 -10 -16q0 -11 28 -11q238 0 311 26q68 24 134 177q8 17 23 17q11 0 19.5 -4.5t4.5 -17.5
q-17 -57 -35.5 -116.5t-36.5 -116.5q-7 -21 -27 -21h-510z" />
    <glyph glyph-name="Tau" unicode="&#x3a4;" horiz-adv-x="950" 
d="M812 785q14 0 16.5 -6t2.5 -18q-11 -57 -23.5 -114.5t-23.5 -114.5q-3 -14 -15 -23t-28 -9q-13 0 -13 19q0 28 3 52t3 44q0 34 -6 56.5t-19 35.5q-13 12 -33.5 17t-48.5 5q-19 0 -30 -1t-18 -5q-7 -5 -11 -14.5t-8 -26.5q-35 -138 -69.5 -274.5t-69.5 -274.5
q-5 -17 -7.5 -30t-2.5 -21q0 -15 14 -19.5t59 -4.5q22 0 22 -18q0 -15 -10 -26.5t-24 -11.5h-281q-24 0 -24 18q0 20 11.5 29t25.5 9q33 0 51 3t27 11t13.5 23.5t10.5 39.5q33 134 68 270t68 270q3 14 5 23t2 15q0 11 -10 13.5t-36 2.5q-33 0 -59.5 -6.5t-49.5 -28.5
q-24 -22 -47.5 -62.5t-51.5 -109.5q-7 -19 -30 -19q-28 0 -22 23q18 60 36 118.5t37 118.5q4 13 11 17.5t18 4.5h567z" />
    <glyph glyph-name="Upsilon" unicode="&#x3a5;" horiz-adv-x="950" 
d="M475 423q-19 -72 -37 -144.5t-37 -144.5q-9 -36 -9 -54q0 -15 11.5 -18.5t52.5 -3.5q20 0 20 -19q0 -14 -9.5 -25.5t-23.5 -11.5h-263q-23 0 -23 17q0 19 11.5 29t25.5 10q29 0 44.5 1.5t23.5 9.5q8 7 12 22.5t11 43.5q18 72 36 141.5t38 141.5q7 24 11 53.5t4 64.5
q0 41 -4.5 73.5t-16.5 56.5t-32.5 39t-52.5 21q-20 4 -28.5 12.5t-8.5 16.5q0 18 53 18q55 0 92.5 -18t60.5 -46q22 -29 31.5 -63.5t9.5 -67.5q22 46 51 83.5t64 64.5t76 41.5t88 14.5q14 0 27.5 -5.5t24.5 -15.5q10 -10 16 -22.5t6 -27.5q0 -19 -7 -36t-19 -29
q-12 -13 -27.5 -20.5t-32.5 -7.5q-20 0 -36.5 15t-16.5 39q0 15 5 26t13 18q-36 -5 -73 -36t-69 -74q-32 -44 -57 -93.5t-36 -89.5z" />
    <glyph glyph-name="Phi" unicode="&#x3a6;" horiz-adv-x="950" 
d="M594 628q-31 -121 -59.5 -234.5t-59.5 -234.5q42 10 84.5 37t76.5 68q33 40 54.5 92.5t21.5 114.5q0 60 -33 101.5t-85 55.5zM358 159q2 10 5 19.5t5 18.5q27 108 54.5 214.5t54.5 213.5q-44 -12 -85.5 -40t-73.5 -68q-33 -40 -53 -90.5t-20 -108.5q0 -63 31 -103t82 -56
zM341 93q-44 9 -84.5 26.5t-71.5 45.5t-49.5 66t-18.5 87q0 73 33.5 138t87.5 115q53 49 120 81t135 41q1 5 1 13q0 16 -14 19t-30 3q-17 0 -30.5 2.5t-13.5 17.5q0 19 10.5 28t26.5 9h267q22 0 22 -18q0 -14 -9.5 -25.5t-25.5 -11.5q-21 0 -35.5 -0.5t-23.5 -4.5t-15 -11.5
t-10 -20.5q46 -7 87.5 -25.5t72.5 -47.5t49 -67.5t18 -85.5q0 -72 -32.5 -135.5t-85.5 -112.5q-53 -50 -122 -83.5t-141 -43.5q-1 -5 -1.5 -8t-0.5 -6q0 -13 14 -15.5t31 -2.5q16 -1 30 -4t14 -16q0 -15 -10 -26.5t-24 -11.5h-268q-24 0 -24 20q0 18 11.5 27t25.5 9
q23 0 37 1t23 5q8 3 13 10t11 19z" />
    <glyph glyph-name="Chi" unicode="&#x3a7;" horiz-adv-x="950" 
d="M184 136q57 63 114 125.5t115 125.5q-29 73 -56 145.5t-55 145.5q-8 19 -12.5 29.5t-11.5 15.5q-7 4 -18.5 4.5t-33.5 0.5t-22 17q0 19 10 29.5t24 10.5h270q22 0 22 -17q0 -20 -11 -30t-24 -10q-34 0 -48 -3.5t-17 -8.5t1 -18q15 -54 36.5 -103.5t41.5 -101.5
q43 48 85 93.5t86 94.5q23 26 23 35q0 7 -13 8.5t-28 2.5q-15 0 -28 3t-13 14q0 19 10 30t24 11h232q22 0 22 -17q0 -20 -10.5 -30t-24.5 -10h-38t-23 -5t-21.5 -16.5t-32.5 -33.5q-1 -2 -2 -2.5t-2 -2.5q-55 -60 -109.5 -120.5t-109.5 -121.5q27 -72 54 -145.5t56 -145.5
l16 -40t14 -23q8 -9 21.5 -11.5t39.5 -2.5q22 0 22 -19t-10.5 -28t-23.5 -9h-281q-21 0 -21 17q0 20 10 29.5t23 9.5q41 0 55 4t14 14q0 8 -3.5 28t-11.5 35q-19 47 -35.5 92t-35.5 92q-19 -21 -42 -46t-47 -50q-24 -26 -46.5 -51.5t-39.5 -45.5q-18 -21 -28.5 -36
t-10.5 -21q0 -10 17.5 -12.5t55.5 -2.5q21 0 21 -20q0 -18 -11 -27t-24 -9h-242q-13 0 -17.5 5t-4.5 12q0 19 10.5 29t25.5 10q45 0 61 11q13 9 67 67z" />
    <glyph glyph-name="Psi" unicode="&#x3a8;" horiz-adv-x="950" 
d="M897 684q-54 -44 -70 -1q-5 15 -10.5 25t-11.5 12q-22 0 -36.5 -37.5t-17.5 -112.5q-9 -158 -86 -239q-44 -48 -102 -72t-124 -29l-25 -96q-14 -53 -7 -65q5 -11 63 -11q28 0 21 -28q-3 -12 -12 -20t-21 -8h-268q-31 0 -22 29q10 27 35 27q59 0 70 11t25 67l26 97
q-54 8 -97.5 31t-63.5 58q-11 14 -17.5 32t-6.5 41q0 35 13.5 80.5t37.5 97.5q21 42 32.5 74.5t11.5 49.5q0 22 -19 22q-17 -2 -41 -37q-24 -39 -68 3q-15 14 3 56q7 18 26 28.5t51 10.5q16 0 31.5 -3.5t29.5 -11.5q30 -13 49 -40t17 -58q0 -34 -8.5 -79t-28.5 -93
q-19 -51 -23 -88t8 -59q21 -41 78 -54q9 38 21.5 85t25.5 96q12 48 24 94.5t21 84.5q15 54 4 72q-3 4 -60 4q-28 0 -21 28q5 12 13.5 20t20.5 8h268q29 0 21 -29q-10 -27 -34 -27q-59 0 -70 -11q-9 -9 -26 -67q-9 -38 -21 -84t-24 -94q-13 -48 -25 -94.5t-21 -83.5
q27 6 55 20t48 34q19 20 33 54.5t23 87.5q12 53 27 97.5t34 81.5q7 19 19.5 37t29.5 32q16 14 35.5 23.5t39.5 12.5q11 2 22 2.5t20 0.5q58 0 67 -34q9 -43 -12 -61z" />
    <glyph glyph-name="uni03A9" unicode="&#x3a9;" horiz-adv-x="950" 
d="M528 148q-4 -17 -8 -32.5t-8 -32.5h16q72 0 112 20v-1q19 10 40 37.5t42 72.5q7 11 15 16t15 5q9 0 13 -7.5t1 -15.5q-16 -48 -30.5 -94t-29.5 -92q-5 -12 -11 -17t-17 -5h-257q11 51 22.5 101.5t22.5 102.5q55 4 106 35t90 81q39 49 62.5 112t23.5 131q-2 78 -44.5 120
t-117.5 42q-62 0 -116 -30t-94 -79t-63.5 -112t-23.5 -128q0 -71 36 -117.5t105 -55.5q-12 -51 -23.5 -101.5t-23.5 -101.5h-264q-10 0 -17 6t-3 17q10 45 18 92.5t18 93.5q2 9 9 15.5t19 6.5q13 0 13 -18q0 -6 -0.5 -12t-0.5 -11q0 -38 8 -59.5t25 -32.5q16 -11 41 -14
t59 -3h20q5 17 8.5 32t9.5 32q-39 8 -72 29.5t-58 53.5t-39 72t-14 85q0 80 37.5 153.5t99.5 130.5q61 56 139.5 89.5t161.5 33.5q60 0 110.5 -18t86.5 -50t56.5 -77t20.5 -99q0 -71 -28 -137.5t-75 -120.5q-48 -55 -111 -93t-133 -51z" />
    <glyph glyph-name="alpha" unicode="&#x3b1;" horiz-adv-x="950" 
d="M306 452q20 -12 31 -27t17 -30q5 -15 6 -27.5t1 -19.5q6 9 15 25.5t11 25.5q1 2 4.5 12.5t10.5 22.5q7 11 16.5 20.5t22.5 9.5q14 0 25 -10.5t11 -25.5q0 -20 -14 -48q-5 -8 -10 -16.5t-10 -17.5q-13 -23 -30 -49.5t-32 -54.5q-16 -28 -26.5 -56t-10.5 -54
q0 -35 12.5 -48t28.5 -17q15 -4 27.5 -5.5t12.5 -12.5q0 -21 -19.5 -34t-39.5 -13q-30 0 -58 14.5t-43 45.5q-8 -11 -21.5 -23.5t-31.5 -22.5t-39 -16.5t-43 -6.5q-28 1 -52 13t-42 32t-28 46.5t-10 56.5q0 46 14 92t40 90q15 25 36.5 51.5t47.5 47.5q25 21 52.5 34.5
t55.5 13.5q32 0 62 -18zM274 403q-9 3 -18 3q-19 0 -38.5 -15.5t-37.5 -38.5t-33 -49.5t-24 -47.5q-14 -29 -26.5 -64.5t-12.5 -67.5q0 -35 16 -49t39 -14q20 0 40 15t37 37t30.5 45.5t19.5 40.5q6 15 12.5 34t12.5 40q5 21 8.5 41.5t3.5 38.5q0 39 -29 51z" />
    <glyph glyph-name="beta" unicode="&#x3b2;" horiz-adv-x="950" 
d="M29 -138q-33 9 -30 45q2 22 4.5 39.5t8.5 44.5t16.5 71.5t27.5 119.5q18 92 45.5 186.5t56.5 189.5q16 39 32 67t35 46t42 26.5t53 8.5q31 0 60 -11.5t52 -33.5q23 -23 37 -56.5t14 -77.5q0 -39 -11 -68.5t-27 -50.5t-34.5 -34t-34.5 -20q17 -23 33 -60t16 -83
q0 -41 -13.5 -80.5t-37.5 -70.5q-24 -32 -56.5 -51.5t-71.5 -19.5q-29 0 -51 7.5t-38 18.5q-17 11 -28.5 24t-18.5 24l-14 -83q-1 -10 -5 -32t-11 -43q-8 -21 -20.5 -35t-30.5 -8zM266 341q-30 8 -44 22t-14 31q0 20 8.5 30t22.5 10q8 0 17 -3q20 -7 39.5 -12t33.5 -5
q22 0 35.5 15.5t21.5 37.5t11 46t3 41t-4.5 33.5t-13.5 30.5q-9 13 -23 21.5t-32 8.5q-31 0 -59 -26.5t-44 -72.5q-8 -24 -18.5 -59.5t-20.5 -76.5q-11 -41 -21.5 -83t-18.5 -78q-8 -37 -13 -64.5t-5 -38.5q0 -14 9 -29t24 -28q14 -13 31.5 -21.5t34.5 -8.5q36 0 58.5 21
t35.5 51q12 29 16.5 60t4.5 52q0 28 -7.5 53.5t-15.5 38.5h-24.5t-27.5 3z" />
    <glyph glyph-name="gamma" unicode="&#x3b3;" horiz-adv-x="950" 
d="M4 333q-5 5 -5 16q0 22 21 70q14 32 41 48.5t62 16.5q49 0 77.5 -29t36.5 -84q3 -25 5 -47.5t3 -40.5q1 -19 2 -31.5t2 -16.5q4 9 16 29.5t28 46.5t34.5 54t36.5 52t33.5 40.5t25.5 19.5q9 3 18.5 2.5t17.5 -5.5q13 -10 13 -34q0 -14 -20 -46.5t-47 -69.5
q-27 -38 -55 -74.5t-44 -58.5q1 2 -7.5 -14t-21.5 -42t-27.5 -59.5t-24.5 -65.5q-20 -69 -43 -104t-53 -35q-20 0 -33.5 11.5t-13.5 35.5q0 17 3 31t10 29q7 16 18.5 35t28.5 48q2 2 4 6.5t4 6.5q28 49 30 65q2 8 4.5 43.5t2.5 103.5q0 58 -22.5 90.5t-65.5 32.5
q-18 0 -31 -12.5t-23 -26.5q-10 -15 -18 -27.5t-16 -12.5q-4 0 -7 3z" />
    <glyph glyph-name="delta" unicode="&#x3b4;" horiz-adv-x="950" 
d="M265 403q-12 4 -28 4q-30 0 -54.5 -23.5t-41.5 -58.5t-26 -76t-9 -76q0 -56 22 -88.5t71 -32.5q31 0 55 23.5t41 59.5q16 35 25 76.5t9 77.5q0 46 -13 74t-51 40zM360 419q26 -28 45 -77t19 -102q0 -48 -18 -93t-47 -79q-30 -35 -68 -55.5t-78 -20.5q-52 0 -89.5 20
t-61.5 52q-24 31 -35.5 71t-11.5 79q0 48 14.5 91t39.5 77q25 33 58 54t71 24q7 1 17 1t17 -1q-8 12 -19.5 28.5t-21.5 34.5q-11 18 -18.5 37.5t-7.5 38.5q0 24 9.5 44.5t24.5 35.5t32.5 23.5t32.5 8.5q20 0 40.5 -7.5t39.5 -18.5q19 -12 35.5 -25.5t28.5 -26.5
q10 -11 22 -27.5t22 -34.5t16.5 -35t6.5 -29q0 -8 -4 -16.5t-11 -15.5t-15 -11.5t-15 -4.5q-22 0 -37 29q-9 18 -23.5 43t-31.5 49q-18 23 -37 39.5t-38 16.5q-11 0 -18.5 -9t-7.5 -30q0 -16 12 -38t31 -46q18 -24 39.5 -48.5t40.5 -45.5z" />
    <glyph glyph-name="epsilon" unicode="&#x3b5;" horiz-adv-x="950" 
d="M336 382q0 15 -9.5 24t-23.5 15q-14 5 -30 6.5t-29 1.5q-35 0 -58 -20.5t-23 -52.5q0 -17 8.5 -30t22.5 -23q13 -10 30.5 -15t36.5 -5q5 0 9 0.5t9 0.5q10 0 20.5 -0.5t19.5 -3.5q8 -4 13.5 -10.5t5.5 -18.5q0 -29 -41 -29h-28t-16 1q-48 -2 -76 -25t-28 -62t31.5 -64.5
t88.5 -25.5q32 0 54 12.5t22 36.5v11q0 24 13 46t39 22q25 0 37.5 -15t12.5 -34q0 -35 -17.5 -60.5t-44.5 -42.5t-60 -25.5t-64 -8.5q-43 0 -81 9.5t-66 27.5q-28 19 -44.5 46.5t-16.5 62.5q0 42 25.5 72.5t67.5 46.5q-33 14 -55.5 39.5t-22.5 65.5q0 25 12 48t35 41
q22 18 54.5 29t72.5 11q32 0 66 -5t62 -17q27 -13 45 -34.5t18 -55.5q0 -20 -14.5 -33.5t-34.5 -13.5q-21 0 -33.5 14.5t-14.5 39.5z" />
    <glyph glyph-name="zeta" unicode="&#x3b6;" horiz-adv-x="950" 
d="M237 706q9 -11 9 -22q0 -14 -12 -28.5t-26 -29.5t-26 -29.5t-12 -27.5q0 -8 6 -18.5t19 -10.5q17 2 41 24q9 8 30 21.5t46 27.5q25 13 49.5 23t39.5 11q17 0 31.5 -11t14.5 -28q0 -26 -26 -51.5t-64 -49.5q-32 -20 -65.5 -28t-71.5 -16q-3 -5 -21.5 -31.5t-38.5 -62.5
q-21 -36 -37.5 -75.5t-16.5 -69.5q0 -4 0.5 -10t1.5 -13t2.5 -12.5t4.5 -8.5q23 -72 97 -72q8 0 16 1t15 1q42 0 71.5 -29.5t29.5 -84.5q-1 -30 -17 -53.5t-40 -40.5t-52 -26t-54 -9q-17 0 -35.5 3t-33.5 9q-16 6 -26 16t-10 24q0 17 9.5 30t44.5 13q4 0 8 -0.5t9 -0.5
q8 -1 29 -7t50 -6q17 0 28 11t11 28q0 23 -36 25q-59 2 -97 17.5t-59 39.5q-22 23 -30 52.5t-8 59.5q0 92 49 178q25 45 44 74t29 43q-26 14 -43.5 36t-17.5 58q0 20 12 45t31 47q18 21 40 36t42 15q9 0 16 -7z" />
    <glyph glyph-name="eta" unicode="&#x3b7;" horiz-adv-x="950" 
d="M109 361q-6 56 -46 56q-5 -1 -13 -1q-22 0 -22 13q0 10 5.5 18t14.5 14q8 6 18.5 9t20.5 3q45 0 67.5 -20.5t30.5 -45.5q10 12 25.5 25t33.5 24q17 10 35 17t34 7q28 0 53 -9.5t44 -26.5q18 -18 29 -42t11 -53q0 -47 -10.5 -95t-26.5 -97q-17 -50 -36.5 -100t-36.5 -99
q-4 -11 -11.5 -28t-16.5 -33q-10 -16 -22 -28t-25 -12q-22 0 -35.5 15.5t-13.5 30.5q0 16 11 42.5t22 53.5q7 18 19.5 47.5t26.5 63.5q13 33 26 67.5t22 62.5q5 14 13 41t8 71q0 15 -6 26t-15 19q-10 7 -21.5 11t-22.5 4q-18 0 -36 -13t-33 -33t-27 -44.5t-19 -47.5
q-15 -49 -28 -96t-26 -84q-14 -37 -29.5 -59.5t-34.5 -22.5q-20 0 -30.5 11t-10.5 30q0 14 7 36.5t23 50.5q26 47 40 100.5t14 120.5z" />
    <glyph glyph-name="theta" unicode="&#x3b8;" horiz-adv-x="950" 
d="M325 709q29 -8 53 -30t41 -54q17 -33 26 -75.5t9 -92.5q0 -84 -23.5 -167t-61.5 -149t-87 -106.5t-101 -40.5q-38 0 -68 18t-51 52t-32 81.5t-11 107.5q0 89 23.5 172.5t61.5 147.5t87 102.5t99 38.5q15 0 35 -5zM347 392q8 42 13 78t4 68q0 54 -17.5 84.5t-52.5 30.5
q-24 0 -46 -19t-42 -53t-37.5 -82.5t-31.5 -106.5h210zM128 337q-10 -51 -15 -94t-5 -81q0 -49 17 -78t51 -29q28 0 51.5 24.5t43.5 64.5q20 39 36 89.5t30 103.5h-209z" />
    <glyph glyph-name="iota" unicode="&#x3b9;" horiz-adv-x="950" 
d="M263 476q35 -6 35 -40q0 -38 -15 -78q-5 -8 -15.5 -35t-23.5 -63t-25.5 -74.5t-20.5 -67.5q-1 -3 -1 -6.5v-5.5q0 -26 45 -26q12 0 22 4t18 9q7 4 13 8t11 4q3 0 8.5 -1.5t7.5 -9.5q2 -5 0 -15q-2 -14 -13.5 -29.5t-28.5 -29.5q-17 -13 -37 -21.5t-40 -7.5
q-29 1 -47 13.5t-27 31.5t-10 43t3 49q2 10 7 32.5t13 51.5q7 28 14.5 58.5t14.5 56.5q6 26 10.5 43.5t4.5 19.5q6 21 11 37.5t11 28.5q6 11 15 16.5t24 5.5q4 0 7.5 -0.5t8.5 -1.5z" />
    <glyph glyph-name="kappa" unicode="&#x3ba;" horiz-adv-x="950" 
d="M178 470q45 -5 45 -37q0 -13 -4.5 -27t-12.5 -34q-2 -5 -6.5 -18t-9.5 -27q-6 -15 -11 -26.5t-8 -14.5h25q28 0 45 23.5t37 62.5q24 47 50 72t60 25q14 0 29 -4t27 -13t19.5 -22.5t7.5 -31.5q0 -26 -18 -39.5t-44 -13.5q-11 0 -20 4t-15 17v-1q-3 5 -10 5q-13 0 -20 -8.5
t-19 -33.5q-20 -46 -41.5 -63t-33.5 -19q12 -8 25.5 -24t13.5 -47q0 -49 6 -67t26 -18q16 0 26.5 10t18.5 22t15 22t16 10q10 0 16 -8.5t6 -21.5q0 -19 -8.5 -41.5t-24.5 -42.5q-17 -19 -41 -32t-55 -13q-32 0 -49 14t-25 35t-9.5 46.5t-1.5 48.5q0 7 -0.5 20t-2.5 25
q-3 12 -8.5 21t-15.5 9h-23q-16 -48 -25 -87.5t-16 -66.5q-8 -28 -18 -43t-28 -15q-21 0 -34.5 10t-13.5 30q0 12 6 30q5 23 16.5 63t28.5 93q5 13 11 31.5t12 39.5q6 20 11.5 40t8.5 37q2 11 5 27t10 31t18.5 25.5t30.5 10.5z" />
    <glyph glyph-name="lambda" unicode="&#x3bb;" horiz-adv-x="950" 
d="M178 694q19 17 38 17q24 0 48 -18t44 -46q19 -29 31 -65.5t12 -73.5q0 -9 -0.5 -22.5t-1.5 -26.5t-1.5 -23.5t-0.5 -13.5v-31v-21q-1 -10 -1 -19.5v-23.5q0 -52 13 -96.5t28 -80.5t28 -63.5t13 -45.5q0 -22 -15 -34t-28 -12q-17 0 -29.5 12t-22.5 32t-18 45t-15 51
q-5 22 -8 53t-5 62q-2 30 -2.5 56.5t-0.5 40.5q-51 -78 -80 -143.5t-49 -112.5q-21 -47 -39.5 -73.5t-47.5 -26.5q-19 0 -30.5 12.5t-11.5 28.5t9 39q12 30 25 55.5t28 49.5q14 24 31.5 49l38.5 55q31 47 52.5 76.5t35.5 48.5q14 18 21.5 27.5t11.5 16.5q3 6 3.5 12.5
t0.5 18.5q0 28 -6 48t-16 34q-11 14 -24.5 23t-27.5 15q-43 18 -43 63q0 19 12 31z" />
    <glyph glyph-name="uni03BC" unicode="&#x3bc;" horiz-adv-x="950" 
d="M127 335q5 18 14.5 42t21.5 47q12 22 26 37.5t28 15.5q20 0 32.5 -12.5t12.5 -33.5q0 -24 -16 -67q-42 -107 -70 -168.5t-34 -93.5q2 -5 8 -12t15 -13q8 -7 19 -11.5t23 -4.5q32 0 52 13.5t33 36.5t21 53t15 64q6 27 14.5 68t21.5 79t31 65t42 27q20 0 29 -12.5t9 -34.5
q0 -19 -6 -44.5t-14 -52.5q-9 -27 -19 -52.5t-19 -43.5v1q-6 -12 -13.5 -28.5t-13.5 -34.5q-7 -18 -12 -34.5t-5 -26.5q0 -5 5.5 -14.5t21.5 -9.5q9 0 16.5 4t14.5 10q6 5 11.5 9t10.5 4q20 0 20 -32q0 -14 -7 -28t-18 -25q-12 -10 -26 -16.5t-29 -6.5q-24 0 -41 15t-27 33
q-16 -17 -46 -34t-72 -17q-32 0 -52.5 13t-34.5 27q-6 -11 -11 -36.5t-8 -54.5q-8 -47 -26 -65.5t-35 -18.5q-10 0 -16.5 5.5t-10.5 13.5q-5 9 -7 18.5t-2 18.5q0 24 10 48.5t23 49.5l26 50t19 50q4 8 9 35t11 60t12 67.5t13 57.5z" />
    <glyph glyph-name="nu" unicode="&#x3bd;" horiz-adv-x="950" 
d="M135 471q8 2 13 2q12 0 23.5 -10.5t20.5 -27.5q9 -18 14.5 -41t5.5 -48q0 -19 -6.5 -52t-15.5 -67q-9 -35 -18.5 -65.5t-15.5 -45.5q54 21 94 56.5t67 75.5t41 78.5t16 66.5q5 76 29 76q22 0 22 -53q0 -36 -5.5 -72.5t-15.5 -70.5q-11 -34 -25.5 -65t-32.5 -55
q-26 -35 -60.5 -63.5t-70.5 -49.5q-37 -20 -72 -31.5t-62 -11.5q-14 0 -23 4t-9 14q0 14 13 43q6 14 16.5 46t20.5 68t17.5 69.5t7.5 50.5q0 38 -7.5 71t-11.5 62q0 36 30 46z" />
    <glyph glyph-name="xi" unicode="&#x3be;" horiz-adv-x="950" 
d="M244 319q-5 1 -10 1h-10q-26 0 -49 -11t-39 -29q-17 -19 -26.5 -43.5t-9.5 -51.5q0 -40 27 -67.5t74 -27.5h18q51 0 77.5 -27t26.5 -78q0 -23 -9.5 -43t-26.5 -35q-18 -15 -43.5 -24t-57.5 -9q-40 0 -40 31q0 17 15 21.5t33 7.5t33 9.5t15 29.5q0 26 -36 29q-54 4 -88 20
t-53 40t-26 52t-7 56q0 39 10 69.5t26 53.5q15 23 33 40t35 29q-14 11 -27.5 32.5t-13.5 55.5q0 28 7 46.5t18 31.5q10 13 22 22t23 17q1 5 3.5 27.5t14.5 48.5q12 25 37.5 45.5t73.5 20.5q24 0 40 -10t16 -33q0 -25 -42 -25q-8 0 -17.5 1t-17.5 1q-47 0 -47 -41
q0 -11 11 -11q5 0 17 3q14 4 32.5 7t43.5 3q18 0 36.5 -3.5t33.5 -10.5t24.5 -17.5t9.5 -24.5q0 -20 -16.5 -30.5t-44.5 -10.5q-5 0 -10 0.5t-10 1.5q-28 5 -53.5 7t-48.5 2q-16 0 -33 -3t-31 -10q-15 -7 -24.5 -19.5t-9.5 -30.5q0 -26 11 -38.5t28 -12.5h5t8 1q43 6 77 6
q19 0 40.5 -3t40.5 -10q18 -7 30 -19t12 -30q0 -43 -49 -43q-31 0 -58.5 4.5t-53.5 8.5z" />
    <glyph glyph-name="omicron" unicode="&#x3bf;" horiz-adv-x="950" 
d="M339 201q7 25 11.5 62t-1.5 72q-7 35 -27 60t-60 25q-31 0 -57 -24t-44 -61q-19 -37 -29.5 -81.5t-10.5 -85.5q0 -55 22.5 -88t67.5 -33q24 0 44 12t36 33t28 49t20 60zM25 220q0 49 17 95.5t47 83.5q30 36 70 58t87 22q42 0 79.5 -18t65.5 -49q28 -32 44 -74.5t16 -90.5
q0 -51 -18 -97.5t-48 -81.5q-31 -36 -71 -57t-85 -21q-44 0 -81.5 19t-64.5 51q-27 31 -42.5 72.5t-15.5 87.5z" />
    <glyph glyph-name="pi" unicode="&#x3c0;" horiz-adv-x="950" 
d="M14 334q-6 6 -6 18q0 18 7.5 37.5t22.5 36.5t37 28t51 11q4 0 46 -1.5t105 -1.5q61 0 103.5 5.5t66.5 5.5q28 0 28 -37q0 -25 -6 -38.5t-16 -19.5q-11 -7 -24 -8t-27 -1q-11 0 -26.5 3t-28.5 3q-2 0 -3.5 -0.5t-3.5 -0.5q-2 -7 -7.5 -37t-11.5 -67q-7 -37 -12 -73t-6 -55
q0 -34 10.5 -50t24.5 -16q7 0 16.5 4t15.5 4q13 0 13 -16q0 -15 -7.5 -27.5t-19.5 -21.5q-12 -8 -26.5 -12.5t-29.5 -4.5q-25 0 -40.5 11t-22.5 28q-8 18 -10 39t0 41q1 8 4 28.5t8 47.5q4 27 9 56t9 55t7 44.5t3 23.5q0 4 -1 4.5t-7 0.5h-33.5t-31.5 -8q-4 -10 -10.5 -41
t-14.5 -70t-16.5 -79.5t-17.5 -68.5q-3 -19 -13 -38.5t-23 -35.5q-13 -15 -27 -25t-26 -10q-2 0 -8.5 1t-13.5 5q-8 5 -14 15t-6 28q0 11 5.5 27t19.5 37q4 9 12 21l18 27q9 15 19.5 33.5t19.5 42.5q4 10 9.5 30t10.5 41t9 38t4 21h-3q-8 0 -25.5 -3.5t-25.5 -7.5
q-20 -11 -30 -22.5t-18 -11.5t-15 7z" />
    <glyph glyph-name="rho" unicode="&#x3c1;" horiz-adv-x="950" 
d="M318 417q-43 9 -73.5 -13t-49.5 -58q-19 -37 -27.5 -80.5t-8.5 -78.5q0 -53 21.5 -88.5t65.5 -35.5q34 0 59.5 24t43.5 60q17 35 26 76.5t9 76.5q-4 50 -17.5 77t-48.5 40zM101 108q-2 -24 -2.5 -42.5t-0.5 -38.5q0 -17 1 -38.5t1 -42.5q0 -22 -1.5 -42.5t-6.5 -36.5
t-14.5 -26t-25.5 -10q-25 0 -35 20.5t-10 62.5q0 32 7 82.5t17 104.5t21.5 104.5t20.5 82.5q10 38 29.5 72t46.5 60q27 25 60 40t72 15q49 0 85.5 -18.5t61.5 -49.5q24 -31 36 -71t12 -83q0 -57 -19.5 -103t-49.5 -78q-31 -33 -68.5 -51t-73.5 -18q-49 0 -94.5 27t-69.5 78z
" />
    <glyph glyph-name="sigma" unicode="&#x3c3;" horiz-adv-x="950" 
d="M295 413q28 -2 53 -16.5t44 -36.5q18 -23 28.5 -51t10.5 -57q0 -53 -16 -100.5t-44 -83.5q-29 -37 -68.5 -58.5t-86.5 -21.5q-44 0 -77.5 18t-56.5 46q-23 29 -34.5 65.5t-11.5 74.5q0 63 26 116.5t70 91.5q43 38 101 59.5t122 21.5q23 0 38 -2t23 -5q17 -6 24 -15.5
t7 -20.5q0 -17 -10 -26.5t-24 -9.5t-28.5 3.5t-29.5 7.5q-15 3 -30.5 4t-29.5 -4zM193 50q31 0 60.5 25.5t51.5 62.5q22 36 35.5 77.5t13.5 74.5q0 35 -23 57t-56 22q-32 0 -61 -24t-50 -59q-22 -36 -35 -77t-13 -75q0 -16 5.5 -31t15.5 -27q9 -12 23.5 -19t32.5 -7z" />
    <glyph glyph-name="tau" unicode="&#x3c4;" horiz-adv-x="950" 
d="M269 374q-8 -19 -21.5 -52.5t-25.5 -70.5q-13 -38 -22 -73.5t-9 -57.5q0 -26 16.5 -31t37.5 -5q11 0 23 2.5t23 2.5q12 0 20 -5t8 -16q0 -18 -13 -32t-31 -24q-19 -9 -39.5 -14t-34.5 -5q-54 0 -75 28t-21 71q0 13 6 37t16 53q9 28 19.5 59t20.5 59q9 27 15.5 48t6.5 30
h-6q-47 0 -71.5 -7.5t-36.5 -16.5q-13 -10 -19 -17.5t-15 -7.5q-5 0 -12.5 3.5t-7.5 16.5q0 18 19 59q10 29 40.5 43.5t65.5 14.5q17 0 34.5 -0.5t38.5 -0.5q20 -1 44.5 -1.5t55.5 -0.5q40 0 68.5 5.5t43.5 4.5q25 0 25 -37q0 -20 -5 -32.5t-14 -19.5q-10 -7 -24.5 -10.5
t-32.5 -4.5q-6 0 -20.5 2t-31.5 4q-17 1 -33 1.5t-26 -2.5z" />
    <glyph glyph-name="upsilon" unicode="&#x3c5;" horiz-adv-x="950" 
d="M439 315q-6 -29 -21.5 -66t-38.5 -82q-16 -29 -38 -58.5t-49 -54.5q-28 -24 -60 -40.5t-69 -17.5q-28 0 -53.5 11t-44.5 30t-30.5 44.5t-10.5 55.5q8 73 34 159q17 59 21 118q3 63 47 60q53 -3 50 -56q-1 -50 -15 -89q-8 -22 -19.5 -47.5t-22.5 -51.5t-19.5 -52.5
t-9.5 -50.5q0 -38 29 -60q27 -17 53.5 -10t50.5 27q24 19 43.5 45.5t31.5 49.5q33 70 48.5 123.5t7.5 85.5q-4 15 -4 30q0 39 36 36q26 -2 46 -41q9 -23 11.5 -47.5t-4.5 -50.5z" />
    <glyph glyph-name="phi" unicode="&#x3c6;" horiz-adv-x="950" 
d="M30 248q5 102 61.5 160.5t142.5 69.5q30 0 30 -16q0 -8 -10.5 -15.5t-25.5 -18.5t-33.5 -27.5t-33.5 -42.5q-15 -27 -25.5 -65t-10.5 -92q0 -69 35 -104q5 22 13.5 53.5t19.5 72.5q17 70 34 114t34 70q16 25 32 34.5t32 9.5q21 0 44 -17.5t42 -45.5q18 -28 30 -63t12 -71
q0 -53 -19 -97t-49 -76q-31 -32 -70 -50t-79 -18q-8 0 -12 1q-6 -40 -12 -69t-13 -48q-8 -18 -17.5 -27t-24.5 -9q-11 0 -19 4h1q-25 8 -25 36q0 4 3 17.5t8 32.5q4 19 9.5 41t9.5 42q-23 13 -44.5 36.5t-37.5 53.5q-17 29 -25.5 61.5t-6.5 62.5zM232 71q30 7 54 31.5
t41 58.5q16 34 25 71.5t9 69.5q0 30 -6.5 53.5t-23.5 41.5h1q-8 4 -10 4q-14 0 -25.5 -31t-22.5 -79q-11 -49 -21.5 -107.5t-20.5 -112.5z" />
    <glyph glyph-name="chi" unicode="&#x3c7;" horiz-adv-x="950" 
d="M196 226q-2 9 -2.5 15.5t-2.5 15.5q-8 42 -13.5 67.5t-10.5 40.5q-6 14 -13.5 19t-19.5 5q-13 0 -23 -10q-12 -12 -22 -12q-15 0 -15 18q0 13 8 29.5t21 30.5q12 14 28.5 24t33.5 10q24 0 40.5 -10.5t27.5 -26.5q10 -16 14.5 -34.5t4.5 -34.5q2 -23 3 -38.5t3 -29.5
q8 13 20 28.5t29 41.5q30 42 53.5 70t43.5 30q7 0 16 -4.5t17 -11.5q7 -8 12 -17.5t5 -18.5q1 -8 -3.5 -16t-11.5 -16q-10 -11 -29 -28t-42 -39q-24 -22 -49.5 -47.5t-47.5 -53.5q2 -17 7.5 -40.5t13.5 -45.5q8 -23 19.5 -38.5t26.5 -15.5q8 0 15.5 4.5t14.5 10.5t13 10.5
t12 4.5t11 -5t5 -14q0 -17 -9 -35t-22 -33q-14 -15 -28.5 -25t-26.5 -10q-10 0 -22 3t-23 11q-12 8 -23 23t-19 39l-20 79l-39 -45q-8 -9 -19 -26t-25 -35q-14 -17 -31.5 -30t-37.5 -13q-14 0 -25.5 14t-11.5 28q0 8 6 18.5t15 21.5t20 22.5t22 22.5q9 9 21.5 20t27.5 24
q14 13 29 27.5t28 30.5z" />
    <glyph glyph-name="psi" unicode="&#x3c8;" horiz-adv-x="950" 
d="M111 91q9 26 15.5 47t8.5 29q1 3 4.5 17.5t8.5 38.5q5 23 11 53t11 65q1 10 4.5 32.5t11.5 45.5q7 23 19 40t31 17q23 0 35 -15.5t12 -35.5q0 -29 -10.5 -63t-23.5 -67t-25.5 -63.5t-15.5 -51.5q-7 -19 -11 -31.5t-6 -22.5q-3 -11 -6 -21t-7 -24q45 15 77.5 59.5
t41.5 124.5q9 84 43 141q2 6 10.5 16.5t20.5 21.5q12 10 25.5 17.5t27.5 7.5q11 0 19.5 -6t8.5 -17q0 -10 -8.5 -23.5t-21.5 -24.5q-19 -20 -29.5 -54.5t-10.5 -82.5q-3 -62 -24 -105t-51 -70q-31 -28 -68 -42t-72 -18q-2 -8 -2.5 -16t-2.5 -16q-3 -25 -9.5 -48.5
t-15.5 -41.5q-10 -18 -22 -29t-27 -11q-23 0 -32.5 13.5t-9.5 32.5q0 2 0.5 3.5t0.5 3.5q3 14 9 27.5t13 27.5q6 14 12 29t9 32q-16 5 -32.5 14t-29.5 25q-14 16 -22.5 39t-8.5 56q0 27 6 58.5t22 65.5q14 29 20 54t6 42q0 14 -5.5 23.5t-11.5 17.5q-6 7 -11.5 13.5
t-5.5 15.5q0 18 30 18q24 0 39.5 -10t23.5 -25t11 -33t3 -34q0 -23 -6.5 -52.5t-14.5 -59.5q-8 -31 -14.5 -59t-6.5 -48t8 -36t21 -27z" />
    <glyph glyph-name="omega" unicode="&#x3c9;" horiz-adv-x="950" 
d="M473 248q3 -61 -13 -110t-43 -82t-62.5 -49t-71.5 -11q-28 3 -50 21.5t-33 38.5q-21 -24 -61 -42q-16 -8 -35 -8q-28 0 -53 22q-53 47 -51 155q1 38 7.5 76.5t21.5 74.5q14 36 38.5 68t63.5 57q32 17 48 12q23 -2 20 -29q-4 -10 -13.5 -26.5t-29.5 -39.5
q-18 -23 -31 -54.5t-20 -65.5q-8 -35 -10 -70t3 -66q5 -25 20 -33t30 2q21 12 29 36.5t9 60.5q1 35 5.5 67.5t13.5 60.5q7 20 17.5 36t22.5 28q26 24 47 15q34 -10 27 -77q-5 -35 -11.5 -61t-13.5 -41q-11 -22 -19 -45t-16 -44q-3 -15 -2.5 -33t17.5 -28q31 -19 61 31
q34 58 41 113q6 41 8.5 87t-10.5 89q-5 14 -6.5 26.5t-0.5 22.5q2 14 7.5 17.5t13.5 3.5q17 0 33.5 -17.5t33.5 -69.5q9 -32 14 -61.5t4 -57.5z" />
    <glyph glyph-name="uni0401" unicode="&#x401;" horiz-adv-x="934" 
d="M218 690h516v-113h-400v-164h382v-113h-382v-186h409v-112h-525v688zM366 893q15 0 29.5 -7t25.5 -18q10 -11 16.5 -26.5t6.5 -31.5t-6.5 -30.5t-16.5 -25.5q-11 -12 -25.5 -18.5t-29.5 -6.5t-29.5 6.5t-24.5 18.5q-11 11 -17.5 25.5t-6.5 30.5q0 18 7 33t18 26t25 17.5
t28 6.5zM583 893q15 0 29.5 -7t25.5 -18q10 -11 16.5 -26.5t6.5 -31.5t-6.5 -30.5t-16.5 -25.5q-11 -12 -25.5 -18.5t-29.5 -6.5t-29 6.5t-24 18.5q-11 11 -17.5 25.5t-6.5 30.5t6.5 31.5t17.5 26.5q10 11 24 18t29 7z" />
    <glyph glyph-name="uni0410" unicode="&#x410;" horiz-adv-x="950" 
d="M519 801q76 -201 152 -399.5t152 -399.5h-124q-20 53 -39.5 105.5t-38.5 106.5h-300q-20 -54 -40 -106.5t-40 -105.5h-124q78 201 154.5 399.5t154.5 399.5h93zM585 311q-29 76 -57.5 151.5t-57.5 151.5q-29 -76 -56.5 -151.5t-56.5 -151.5h228z" />
    <glyph glyph-name="uni0411" unicode="&#x411;" horiz-adv-x="934" 
d="M337 117h184q66 0 100 29t34 83q0 50 -34 79t-97 29h-187v-220zM730 660h-393v-209h170q66 0 117 -16.5t87 -45.5q35 -30 53 -71t18 -91t-19.5 -91.5t-53.5 -70.5q-35 -30 -81.5 -46.5t-101.5 -16.5h-308v774h512v-116z" />
    <glyph glyph-name="uni0412" unicode="&#x412;" horiz-adv-x="934" 
d="M680 425q54 -29 82.5 -83t28.5 -110q0 -46 -18.5 -87.5t-49.5 -72.5q-32 -32 -74.5 -51t-90.5 -19h-365v799h345q45 0 85.5 -17t70.5 -46q30 -30 47.5 -69t17.5 -83q0 -14 -3.5 -36t-12.5 -45q-9 -24 -24 -45.5t-39 -34.5zM558 98q24 0 45.5 11t37.5 30q15 19 24.5 43
t9.5 50q0 24 -7.5 48t-20.5 43q-14 19 -32.5 31t-40.5 12h-265v-268h249zM309 705v-242h226q22 0 41.5 10.5t34.5 27.5q14 17 22.5 39.5t8.5 45.5q0 24 -8 46t-22 38t-33 25.5t-41 9.5h-229z" />
    <glyph glyph-name="uni0413" unicode="&#x413;" horiz-adv-x="950" 
d="M224 801h517v-116h-396v-683h-121v799z" />
    <glyph glyph-name="uni0414" unicode="&#x414;" horiz-adv-x="950" 
d="M227 258q29 68 46.5 142t22.5 158q5 83 8 144t3 100h416v-544h75v-256h-120v141h-404v-141h-119v256h72zM603 258v427h-176q0 -34 -4 -87.5t-12 -113.5q-9 -60 -23 -119.5t-33 -106.5h248z" />
    <glyph glyph-name="uni0415" unicode="&#x415;" horiz-adv-x="934" 
d="M752 705h-421v-252h390v-95h-390v-260h421v-96h-537v799h537v-96z" />
    <glyph glyph-name="uni0416" unicode="&#x416;" horiz-adv-x="950" 
d="M417 791h119v-355q57 88 112 177.5t112 177.5h137q-57 -90 -113 -178t-113 -178q71 -109 141.5 -216.5t142.5 -216.5h-138q-54 81 -107.5 161t-107.5 161q-17 -27 -33 -52t-33 -51v-219h-119v217q-17 26 -34 52.5t-34 52.5q-54 -81 -107.5 -161t-107.5 -161h-136
q70 109 140.5 216t142.5 216q-57 88 -113.5 178.5t-112.5 178.5h136q57 -90 113 -178t113 -178v356z" />
    <glyph glyph-name="uni0417" unicode="&#x417;" horiz-adv-x="950" 
d="M712 590q0 -22 -6.5 -45t-17.5 -45q-12 -22 -28.5 -41t-37.5 -32q26 -15 47 -37t36 -47t23.5 -53t8.5 -55q0 -48 -21.5 -92t-58.5 -77q-37 -34 -86.5 -54t-106.5 -20t-106.5 19t-86.5 52t-58.5 78t-21.5 98h117q0 -32 13 -59.5t35 -47.5t50 -31.5t58 -11.5q31 0 59 12
t50 32q21 20 34 46.5t13 55.5q0 26 -12.5 51.5t-33.5 45.5t-49 32.5t-58 12.5h-79v96h79q25 1 48 11t41 26t28.5 36.5t10.5 43.5q0 24 -11 45.5t-29 38.5q-18 16 -42 25.5t-49 9.5q-22 0 -43.5 -8.5t-39.5 -22.5q-18 -15 -30 -35t-15 -42h-121q3 43 24.5 80.5t55.5 65.5
q33 28 77 44t92 16q52 0 97 -18t79 -48q33 -30 52.5 -69t19.5 -82z" />
    <glyph glyph-name="uni0418" unicode="&#x418;" horiz-adv-x="934" 
d="M174 2v799h118v-558q100 140 197.5 279t197.5 279h82v-799h-117v568q-101 -143 -201.5 -284t-200.5 -284h-76z" />
    <glyph glyph-name="uni0419" unicode="&#x419;" horiz-adv-x="950" 
d="M649 897q-17 -63 -64 -102.5t-110 -39.5q-32 0 -60 10.5t-50 29.5q-23 19 -39.5 45t-25.5 57h87q14 -26 36.5 -42.5t51.5 -16.5t51 17t36 42h87zM174 2v799h118v-558q100 140 197.5 279t197.5 279h82v-799h-117v568q-101 -143 -201.5 -284t-200.5 -284h-76z" />
    <glyph glyph-name="uni041A" unicode="&#x41a;" horiz-adv-x="934" 
d="M436 451l384 -449h-143l-309 367l-74 -82v-285h-118v799h118v-341l312 341h144z" />
    <glyph glyph-name="uni041B" unicode="&#x41b;" horiz-adv-x="934" 
d="M392 686v-524q0 -42 -9.5 -72.5t-32.5 -50.5q-23 -19 -62 -28t-98 -9v115q20 0 35.5 3.5t26.5 12.5q10 9 15.5 25t5.5 42v601h485v-799h-118v684h-248z" />
    <glyph glyph-name="uni041C" unicode="&#x41c;" horiz-adv-x="950" 
d="M811 801l41 -799h-119l-16 546l-227 -417l-228 418l-16 -547h-119l42 799h64l257 -477l254 477h67z" />
    <glyph glyph-name="uni041D" unicode="&#x41d;" horiz-adv-x="950" 
d="M785 2h-118v366h-373v-366h-118v799h118v-338h373v338h118v-799z" />
    <glyph glyph-name="uni041E" unicode="&#x41e;" horiz-adv-x="950" 
d="M473 -8q-81 0 -149.5 33t-117.5 89q-50 56 -78 130t-28 156q0 80 27 153.5t76 129.5t117.5 89.5t152.5 33.5q78 0 146.5 -32t118.5 -87q50 -56 79 -130t29 -157q0 -78 -27.5 -151.5t-76.5 -130.5t-118 -91.5t-151 -34.5zM473 711q-55 0 -102.5 -23.5t-82.5 -65.5
q-36 -42 -56.5 -99t-20.5 -123t20.5 -123t56.5 -99q35 -42 82.5 -66t102.5 -24q54 0 101 24t83 66q35 42 55.5 99t20.5 123t-20.5 123t-55.5 99q-36 42 -83 65.5t-101 23.5z" />
    <glyph glyph-name="uni041F" unicode="&#x41f;" horiz-adv-x="950" 
d="M301 686v-684h-119v800h587v-800h-120v684h-348z" />
    <glyph glyph-name="uni0420" unicode="&#x420;" horiz-adv-x="950" 
d="M799 541q0 -57 -19 -104.5t-50 -81.5q-31 -35 -72 -54t-84 -19h-224v-280h-117v799h328q47 0 90 -18.5t76 -52.5t52.5 -82t19.5 -107zM561 379q24 0 45.5 11t38.5 32q17 20 27 50t10 69t-10 69.5t-26 51.5q-17 21 -38.5 32t-44.5 11h-213v-326h211z" />
    <glyph glyph-name="uni0421" unicode="&#x421;" horiz-adv-x="950" 
d="M807 114q-52 -54 -122.5 -88t-161.5 -34q-87 0 -157.5 32.5t-120.5 87.5t-77 128.5t-27 156.5q0 79 25.5 152.5t74.5 129.5q48 56 119 89.5t163 33.5q88 0 157 -31.5t127 -88.5l-76 -78q-44 48 -96 75t-112 27q-58 0 -107.5 -24.5t-85.5 -66.5q-37 -42 -57.5 -98.5
t-20.5 -119.5t20.5 -119t56.5 -98q36 -43 85.5 -67.5t108.5 -24.5q60 0 111.5 27t93.5 75z" />
    <glyph glyph-name="uni0422" unicode="&#x422;" horiz-adv-x="950" 
d="M770 801v-96h-235v-703h-118v703h-236v96h589z" />
    <glyph glyph-name="uni0423" unicode="&#x423;" horiz-adv-x="950" 
d="M330 801q36 -105 71.5 -208t71.5 -207q36 104 72 207t72 208h129q-63 -174 -124 -346.5t-124 -346.5q-9 -23 -21 -42.5t-30 -33.5t-44.5 -22t-64.5 -8h-59v108h36q24 0 38 5t24 17q9 11 16.5 30t18.5 48q-53 149 -105.5 295.5t-106.5 295.5h130v0z" />
    <glyph glyph-name="uni0424" unicode="&#x424;" horiz-adv-x="950" 
d="M416 -40v78q-66 8 -120.5 34.5t-93.5 68.5q-40 41 -62 96t-22 120q0 60 21 114.5t60 97.5q39 42 94 70.5t123 37.5v79h117v-79q66 -8 121 -36t95 -70q39 -43 60.5 -98t21.5 -116q0 -62 -22 -116t-61 -96t-94 -70t-121 -37v-78h-117zM237 357q0 -87 49 -140t130 -67v414
q-81 -14 -130 -67.5t-49 -139.5zM712 357q0 85 -49 139t-130 68v-414q81 14 130 67t49 140z" />
    <glyph glyph-name="uni0425" unicode="&#x425;" horiz-adv-x="950" 
d="M533 415l267 -413h-131l-202 313l-202 -313h-131l267 413l-252 386h131l187 -288l187 288h131z" />
    <glyph glyph-name="uni0426" unicode="&#x426;" horiz-adv-x="950" 
d="M310 118h330v683h120v-684h75v-209h-120v94h-524v799h119v-683z" />
    <glyph glyph-name="uni0427" unicode="&#x427;" horiz-adv-x="950" 
d="M218 801h115v-312q0 -27 12.5 -50t33.5 -40t49 -26.5t59 -9.5q24 0 50.5 10.5t49.5 27.5t38 40t15 48v312h114v-799h-114v330q-15 -18 -37 -30.5t-44 -19.5q-23 -8 -43.5 -11t-33.5 -3q-53 0 -101 17t-84 47t-57.5 70t-21.5 87v312z" />
    <glyph glyph-name="uni0428" unicode="&#x428;" horiz-adv-x="950" 
d="M696 118v683h120v-799h-684v799h119v-683h163v683h120v-683h162z" />
    <glyph glyph-name="uni0429" unicode="&#x429;" horiz-adv-x="950" 
d="M134 2v799h120v-683h162v683h120v-683h163v683h119v-683h74v-210h-119v94h-639z" />
    <glyph glyph-name="uni042A" unicode="&#x42a;" horiz-adv-x="950" 
d="M852 247q0 -52 -19 -97.5t-52 -78.5q-33 -34 -78.5 -52.5t-98.5 -16.5h-303v684h-204v115h323v-309h184q53 3 98.5 -15.5t78.5 -51.5q33 -34 52 -80t19 -98zM420 377v-259h173q63 -2 99.5 30t35.5 99q1 66 -36 98.5t-99 31.5h-173z" />
    <glyph glyph-name="uni042B" unicode="&#x42b;" horiz-adv-x="950" 
d="M710 801h120v-799h-120v799zM230 365v-247h161q28 0 55 7t47 22t32.5 38t12.5 56q0 35 -13 59t-34 39q-21 14 -47.5 20t-52.5 6h-161zM110 801h120v-320h183q54 0 99.5 -17.5t78.5 -48.5q33 -32 51.5 -76.5t18.5 -97.5t-18.5 -97t-51.5 -75q-33 -32 -78.5 -49.5
t-99.5 -17.5h-303v799z" />
    <glyph glyph-name="uni042C" unicode="&#x42c;" horiz-adv-x="950" 
d="M326 365v-247h161q28 0 55 7t48 22q20 15 32.5 38t12.5 56q0 35 -13 58.5t-34 38.5q-21 14 -47.5 20.5t-53.5 6.5h-161zM207 801h119v-320h184q54 0 99.5 -18t78.5 -49q33 -32 51.5 -76.5t18.5 -96.5q0 -53 -18.5 -96.5t-51.5 -75.5t-78.5 -49.5t-99.5 -17.5h-303v799z
" />
    <glyph glyph-name="uni042D" unicode="&#x42d;" horiz-adv-x="950" 
d="M336 339v115h349q-5 52 -22.5 96.5t-44.5 76.5t-64 50t-81 18q-41 0 -73 -11t-55 -29q-23 -19 -38 -43t-22 -49h-131q8 43 31 87.5t63 80.5q39 36 95 58.5t130 22.5q79 0 142.5 -31t107.5 -86t68 -130.5t24 -165.5t-24 -165.5t-68 -129.5q-45 -55 -108 -86t-141 -31
q-69 0 -123 17.5t-94 48.5q-40 32 -66.5 76.5t-39.5 98.5h129q18 -57 66.5 -91.5t126.5 -34.5q44 0 82.5 18t67.5 50q28 32 45 75t18 94h-350z" />
    <glyph glyph-name="uni042E" unicode="&#x42e;" horiz-adv-x="950" 
d="M608 693q-42 0 -76 -22t-58 -61t-37 -93.5t-13 -118.5q0 -63 12.5 -117t36.5 -93q23 -40 57 -62.5t78 -22.5q43 0 77.5 22.5t57.5 62.5t35.5 94t12.5 116q0 63 -12.5 117t-36.5 94q-24 39 -58 61.5t-76 22.5zM213 455h91q7 79 30.5 144.5t62.5 112.5q39 46 92.5 71.5
t118.5 25.5q70 0 126.5 -31t96.5 -86t61 -130.5t21 -163.5q0 -89 -21 -164.5t-61 -129.5q-40 -55 -96.5 -86t-126.5 -31q-66 0 -119 26t-92 73q-39 46 -62.5 111t-30.5 143h-91v-338h-119v793h119v-340z" />
    <glyph glyph-name="uni042F" unicode="&#x42f;" horiz-adv-x="950" 
d="M172 541q0 59 19.5 107t52.5 82q32 34 75 52.5t90 18.5h328v-799h-116v279h-173q-44 -70 -86.5 -139.5t-85.5 -139.5h-128q45 73 88 146.5t88 147.5q-32 13 -59.5 35.5t-47.5 54.5q-21 31 -33 70.5t-12 84.5zM621 378v327h-214q-22 0 -43 -10.5t-37 -31.5
q-17 -21 -27.5 -51.5t-10.5 -70.5q0 -39 10 -69.5t27 -50.5q16 -21 38 -32t45 -11h212z" />
    <glyph glyph-name="uni0430" unicode="&#x430;" horiz-adv-x="950" 
d="M726 99q0 -22 6 -50.5t20 -46.5h-127q-7 13 -11 27t-6 33q-17 -15 -40 -30t-49 -26t-54.5 -18t-56.5 -7q-36 0 -69.5 8.5t-59.5 27.5q-27 20 -43 52t-16 80q0 50 22 84.5t58 57.5q36 22 81.5 34.5t91.5 18.5q9 1 30 2.5t43 7.5t39.5 18.5t20.5 34.5q-10 33 -42 56.5
t-85 23.5q-21 -1 -41 -7.5t-36 -18.5q-16 -13 -25.5 -32t-10.5 -45h-118q0 48 18.5 87.5t51.5 67.5q32 28 75.5 43t94.5 15q46 0 89 -13.5t76 -37.5q33 -25 53 -60t20 -77v-310zM607 273q-11 -6 -24.5 -12.5t-27.5 -9.5q-30 -6 -67 -12t-69 -16q-33 -11 -55 -27.5t-22 -43.5
q0 -31 21 -41.5t58 -10.5q40 0 74 13t59 33q25 19 39 41.5t14 40.5v45z" />
    <glyph glyph-name="uni0431" unicode="&#x431;" horiz-adv-x="950" 
d="M474 489q-33 0 -59 -15t-44 -41q-18 -27 -28 -61.5t-10 -73.5q0 -38 9.5 -72.5t27.5 -60.5t44.5 -41.5t59.5 -15.5t59 15.5t45 41.5q18 26 27.5 60.5t9.5 72.5q0 39 -10 73.5t-28 61.5q-19 26 -45 41t-58 15zM321 708q63 57 143 57q18 0 37 -3t36 -3q64 0 85 45h113
q-2 -46 -22.5 -75t-51.5 -45q-32 -17 -69 -23t-71 -6q-14 0 -25 2t-23 2q-46 0 -80 -32t-50 -79q29 26 61.5 36.5t69.5 10.5q61 0 109 -23.5t82 -63.5t52 -94.5t18 -115.5q0 -60 -18 -115t-51 -96q-34 -41 -82.5 -65.5t-109.5 -24.5q-62 0 -110.5 24t-81.5 66
q-34 41 -52 95.5t-18 115.5q0 57 1.5 113t11.5 109t32 101t64 87z" />
    <glyph glyph-name="uni0432" unicode="&#x432;" horiz-adv-x="950" 
d="M240 2v577h264q32 0 63.5 -10.5t56.5 -29.5q24 -20 39.5 -48.5t15.5 -64.5q0 -21 -6 -41t-15 -37q-10 -18 -22.5 -30.5t-24.5 -17.5q13 -5 29 -16t30 -28q13 -17 22 -40t9 -50q0 -38 -15.5 -68.5t-41.5 -51.5t-60 -32.5t-72 -11.5h-272zM360 352h111q43 0 62 15.5
t19 47.5t-20.5 50.5t-57.5 18.5h-114v-132zM360 96h111q53 0 77.5 18.5t24.5 59.5q0 35 -23.5 59t-76.5 24h-113v-161z" />
    <glyph glyph-name="uni0433" unicode="&#x433;" horiz-adv-x="950" 
d="M261 579h426v-108h-306v-469h-120v577z" />
    <glyph glyph-name="uni0434" unicode="&#x434;" horiz-adv-x="950" 
d="M279 223q19 66 29.5 137t15.5 136q5 64 6.5 117t1.5 82h342v-472h55v-221h-107v114h-294v-114h-107v221h58zM556 223v365h-109q0 -19 -1.5 -59t-6.5 -91q-6 -51 -15.5 -107.5t-24.5 -107.5h157z" />
    <glyph glyph-name="uni0435" unicode="&#x435;" horiz-adv-x="950" 
d="M473 538q64 0 113 -23.5t82 -64.5q32 -42 48.5 -97.5t16.5 -119.5h-403q0 -26 13 -51t35 -44q22 -20 51 -31.5t61 -11.5q39 0 83 19t74 60l69 -65q-42 -49 -99.5 -79t-126.5 -30q-53 0 -102.5 19.5t-88.5 55.5t-62.5 85.5t-23.5 109.5q0 54 17.5 102.5t50.5 85.5
q33 36 81.5 58t110.5 22zM612 327q0 23 -11.5 44t-30.5 37q-20 16 -45 25.5t-52 9.5q-29 0 -55 -9t-45 -24q-20 -16 -31.5 -37.5t-11.5 -45.5h282z" />
    <glyph glyph-name="uni0436" unicode="&#x436;" horiz-adv-x="950" 
d="M415 2v129q-11 20 -21.5 41.5t-20.5 42.5q-34 -54 -67 -107l-66 -106h-126l189 315q-39 65 -78 128.5t-78 127.5h124l144 -228v228h119v-228l144 228h124q-39 -64 -78 -127.5t-78 -128.5q48 -79 95 -157.5t94 -157.5h-126q-32 51 -63.5 101.5t-63.5 101.5l-24 -36
t-24 -37v-130h-119z" />
    <glyph glyph-name="uni0437" unicode="&#x437;" horiz-adv-x="950" 
d="M580 333q44 -20 69.5 -57.5t25.5 -88.5q0 -39 -15 -73t-42 -60q-27 -25 -64 -39.5t-80 -14.5q-41 0 -77 14.5t-63 40.5q-27 27 -43 64t-17 81h110q0 -36 23 -64.5t65 -28.5q38 0 62 22.5t24 59.5q0 16 -5.5 31t-16.5 27t-27 19t-37 7h-42v113q24 0 44.5 3t36.5 12
q15 9 23.5 24t8.5 39q0 28 -20.5 46t-53.5 18q-14 0 -27 -6.5t-23 -16.5t-16.5 -23t-6.5 -25h-106q0 38 13 71t37 58q23 24 57 38t76 14q36 0 69 -13.5t59 -36.5q25 -23 40 -53.5t15 -64.5q0 -26 -7 -48t-18 -39q-12 -18 -25.5 -30.5t-25.5 -19.5z" />
    <glyph glyph-name="uni0438" unicode="&#x438;" horiz-adv-x="950" 
d="M569 347q-78 -138 -126.5 -223.5t-68.5 -121.5h-130v577h119v-343q49 86 97.5 171t97.5 172h130v-577h-119v345v0z" />
    <glyph glyph-name="uni0439" unicode="&#x439;" horiz-adv-x="950" 
d="M647 735q-8 -31 -24.5 -57t-39.5 -44q-23 -19 -50.5 -29t-57.5 -10t-58 10t-51 29q-23 18 -39.5 44t-24.5 57h87q14 -26 35.5 -42t50.5 -16q28 0 49.5 16.5t35.5 41.5h87zM569 347q-78 -138 -126.5 -223.5t-68.5 -121.5h-130v577h119v-343q49 86 97.5 171t97.5 172h130
v-577h-119v345z" />
    <glyph glyph-name="uni043A" unicode="&#x43a;" horiz-adv-x="950" 
d="M420 224q-13 -14 -25 -28l-24 -28v-166h-118v577h118v-237q50 60 98.5 119t98.5 118h140l-216 -264q62 -78 123 -156.5t123 -156.5h-139q-45 56 -89.5 111t-89.5 111z" />
    <glyph glyph-name="uni043B" unicode="&#x43b;" horiz-adv-x="950" 
d="M435 480v-313q0 -37 -12.5 -69.5t-36.5 -55.5q-25 -23 -60.5 -36t-81.5 -11v107q16 3 29.5 4.5t23.5 8.5q9 7 14 22t5 47v404h389v-586h-119v478h-151z" />
    <glyph glyph-name="uni043C" unicode="&#x43c;" horiz-adv-x="950" 
d="M475 219q28 91 56.5 180t56.5 180h140v-577h-113v286q-23 -72 -46 -143t-46 -143h-97q-23 72 -46 143t-46 143v-286h-113v577h140q28 -91 56.5 -180t57.5 -180z" />
    <glyph glyph-name="uni043D" unicode="&#x43d;" horiz-adv-x="950" 
d="M576 248h-203v-246h-118v577h118v-224h203v224h119v-577h-119v246z" />
    <glyph glyph-name="uni043E" unicode="&#x43e;" horiz-adv-x="950" 
d="M740 303q1 -59 -17 -115t-52 -99q-34 -44 -84 -70t-113 -24q-63 -2 -112.5 24t-83.5 70q-35 44 -52.5 100t-16.5 114q-1 58 16.5 114.5t52.5 100.5q34 43 83.5 69t112.5 25q64 1 113.5 -25t84.5 -69q34 -44 51.5 -100t16.5 -115zM618 303q0 34 -8.5 68.5t-25.5 62.5
q-18 28 -45.5 45.5t-64.5 17.5t-64 -18t-45 -45q-18 -28 -26 -62.5t-8 -68.5q-1 -33 7.5 -67.5t26.5 -62.5q17 -28 44.5 -46t64.5 -17q36 0 63.5 17t45.5 45t27 62t8 69z" />
    <glyph glyph-name="uni043F" unicode="&#x43f;" horiz-adv-x="950" 
d="M373 480v-478h-119v586h440v-586h-119v478h-202z" />
    <glyph glyph-name="uni0440" unicode="&#x440;" horiz-adv-x="950" 
d="M493 10q-23 0 -47 5.5t-46 14.5q-22 10 -40.5 22t-31.5 25v-269h-115v745h115v-65q13 14 33 26.5t43 21.5q22 9 45 14.5t44 5.5q56 0 106.5 -22t89.5 -59q38 -38 60.5 -87.5t22.5 -104.5q0 -59 -24 -108.5t-63 -86.5t-89.5 -57.5t-102.5 -20.5zM493 461q-34 0 -64 -13
t-53 -36t-37 -56t-15 -73q0 -40 13.5 -72.5t37.5 -55.5q23 -24 53.5 -37t64.5 -13t64.5 13t53.5 37q23 23 36.5 56t13.5 72t-13.5 71.5t-36.5 56.5t-53.5 37t-64.5 13z" />
    <glyph glyph-name="uni0441" unicode="&#x441;" horiz-adv-x="950" 
d="M723 92q-18 -24 -42.5 -43t-51.5 -32q-28 -12 -58 -18.5t-59 -6.5q-57 0 -108 21.5t-89 59.5q-38 37 -60 86.5t-22 106.5q0 54 20.5 103.5t57.5 87.5t88 60.5t113 22.5q58 0 111.5 -25.5t94.5 -68.5l-75 -67q-24 31 -55.5 49t-75.5 18q-34 0 -64.5 -14.5t-53.5 -38.5
q-23 -25 -36.5 -58t-13.5 -69t13.5 -68.5t36.5 -56.5q23 -25 53.5 -39.5t64.5 -14.5q44 0 78 19.5t58 53.5z" />
    <glyph glyph-name="uni0442" unicode="&#x442;" horiz-adv-x="950" 
d="M415 472h-183v107h485v-107h-183v-470h-119v470z" />
    <glyph glyph-name="uni0443" unicode="&#x443;" horiz-adv-x="950" 
d="M333 617q35 -96 70 -191t70 -191q36 96 71.5 191t71.5 191h131q-63 -164 -124 -326.5t-124 -325.5q-32 -62 -71.5 -85.5t-89.5 -23.5h-58v108h54q20 0 33 10.5t22 25.5q8 16 14 33.5t11 31.5q-54 138 -106.5 275.5t-105.5 276.5h131v0z" />
    <glyph glyph-name="uni0444" unicode="&#x444;" horiz-adv-x="950" 
d="M299 68q-48 0 -89.5 21.5t-71.5 60.5q-30 38 -47 90t-17 112t16.5 111.5t46.5 90.5q30 38 71.5 60t90.5 22q68 0 116 -48v208h119v-208q48 48 118 48q51 0 92 -22.5t71 -60.5q29 -39 45 -90.5t16 -110.5t-16.5 -111t-45.5 -90q-30 -39 -71.5 -61t-90.5 -22q-66 0 -118 48
v-198h-119v198q-50 -48 -116 -48zM652 527q-26 0 -47 -13.5t-36 -37.5t-23 -56t-8 -68t8 -68t23 -56t36 -37.5t47 -13.5q25 0 46 14.5t36 38.5q14 24 22 55.5t8 66.5q0 36 -8 68t-22 56q-15 23 -36 37t-46 14zM294 527q-31 0 -51.5 -17t-32.5 -43q-13 -26 -18.5 -57
t-5.5 -58q0 -26 7 -56.5t21 -56.5t34 -44t46 -18q25 0 47 13.5t38 37.5q15 24 24 56t9 68q0 34 -8.5 65.5t-23.5 56.5q-16 24 -38 38.5t-48 14.5z" />
    <glyph glyph-name="uni0445" unicode="&#x445;" horiz-adv-x="950" 
d="M598 2q-31 47 -61.5 93.5t-61.5 93.5q-31 -47 -62 -93.5t-62 -93.5h-141q49 73 97 146t97 147q-46 69 -92 138.5t-92 138.5h140q29 -43 57.5 -85.5t57.5 -85.5l114 171h139q-46 -69 -91.5 -138.5t-91.5 -138.5q48 -74 96.5 -147t96.5 -146h-140v0z" />
    <glyph glyph-name="uni0446" unicode="&#x446;" horiz-adv-x="950" 
d="M382 109h204v464h120v-465h64v-197h-118v91h-390v571h120v-464z" />
    <glyph glyph-name="uni0447" unicode="&#x447;" horiz-adv-x="950" 
d="M710 2h-120v198q-20 -22 -55.5 -35t-83.5 -13q-30 0 -64 12t-63 36q-29 23 -48 58.5t-19 82.5v232h119v-163q0 -79 23.5 -114.5t83.5 -35.5q35 0 56 12t33 32q11 20 14.5 45t3.5 51v173h120v-571z" />
    <glyph glyph-name="uni0448" unicode="&#x448;" horiz-adv-x="950" 
d="M630 109v464h120v-571h-517v571h119v-464h79v464h120v-464h79z" />
    <glyph glyph-name="uni0449" unicode="&#x449;" horiz-adv-x="950" 
d="M237 2v570h120v-463h79v463h119v-463h80v463h119v-464h65v-196h-120v90h-462z" />
    <glyph glyph-name="uni044A" unicode="&#x44a;" horiz-adv-x="950" 
d="M436 108h125q56 0 80.5 20t24.5 60q0 37 -23.5 57.5t-80.5 20.5h-126v-158zM318 2v470h-151v107h269v-207h143q53 0 92.5 -16t65.5 -42t39 -59.5t13 -68.5q0 -44 -16.5 -78.5t-44.5 -58.5q-28 -23 -64.5 -35t-76.5 -12h-269z" />
    <glyph glyph-name="uni044B" unicode="&#x44b;" horiz-adv-x="950" 
d="M281 108h115q58 0 81 21t23 58t-24.5 58t-79.5 21h-115v-158zM281 579v-207h132q52 0 91.5 -15.5t65.5 -41.5t39.5 -59.5t13.5 -70.5q0 -44 -16.5 -78t-44.5 -57t-64 -35.5t-76 -12.5h-260v577h119zM675 573h120v-571h-120v571z" />
    <glyph glyph-name="uni044C" unicode="&#x44c;" horiz-adv-x="950" 
d="M391 108h115q58 0 81 21t23 58t-24.5 58t-79.5 21h-115v-158zM391 579v-207h132q52 0 91.5 -15.5t65.5 -41.5t39.5 -59.5t13.5 -70.5q0 -44 -16.5 -78t-44.5 -57t-64 -35.5t-76 -12.5h-260v577h119z" />
    <glyph glyph-name="uni044D" unicode="&#x44d;" horiz-adv-x="950" 
d="M458 244v112h167q-4 30 -15.5 56t-29.5 45q-18 18 -42.5 28.5t-52.5 10.5q-26 0 -47 -8.5t-37 -21.5q-16 -14 -26 -30.5t-14 -31.5h-125q9 39 30.5 76.5t53.5 66.5t74 46.5t93 17.5q61 0 110.5 -25t83.5 -67q34 -43 52.5 -99t18.5 -118q0 -63 -18 -119t-52 -98
q-35 -43 -84 -67.5t-111 -24.5q-50 0 -91.5 16t-73.5 44t-54 66t-32 83h127q12 -38 43 -65t79 -27q59 0 92 36t47 98h-166z" />
    <glyph glyph-name="uni044E" unicode="&#x44e;" horiz-adv-x="950" 
d="M584 478q-30 0 -54.5 -15.5t-42.5 -41.5t-27.5 -60.5t-9.5 -73.5q0 -38 9.5 -73t27.5 -61q17 -26 41.5 -41.5t55.5 -15.5q30 0 54.5 15.5t42.5 41.5q17 26 26 60.5t9 73.5q0 38 -9 72.5t-26 61.5q-18 26 -42.5 41.5t-54.5 15.5zM265 349h74q7 52 27.5 96.5t51.5 76.5
t73 50.5t93 18.5q58 0 104.5 -24t79.5 -65q32 -42 49.5 -97.5t17.5 -117.5q0 -63 -17.5 -118.5t-50.5 -96.5t-79.5 -65t-103.5 -24q-53 0 -95.5 20t-73.5 54q-32 34 -52 79.5t-27 97.5h-71v-232h-119v571h119v-224z" />
    <glyph glyph-name="uni044F" unicode="&#x44f;" horiz-adv-x="950" 
d="M229 2q35 58 69 115.5t69 116.5q-26 7 -47 23.5t-36 39.5q-15 22 -23.5 49t-8.5 56q0 39 14.5 71.5t40.5 56.5q25 23 58 36t71 13h270v-577h-119v224h-91q-33 -56 -67.5 -112.5t-68.5 -111.5h-131zM587 332v140h-104q-20 0 -39.5 -2t-35.5 -9t-25.5 -21t-9.5 -37
q0 -35 24 -53t59 -18h131z" />
    <glyph glyph-name="uni0451" unicode="&#x451;" horiz-adv-x="950" 
d="M661 651q0 -15 -6 -29t-16 -24q-11 -11 -24 -17.5t-28 -6.5t-28 6.5t-23 17.5q-10 10 -16 24t-6 29t6 29.5t16 25.5q10 10 23 16.5t28 6.5t28 -6.5t24 -16.5q10 -11 16 -25.5t6 -29.5zM363 729q15 0 28 -6.5t24 -16.5q10 -11 16 -25.5t6 -29.5t-6 -29t-16 -24
q-11 -11 -24 -17.5t-28 -6.5t-28 6.5t-23 17.5q-11 10 -17 24t-6 29t6 29.5t17 25.5q10 10 23 16.5t28 6.5zM473 538q64 0 113 -23.5t82 -64.5q32 -42 48.5 -97.5t16.5 -119.5h-403q0 -26 13 -51t35 -44q22 -20 51 -31.5t61 -11.5q39 0 83 19t74 60l69 -65
q-42 -49 -99.5 -79t-126.5 -30q-53 0 -102.5 19.5t-88.5 55.5t-62.5 85.5t-23.5 109.5q0 54 17.5 102.5t50.5 85.5q33 36 81.5 58t110.5 22zM612 327q0 23 -11.5 44t-30.5 37q-20 16 -45 25.5t-52 9.5q-29 0 -55 -9t-45 -24q-20 -16 -31.5 -37.5t-11.5 -45.5h282z" />
    <glyph glyph-name="uni2015" unicode="&#x2015;" horiz-adv-x="950" 
d="M950 413v-111h-950v111h950z" />
    <glyph glyph-name="quoteleft" unicode="&#x2018;" horiz-adv-x="284" 
d="M68 707q0 46 22 83.5t75 54.5q11 3 21.5 2t15.5 -9q2 -8 -3 -12t-10 -7q-20 -10 -29.5 -26.5t-2.5 -27.5q26 -4 42.5 -23t16.5 -44q0 -29 -21 -49t-53 -20q-20 0 -34 6.5t-23 17.5t-13 25t-4 29z" />
    <glyph glyph-name="quoteright" unicode="&#x2019;" horiz-adv-x="284" 
d="M216 781q0 -46 -22 -83.5t-75 -54.5q-11 -3 -21.5 -2t-15.5 9q-2 8 3 12t10 7q20 9 29.5 26t2.5 28q-26 4 -42.5 23t-16.5 44q0 29 21 49t53 20q19 0 33 -6.5t23 -17.5t13.5 -25t4.5 -29z" />
    <glyph glyph-name="quotedblleft" unicode="&#x201c;" horiz-adv-x="384" 
d="M32 707q0 46 22 83.5t75 54.5q11 3 21.5 2t15.5 -9q2 -8 -3 -12t-10 -7q-20 -10 -29.5 -26.5t-2.5 -27.5q26 -4 42.5 -23t16.5 -44q0 -29 -21 -49t-53 -20q-20 0 -34 6.5t-23 17.5t-13 25t-4 29zM204 707q0 46 22 83.5t75 54.5q11 3 21.5 2t15.5 -9q2 -8 -3 -12t-10 -7
q-20 -10 -29.5 -26.5t-2.5 -27.5q26 -4 42.5 -23t16.5 -44q0 -29 -21 -49t-53 -20q-20 0 -34 6.5t-23 17.5t-13 25t-4 29z" />
    <glyph glyph-name="quotedblright" unicode="&#x201d;" horiz-adv-x="384" 
d="M352 781q-1 -46 -23 -83.5t-75 -54.5q-11 -3 -21.5 -2t-15.5 9q-2 8 3 12t10 7q20 9 30 26t2 28q-26 4 -42.5 23t-16.5 44q0 29 21.5 49t52.5 20q19 0 33.5 -6.5t23.5 -17.5t13.5 -25t4.5 -29zM181 781q0 -46 -22 -83.5t-75 -54.5q-11 -3 -21.5 -2t-15.5 9q-3 8 2 12
t11 7q20 9 29.5 26t2.5 28q-26 4 -43 23t-17 44q0 29 21.5 49t53.5 20q19 0 33 -6.5t23 -17.5t13.5 -25t4.5 -29z" />
    <glyph glyph-name="dagger" unicode="&#x2020;" horiz-adv-x="950" 
d="M495 620q13 0 30 3.5t35 8.5q17 4 34 7.5t32 3.5q23 0 40.5 -8t17.5 -27q0 -28 -13.5 -40.5t-46.5 -12.5q-15 0 -31 3.5t-31 8.5q-16 4 -31 7.5t-28 3.5h-7q-6 -15 -2.5 -33t11.5 -35t17 -31t13 -21q-16 -39 -24 -80.5t-11 -83.5q-3 -43 -3 -87v-88q0 -68 -1 -111t-3 -68
q-3 -24 -7 -33.5t-11 -9.5q-14 0 -19 48v2q-2 17 -2.5 46.5t-0.5 70.5q0 102 -3.5 170.5t-8.5 112.5t-12 69.5t-14 41.5q9 12 17 28t14 33q6 16 8.5 31.5t-0.5 27.5q-13 0 -29 -3.5t-33 -7.5q-17 -5 -34 -8.5t-32 -3.5q-35 0 -48 12.5t-13 41.5q0 18 16 26t41 8
q15 0 32.5 -3.5t35.5 -7.5q17 -5 33.5 -8.5t29.5 -3.5v6q1 23 -2.5 42.5t-7.5 36.5t-7.5 31.5t-3.5 28.5v15q0 29 12.5 45t30.5 16q41 0 41 -71q0 -14 -4 -28t-4 -28q-2 -10 -4.5 -23t-4.5 -26q-2 -14 -3 -26t-1 -19z" />
    <glyph glyph-name="daggerdbl" unicode="&#x2021;" horiz-adv-x="950" 
d="M496 626q14 1 30.5 4.5t33.5 7.5t33.5 7.5t29.5 3.5q29 0 44.5 -10t15.5 -33q0 -43 -63 -43q-14 0 -29 3.5t-30 7.5q-16 4 -31 7.5t-27 3.5h-7v-47t1 -54q14 0 30.5 3.5t33.5 7.5q16 4 32 7.5t30 3.5q30 0 45 -9.5t15 -32.5t-16 -33t-47 -10q-13 0 -28 3.5t-30 7.5
q-16 4 -30.5 7.5t-27.5 3.5q-2 0 -3.5 -0.5t-3.5 -0.5q1 -26 4.5 -49.5t14.5 -39.5q7 -11 11.5 -18t4.5 -12q0 -2 -2 -4q-7 -20 -13 -41t-11 -46q-5 -26 -8 -57.5t-3 -71.5v-64q-1 -44 -2 -74.5t-3 -49.5q-2 -18 -5.5 -26t-9.5 -8t-10 7t-6 25t-3.5 49.5t-2.5 81.5v59
q0 60 -5 104t-16 76q-5 13 -8 20t-5 12q-3 4 -4 7q0 8 18 31q9 17 14 41.5t5 47.5h-5q-34 0 -63 -10.5t-56 -10.5q-29 0 -45.5 9.5t-16.5 33.5q0 23 15 32.5t44 9.5q13 0 29 -3.5t33 -7.5t34 -7.5t31 -3.5q1 29 1 54v47h-7q-13 0 -27.5 -3.5t-29.5 -7.5q-16 -4 -31.5 -7.5
t-29.5 -3.5q-29 0 -45.5 10t-16.5 33t15 33t44 10q13 0 29.5 -3.5t33.5 -7.5t34 -7.5t31 -4.5q0 18 -3 37.5t-7 39.5t-7 39t-3 36q0 30 11.5 45.5t30.5 15.5q40 0 40 -70q0 -15 -3 -33t-6 -37q-4 -19 -7 -38t-3 -35z" />
    <glyph glyph-name="twodotenleader" unicode="&#x2025;" horiz-adv-x="950" 
d="M769 433v-148h-141v148h141zM321 433v-148h-141v148h141z" />
    <glyph glyph-name="ellipsis" unicode="&#x2026;" horiz-adv-x="950" 
d="M828 433v-148h-142v148h142zM545 433v-148h-140v148h140zM263 433v-148h-142v148h142z" />
    <glyph glyph-name="perthousand" unicode="&#x2030;" horiz-adv-x="950" 
d="M110 2l370 799h102l-370 -799h-102zM481 -4q-26 0 -50 13.5t-42 36.5q-18 24 -29 55.5t-11 66.5q0 34 10.5 65.5t28.5 55.5t42 38t51 14t51 -13.5t43 -36.5q18 -23 29 -55t11 -68q0 -34 -10.5 -65t-28.5 -55t-42.5 -38t-52.5 -14zM481 260q-26 0 -46 -25t-20 -67
t20 -66.5t46 -24.5q27 0 47.5 24.5t20.5 66.5t-20.5 67t-47.5 25zM162 454q-26 0 -50 13.5t-42 37.5q-19 23 -30 54.5t-11 67.5q0 34 10.5 65.5t28.5 55.5t42 38t52 14q26 0 50 -13.5t43 -36.5q18 -24 29 -55.5t11 -67.5q0 -34 -10.5 -65.5t-28.5 -55.5t-42.5 -38t-51.5 -14
zM162 719q-26 0 -46.5 -25t-20.5 -67t20.5 -66.5t46.5 -24.5q27 0 47 24.5t20 66.5t-20 67t-47 25zM773 -4q-26 0 -50 13.5t-42 36.5q-19 24 -30 55.5t-11 66.5q0 34 10.5 65.5t28.5 55.5t42 38t52 14q26 0 50 -13.5t43 -36.5q18 -23 29 -55t11 -68q0 -34 -10.5 -65
t-28.5 -55t-42.5 -38t-51.5 -14zM773 260q-26 0 -46 -25t-20 -67t20 -66.5t46 -24.5q27 0 47.5 24.5t20.5 66.5t-20.5 67t-47.5 25z" />
    <glyph glyph-name="minute" unicode="&#x2032;" horiz-adv-x="300" 
d="M251 801l-203 -276l75 276h128z" />
    <glyph glyph-name="second" unicode="&#x2033;" horiz-adv-x="384" 
d="M212 801l-203 -276l75 276h128zM374 801l-203 -276l75 276h128z" />
    <glyph glyph-name="uni203B" unicode="&#x203b;" horiz-adv-x="950" 
d="M545 604q0 -32 -20 -54t-50 -22q-29 0 -49.5 22t-20.5 53q0 30 20 52t50 22t50 -21.5t20 -51.5zM793 627l-257 -269q27 -28 60.5 -62.5t68.5 -70.5q34 -36 67 -70.5t59 -62.5l-60 -68l-256 270q-27 -28 -60 -63.5t-67 -71.5q-35 -37 -68 -72t-60 -63l-60 68l254 266
q-27 28 -60.5 63t-67.5 71q-35 36 -68 71t-59 63l63 66l253 -270q27 28 60 63t68 72q34 36 67 71t60 63zM778 358q0 -32 -20 -53t-50 -21t-51 21t-21 52q0 32 21 53t51 21q29 0 49.5 -20.5t20.5 -52.5zM314 358q0 -32 -21 -53t-51 -21q-29 0 -49.5 21.5t-20.5 51.5
q0 32 20.5 53t49.5 21q30 0 51 -20.5t21 -52.5zM545 113q0 -30 -20 -52t-50 -22q-29 0 -49.5 21.5t-20.5 51.5q0 32 20 54t50 22t50 -21.5t20 -53.5z" />
    <glyph glyph-name="uni2074" unicode="&#x2074;" horiz-adv-x="300" 
d="M37 545v59q32 48 65 95t65 94h58v-190h37v-58h-37v-41h-64v41h-124zM161 687q-14 -21 -29 -42l-30 -42h59v84z" />
    <glyph glyph-name="uni207F" unicode="&#x207f;" horiz-adv-x="300" 
d="M32 792h70v-17q12 13 32 19.5t43 6.5q24 0 42.5 -9.5t31.5 -23.5q12 -15 18 -33t6 -35v-191h-66v171q0 64 -50 64q-30 0 -45.5 -18.5t-15.5 -52.5v-164h-66v283z" />
    <glyph glyph-name="uni2081" unicode="&#x2081;" horiz-adv-x="300" 
d="M147 -80v240h-61v50h127v-290h-66z" />
    <glyph glyph-name="uni2082" unicode="&#x2082;" horiz-adv-x="300" 
d="M153 226q48 0 74 -28.5t26 -65.5q0 -35 -17.5 -57.5t-39.5 -38.5q-23 -16 -44.5 -29.5t-30.5 -31.5h134v-55h-212q1 34 17 68t52 60q9 7 23 15.5t27 18.5q12 10 21 22.5t9 27.5t-10 27t-30 12t-31.5 -14.5t-11.5 -37.5h-61q0 21 7 40.5t21 34.5q13 14 32.5 23t44.5 9z
" />
    <glyph glyph-name="uni2083" unicode="&#x2083;" horiz-adv-x="300" 
d="M249 141q0 -22 -8.5 -38.5t-21.5 -25.5q17 -9 28 -27t11 -40q0 -20 -8 -36.5t-22 -29.5q-15 -13 -35 -20t-43 -7q-47 0 -77.5 27t-30.5 75h62q0 -22 12.5 -33.5t33.5 -11.5q20 0 32.5 10.5t12.5 27.5q0 13 -6.5 20t-16.5 11t-22.5 5t-23.5 1v56q10 0 21 0.5t20 4.5
q8 3 13.5 11t5.5 22q0 10 -9 19t-27 9q-37 0 -37 -34q0 -2 0.5 -3t0.5 -3h-63q0 42 28.5 68.5t70.5 26.5q45 0 72 -25t27 -60z" />
    <glyph glyph-name="uni2084" unicode="&#x2084;" horiz-adv-x="300" 
d="M35 -38v60q33 47 66 95l66 96h59v-192h38v-59h-38v-42h-64v42h-127zM162 106q-15 -22 -30.5 -42.5t-30.5 -42.5h61v85z" />
    <glyph glyph-name="Euro" unicode="&#x20ac;" horiz-adv-x="950" 
d="M399 555h-118v58q51 17 102.5 35.5t102.5 36.5h34q14 0 24.5 -3.5t10.5 -15.5v-514q0 -20 7.5 -30.5t18.5 -15.5t24.5 -7.5t24.5 -5.5t18.5 -8.5t7.5 -17.5v-38h-359v38q0 12 7.5 17.5t19.5 8.5q11 3 24 5.5t25 8.5q11 5 18.5 15.5t7.5 29.5v403zM787 -85q29 0 49.5 10
t34.5 27q13 17 19 38.5t6 44.5v649q0 20 -6.5 45t-17.5 37v-1q-17 21 -41.5 28.5t-47.5 7.5h-616q-25 0 -49 -7.5t-41 -28.5v1q-11 -12 -17.5 -37t-6.5 -45v-649q0 -24 7 -45.5t21 -38.5q13 -16 33.5 -26t48.5 -10h624zM770 840q50 0 82 -14t50 -36q18 -23 24.5 -50t6.5 -53
v-640q0 -50 -13.5 -83t-34.5 -53q-21 -19 -47.5 -27t-52.5 -8h-620q-22 0 -51.5 8t-53.5 28q-15 13 -24 32t-13 38q-5 20 -6 37.5t-1 27.5v640q0 20 5.5 51t26.5 57q13 16 31.5 25t37.5 14q19 4 36 5t27 1h590z" />
    <glyph glyph-name="uni2103" unicode="&#x2103;" horiz-adv-x="950" 
d="M803 189q17 -18 35 -35t35 -34q-47 -48 -110 -78t-146 -30q-78 0 -141 29t-108 79q-45 49 -69.5 115t-24.5 140q0 72 23 137.5t67 116.5q43 50 107 80t146 30q80 0 142 -28.5t114 -79.5q-17 -17 -34 -34.5t-34 -35.5q-40 43 -86.5 67.5t-101.5 24.5q-52 0 -96.5 -22
t-77.5 -60t-51.5 -88.5t-18.5 -107.5t18.5 -107.5t51.5 -88.5q32 -38 76.5 -60t97.5 -22q54 0 101 24.5t85 67.5zM80 674q0 23 9 45t25 39q15 16 36 26t45 10t44.5 -10t36.5 -26q16 -17 25 -38.5t9 -45.5t-9 -46t-24 -38q-16 -16 -37 -25.5t-45 -9.5q-25 0 -46 9.5t-36 26.5
q-16 16 -24.5 37.5t-8.5 45.5zM146 674q0 -23 14 -36.5t35 -13.5q20 0 34 13.5t14 36.5t-14 37t-34 14q-21 0 -35 -14t-14 -37z" />
    <glyph glyph-name="uni2109" unicode="&#x2109;" horiz-adv-x="950" 
d="M80 674q0 24 8.5 45.5t23.5 38.5q15 16 36 26t46 10t46 -9.5t37 -25.5q15 -17 23.5 -39t8.5 -46t-8.5 -46t-23.5 -38q-16 -16 -37 -25.5t-46 -9.5t-46 9.5t-36 26.5q-15 16 -23.5 37.5t-8.5 45.5zM146 674q0 -23 13.5 -36.5t34.5 -13.5t35 13.5t14 36.5t-14 37t-35 14
t-34.5 -14t-13.5 -37zM843 634h-379v-226h349v-86h-349v-320h-105v719h484v-87z" />
    <glyph glyph-name="uni2113" unicode="&#x2113;" horiz-adv-x="878" 
d="M299 678q-17 0 -31 -16.5t-24 -42.5q-10 -27 -17.5 -59t-12.5 -63q-5 -32 -7 -59t-2 -43q0 -75 8 -133.5t23 -100.5q19 18 38 53.5t34 81.5t24 98.5t9 104.5q0 34 -4 66.5t-10 57.5t-13.5 40t-14.5 15zM303 786q23 -2 44 -14q28 -19 46 -51t29 -72q10 -41 13.5 -87
t3.5 -92q0 -75 -16 -140.5t-39 -117.5q-24 -52 -51 -88.5t-49 -53.5q24 -32 49 -32q26 0 49 25.5t35 65.5q19 -17 37.5 -33.5t37.5 -33.5q-47 -67 -87 -94t-85 -27q-34 0 -66 21.5t-62 59.5q-19 -6 -48.5 -11.5t-55.5 -5.5q-6 26 -13 50t-14 50h38t49 7q-15 40 -23.5 81.5
t-12.5 82.5q-4 40 -5 78t-1 72q0 69 19 133.5t49 115.5q29 50 63.5 80.5t65.5 30.5z" />
    <glyph glyph-name="uni2116" unicode="&#x2116;" horiz-adv-x="950" 
d="M332 2q-50 120 -99 239t-99 239v-478h-85v649h102q51 -121 100 -240t99 -240v480h85v-649h-103zM462 215q0 44 13.5 84.5t36.5 71.5q23 30 54 48t66 18q34 0 65 -17.5t55 -47.5t38 -70.5t14 -86.5q0 -44 -13.5 -84t-36.5 -70q-24 -31 -55.5 -49t-66.5 -18q-33 0 -64 17.5
t-54 47.5q-24 30 -38 70t-14 86zM534 215q0 -66 28.5 -105t69.5 -39q42 0 70.5 39t28.5 105q0 33 -7.5 59.5t-20.5 45.5q-14 19 -32 29.5t-39 10.5q-41 0 -69.5 -39.5t-28.5 -105.5zM903 51q0 -23 -15.5 -39.5t-41.5 -16.5t-42.5 16.5t-16.5 39.5t16.5 40t42.5 17t41.5 -17
t15.5 -40z" />
    <glyph glyph-name="uni2121" unicode="&#x2121;" horiz-adv-x="950" 
d="M211 627h-191v87h477v-87h-192v-622h-94v622zM817 714h95v-708h-95v708zM561 479q52 0 92 -21t66 -58t39.5 -87.5t13.5 -108.5h-326q0 -23 10.5 -45.5t28.5 -39.5q18 -18 41 -28.5t49 -10.5q32 0 67.5 17.5t60.5 53.5q14 -14 28 -29t28 -29q-34 -44 -81 -71t-103 -27
q-42 0 -82.5 17.5t-71.5 49.5q-32 32 -51 76.5t-19 98.5q0 49 14 93t41 77t66 52.5t89 19.5zM674 289q0 21 -9.5 39.5t-25.5 33.5q-16 14 -36 22.5t-42 8.5q-23 0 -44 -8t-37 -22t-25 -33t-9 -41h228z" />
    <glyph glyph-name="trademark" unicode="&#x2122;" horiz-adv-x="950" 
d="M150 732h-78v69h228v-69h-81v-292h-69v292zM456 585q14 54 27.5 108t27.5 108h76v-361h-60v171q-11 -44 -21 -86t-21 -85h-61q-11 42 -21 84.5t-21 84.5v-169h-59v361h76z" />
    <glyph glyph-name="Omega" unicode="&#x2126;" horiz-adv-x="950" 
d="M752 464q0 -49 -11.5 -96.5t-33.5 -89.5t-54.5 -76.5t-74.5 -55.5v-55h102v-93h-160q-20 0 -31.5 14.5t-11.5 37.5l-3 109q0 22 6 42t21 24q71 22 108 84t37 156q0 46 -13 89t-37 76q-25 33 -61.5 53t-83.5 20q-49 0 -85.5 -22.5t-60.5 -57.5q-25 -35 -37 -78t-12 -84
q0 -92 37 -150.5t101 -82.5q14 -7 26 -24t11 -49v-104q0 -23 -10.5 -38t-34.5 -15h-159v93h101v49q-40 17 -73 46.5t-57 69.5t-37.5 91t-13.5 112q1 68 22 131.5t60 112.5q39 48 94.5 77.5t126.5 29.5q74 0 130.5 -29.5t94.5 -78.5t57.5 -111t19.5 -127z" />
    <glyph glyph-name="uni212B" unicode="&#x212b;" horiz-adv-x="950" 
d="M670 -6q-17 37 -33.5 73t-33.5 72h-268l-34 -72t-34 -73h-112q69 154 137.5 306.5t137.5 306.5h81q68 -154 135 -306.5t135 -306.5h-111zM468 462q-26 -61 -50.5 -122t-50.5 -122h204q-26 61 -51.5 122t-51.5 122zM361 757q0 24 8.5 45.5t23.5 38.5q15 16 36 25.5t46 9.5
q24 0 45 -9.5t36 -25.5q15 -17 23.5 -38.5t8.5 -45.5q0 -23 -8 -44t-23 -37q-15 -17 -36 -27t-46 -10q-26 0 -47 10t-36 27q-15 16 -23 37t-8 44zM420 757q0 -25 15.5 -41t38.5 -16q26 0 41 16t15 41t-15 41.5t-41 16.5q-23 0 -38.5 -16.5t-15.5 -41.5z" />
    <glyph glyph-name="onethird" unicode="&#x2153;" horiz-adv-x="950" 
d="M130 386h689v-56h-689v56zM444 413v287h-93v70q44 0 74.5 16.5t30.5 56.5h71v-430h-83zM398 7q0 -31 19 -52t57 -21q34 0 53.5 18t21.5 44q0 18 -8.5 30t-21.5 18q-14 7 -31.5 10t-36.5 3h-13v72q14 0 31 1t32 7t25.5 18.5t10.5 35.5q0 17 -15.5 33.5t-48.5 16.5
q-35 0 -49.5 -19.5t-14.5 -46.5h-83q0 30 11 55t31 43q19 18 46 28t60 10q30 0 56 -9.5t46 -25.5q20 -17 31.5 -39t11.5 -48q0 -36 -17 -60.5t-34 -34.5q29 -14 47.5 -39.5t18.5 -59.5q0 -30 -13 -54.5t-34 -42.5q-22 -18 -51 -28t-61 -10q-35 0 -64 10t-51 28
q-22 19 -34 46.5t-12 62.5h84z" />
    <glyph glyph-name="twothirds" unicode="&#x2154;" horiz-adv-x="950" 
d="M130 385h689v-55h-689v55zM543 596q-17 -13 -37 -26t-38 -26q-19 -14 -33 -29.5t-19 -32.5h211v-69h-310q0 29 5.5 55t19.5 50t37 47.5t58 48.5l54 36q2 2 3.5 3t3.5 3h-1q17 13 31 28.5t14 39.5q0 25 -15 45t-49 20q-37 0 -53.5 -24.5t-16.5 -56.5h-83q0 28 9.5 55
t28.5 49q19 21 48 34t68 13q37 0 64.5 -11.5t46.5 -30.5q18 -19 27 -43.5t9 -49.5q0 -24 -6.5 -42.5t-17.5 -33.5q-12 -15 -27 -27.5t-32 -25.5v1zM398 7q0 -31 19 -52t57 -21q34 0 53.5 18t21.5 44q0 18 -8.5 30t-21.5 18q-14 7 -31.5 10t-36.5 3h-13v72q14 0 31 1t32 7
t25.5 18.5t10.5 35.5q0 17 -15.5 33.5t-48.5 16.5q-35 0 -49.5 -19.5t-14.5 -46.5h-83q0 30 11 55t31 43q19 18 46 28t60 10q30 0 56 -9.5t46 -25.5q20 -17 31.5 -39t11.5 -48q0 -36 -17 -60.5t-34 -34.5q29 -14 47.5 -39.5t18.5 -59.5q0 -30 -13 -54.5t-34 -42.5
q-22 -18 -51 -28t-61 -10q-35 0 -64 10t-51 28q-22 19 -34 46.5t-12 62.5h84z" />
    <glyph glyph-name="oneeighth" unicode="&#x215b;" horiz-adv-x="950" 
d="M130 386h689v-56h-689v56zM577 99q13 -5 25.5 -16t22.5 -26q9 -14 14.5 -31t5.5 -35q0 -27 -14 -51t-37 -43q-23 -18 -54 -28.5t-64 -10.5q-35 0 -65.5 11t-53.5 29q-24 19 -37.5 43t-13.5 50q0 34 18.5 62t50.5 45q-25 17 -39.5 41t-14.5 51q0 25 11.5 47t32.5 39
q20 16 48.5 25.5t62.5 9.5q30 0 58 -9t50 -25q21 -17 33.5 -39t12.5 -48q0 -27 -14 -50.5t-39 -40.5zM476 58q-39 0 -61.5 -17.5t-22.5 -46.5q0 -27 22.5 -45.5t61.5 -18.5q40 0 61.5 18.5t21.5 45.5q0 29 -21.5 46.5t-61.5 17.5zM476 240q-36 0 -53 -15.5t-17 -38.5
q0 -22 17 -38t53 -16q34 0 51 16t17 38q0 23 -17 38.5t-51 15.5zM444 413v287h-93v70q44 0 74.5 16.5t30.5 56.5h71v-430h-83z" />
    <glyph glyph-name="threeeighths" unicode="&#x215c;" horiz-adv-x="950" 
d="M130 385h689v-55h-689v55zM476 58q-39 0 -61.5 -17.5t-22.5 -46.5q0 -27 22.5 -45.5t61.5 -18.5q40 0 61.5 18.5t21.5 45.5q0 29 -21.5 46.5t-61.5 17.5zM476 240q-36 0 -53 -15.5t-17 -38.5q0 -22 17 -38t53 -16q34 0 51 16t17 38q0 23 -17 38.5t-51 15.5zM398 551
q0 -30 18.5 -51.5t57.5 -21.5q33 0 53 18t22 44q0 29 -22 45t-56 16h-33v74q18 0 35.5 1.5t31.5 8.5q14 6 22.5 18.5t8.5 34.5q0 18 -15.5 33.5t-47.5 15.5q-34 0 -49 -19t-15 -47h-83q0 60 40.5 97.5t107.5 37.5q30 0 56.5 -10t46.5 -26q19 -17 30.5 -39t11.5 -47
q0 -35 -16.5 -59.5t-35.5 -35.5q29 -14 47.5 -40t18.5 -60q0 -29 -12.5 -53.5t-33.5 -42.5t-50 -28.5t-62 -10.5q-35 0 -64 9.5t-50 28.5q-22 19 -34 46.5t-12 62.5h83zM577 99q13 -5 25.5 -16t22.5 -26q9 -14 14.5 -31t5.5 -35q0 -27 -14 -51t-37 -43q-23 -18 -54 -28.5
t-64 -10.5q-35 0 -65.5 11t-53.5 29q-24 19 -37.5 43t-13.5 50q0 34 18.5 62t50.5 45q-25 17 -39.5 41t-14.5 51q0 25 11.5 47t32.5 39q20 16 48.5 25.5t62.5 9.5q30 0 58 -9t50 -25q21 -17 33.5 -39t12.5 -48q0 -27 -14 -50.5t-39 -40.5z" />
    <glyph glyph-name="fiveeighths" unicode="&#x215d;" horiz-adv-x="950" 
d="M130 385h689v-55h-689v55zM476 58q-39 0 -61.5 -17.5t-22.5 -46.5q0 -27 22.5 -45.5t61.5 -18.5q40 0 61.5 18.5t21.5 45.5q0 29 -21.5 46.5t-61.5 17.5zM476 240q-36 0 -53 -15.5t-17 -38.5q0 -22 17 -38t53 -16q34 0 51 16t17 38q0 23 -17 38.5t-51 15.5zM315 609
q9 58 18.5 115.5t18.5 116.5h251v-74h-180q-4 -21 -8 -40.5t-8 -41.5q14 8 32.5 12t36.5 4q19 0 44.5 -6t47.5 -22t37.5 -44t15.5 -72q0 -36 -14 -64t-36 -48q-23 -20 -51 -30.5t-55 -10.5q-37 0 -65.5 12t-48.5 31t-31 43t-13 49h81q5 -26 24 -43.5t51 -17.5t52 20.5
t23 55.5q0 38 -18.5 59.5t-53.5 21.5q-44 0 -64 -26h-87zM577 99q13 -5 25.5 -16t22.5 -26q9 -14 14.5 -31t5.5 -35q0 -27 -14 -51t-37 -43q-23 -18 -54 -28.5t-64 -10.5q-35 0 -65.5 11t-53.5 29q-24 19 -37.5 43t-13.5 50q0 34 18.5 62t50.5 45q-25 17 -39.5 41t-14.5 51
q0 25 11.5 47t32.5 39q20 16 48.5 25.5t62.5 9.5q30 0 58 -9t50 -25q21 -17 33.5 -39t12.5 -48q0 -27 -14 -50.5t-39 -40.5z" />
    <glyph glyph-name="seveneighths" unicode="&#x215e;" horiz-adv-x="950" 
d="M130 386h689v-56h-689v56zM476 58q-39 0 -61.5 -17.5t-22.5 -46.5q0 -27 22.5 -45.5t61.5 -18.5q40 0 61.5 18.5t21.5 45.5q0 29 -21.5 46.5t-61.5 17.5zM476 240q-36 0 -53 -15.5t-17 -38.5q0 -22 17 -38t53 -16q34 0 51 16t17 38q0 23 -17 38.5t-51 15.5zM321 834h309
v-76q-30 -30 -57.5 -75t-48.5 -93t-33 -95t-12 -82h-91q1 15 5.5 37t11.5 48q7 25 17 53.5t24 55.5q13 25 27.5 48t28.5 43q13 19 25 34t19 23h-225v79zM577 99q13 -5 25.5 -16t22.5 -26q9 -14 14.5 -31t5.5 -35q0 -27 -14 -51t-37 -43q-23 -18 -54 -28.5t-64 -10.5
q-35 0 -65.5 11t-53.5 29q-24 19 -37.5 43t-13.5 50q0 34 18.5 62t50.5 45q-25 17 -39.5 41t-14.5 51q0 25 11.5 47t32.5 39q20 16 48.5 25.5t62.5 9.5q30 0 58 -9t50 -25q21 -17 33.5 -39t12.5 -48q0 -27 -14 -50.5t-39 -40.5z" />
    <glyph glyph-name="uni2160" unicode="&#x2160;" horiz-adv-x="950" 
d="M416 791h116v-789h-116v789z" />
    <glyph glyph-name="uni2161" unicode="&#x2161;" horiz-adv-x="950" 
d="M542 791h116v-789h-116v789zM292 791h117v-789h-117v789z" />
    <glyph glyph-name="uni2162" unicode="&#x2162;" horiz-adv-x="950" 
d="M429 791h116v-789h-116v789zM624 791h116v-789h-116v789zM237 791h116v-789h-116v789z" />
    <glyph glyph-name="uni2163" unicode="&#x2163;" horiz-adv-x="950" 
d="M149 792h117v-790h-117v790zM835 792q-52 -199 -103.5 -395.5t-104.5 -394.5h-132q-53 198 -104 394.5t-104 395.5h124q38 -152 75 -302t75 -302l151 604h123z" />
    <glyph glyph-name="uni2164" unicode="&#x2164;" horiz-adv-x="950" 
d="M813 792q-68 -199 -135 -395.5t-135 -394.5h-132q-68 198 -135.5 394.5t-135.5 395.5h127q53 -159 105 -316t105 -316q53 159 105 316t105 316h126v0z" />
    <glyph glyph-name="uni2165" unicode="&#x2165;" horiz-adv-x="950" 
d="M835 2h-117v790h117v-790zM149 792h123l151 -604q38 152 75 302t75 302h124q-53 -199 -104 -395.5t-104 -394.5h-132q-53 198 -104.5 394.5t-103.5 395.5z" />
    <glyph glyph-name="uni2166" unicode="&#x2166;" horiz-adv-x="950" 
d="M898 792v-790h-109v790h109zM253 2q-45 198 -89.5 394.5t-89.5 395.5h123q32 -149 63 -296t60 -298q30 149 60.5 297t61.5 297h122q-45 -199 -89.5 -395.5t-89.5 -394.5h-132zM720 792v-790h-108v790h108z" />
    <glyph glyph-name="uni2167" unicode="&#x2167;" horiz-adv-x="950" 
d="M900 791v-789h-102v789h102zM612 791v-789h-102v789h102zM196 2q-39 198 -78 394.5t-78 394.5h110q23 -125 47 -248.5t48 -248.5q5 -23 9 -47t9 -48q28 149 55.5 296t55.5 296h112q-40 -198 -79 -394.5t-79 -394.5h-132zM756 791v-789h-102v789h102z" />
    <glyph glyph-name="uni2168" unicode="&#x2168;" horiz-adv-x="950" 
d="M841 793q-57 -98 -112 -194.5t-112 -195.5q58 -101 115.5 -200.5t115.5 -200.5h-129q-42 72 -83 143t-83 143q-42 -72 -83 -143t-83 -143h-130q58 101 115.5 200.5t115.5 200.5q-57 99 -112 195.5t-112 194.5h129q41 -69 80 -137.5t80 -137.5q40 69 79.5 137.5
t79.5 137.5h129zM111 793h116v-791h-116v791z" />
    <glyph glyph-name="uni2169" unicode="&#x2169;" horiz-adv-x="950" 
d="M788 793q-62 -96 -122 -190.5t-122 -190.5q66 -103 131.5 -205t131.5 -205h-130q-49 78 -98.5 154t-98.5 154q-49 -78 -97 -154t-98 -154h-130q66 103 130.5 205t130.5 205l-243 381h130q45 -69 88.5 -138.5t88.5 -139.5q45 70 88.5 139.5t88.5 138.5h131v0z" />
    <glyph glyph-name="uni2170" unicode="&#x2170;" horiz-adv-x="950" 
d="M533 669h-118v124h118v-124zM533 2h-117v578h117v-578z" />
    <glyph glyph-name="uni2171" unicode="&#x2171;" horiz-adv-x="950" 
d="M658 669h-118v124h118v-124zM409 669h-117v124h117v-124zM658 2h-117v578h117v-578zM408 2h-115v578h115v-578z" />
    <glyph glyph-name="uni2172" unicode="&#x2172;" horiz-adv-x="950" 
d="M528 669h-118v124h118v-124zM319 669h-117v124h117v-124zM528 2h-117v578h117v-578zM318 2h-115v578h115v-578zM748 669h-118v124h118v-124zM748 2h-117v578h117v-578z" />
    <glyph glyph-name="uni2173" unicode="&#x2173;" horiz-adv-x="950" 
d="M277 2h-116v576h116v-576zM278 669h-118v124h118v-124zM821 578q-50 -145 -99 -288t-98 -288h-131q-49 145 -98 288t-98 288h126q35 -105 68 -208.5t68 -208.5q34 105 67 208.5t68 208.5h127z" />
    <glyph glyph-name="uni2174" unicode="&#x2174;" horiz-adv-x="950" 
d="M735 578q-49 -145 -98 -288t-98 -288h-130q-50 145 -98.5 288t-98.5 288h126q35 -105 68 -208.5t68 -208.5q33 105 67 208.5t67 208.5h127v0z" />
    <glyph glyph-name="uni2175" unicode="&#x2175;" horiz-adv-x="950" 
d="M655 578q-50 -145 -99 -288t-98 -288h-131q-49 145 -98 288t-98 288h126q35 -105 68.5 -209t67.5 -209q34 105 67.5 209t67.5 209h127zM792 2h-117v576h117v-576zM793 669h-118v124h118v-124z" />
    <glyph glyph-name="uni2176" unicode="&#x2176;" horiz-adv-x="950" 
d="M559 579q-43 -145 -86 -288.5t-86 -288.5h-130q-43 145 -86 288.5t-86 288.5h118q30 -103 60 -206.5t59 -206.5q30 103 59.5 206.5t59.5 206.5h118zM686 2h-108v577h108v-577zM687 669h-110v123h110v-123zM840 2h-108v577h108v-577zM840 669h-109v123h109v-123z" />
    <glyph glyph-name="uni2177" unicode="&#x2177;" horiz-adv-x="950" 
d="M472 579q-38 -145 -75.5 -288.5t-75.5 -288.5h-130q-38 145 -75.5 288.5t-75.5 288.5h114q26 -104 51 -207.5t51 -207.5q26 104 51 207.5t51 207.5h114zM598 2h-102v577h102v-577zM599 669h-104v123h104v-123zM742 2h-102v577h102v-577zM743 669h-104v123h104v-123z
M885 2h-102v577h102v-577zM886 669h-104v123h104v-123z" />
    <glyph glyph-name="uni2178" unicode="&#x2178;" horiz-adv-x="950" 
d="M285 2h-117v576h117v-576zM286 669h-118v124h118v-124zM680 2q-29 46 -59 91.5t-59 91.5q-29 -46 -59 -91.5t-60 -91.5h-135q47 74 93.5 147t93.5 147q-45 71 -89 141t-89 141h134q28 -44 55.5 -86t55.5 -85q28 43 55.5 85t55.5 86h134q-45 -71 -89 -141t-89 -141
q48 -74 93.5 -147t93.5 -147h-136z" />
    <glyph glyph-name="uni2179" unicode="&#x2179;" horiz-adv-x="950" 
d="M604 2q-32 46 -64.5 92t-64.5 92q-32 -46 -64.5 -92t-64.5 -92h-136q50 72 98.5 143.5t98.5 143.5q-48 72 -94 144t-94 144h136q30 -48 60.5 -93.5t59.5 -92.5q30 47 60 92.5t59 93.5h137q-48 -72 -94 -144t-94 -144q50 -72 98.5 -143.5t98.5 -143.5h-136v0z" />
    <glyph glyph-name="arrowleft" unicode="&#x2190;" horiz-adv-x="950" 
d="M932 312h-689l100 -112l-334 158l333 159l-100 -113h690v-92z" />
    <glyph glyph-name="arrowup" unicode="&#x2191;" horiz-adv-x="950" 
d="M427 -122v722q-26 -28 -50.5 -55.5t-50.5 -55.5q37 90 74 178.5t74 178.5q37 -89 73.5 -177.5t73.5 -178.5q-26 28 -50.5 55.5t-49.5 55.5v-723h-94z" />
    <glyph glyph-name="arrowright" unicode="&#x2192;" horiz-adv-x="950" 
d="M11 404h690q-25 29 -50.5 56t-50.5 56q84 -40 166.5 -79.5t167.5 -78.5q-85 -40 -167.5 -79t-166.5 -79q25 27 50 55l50 56h-689v93z" />
    <glyph glyph-name="arrowdown" unicode="&#x2193;" horiz-adv-x="950" 
d="M622 214l-147 -344l-150 345l103 -100v725h93v-725z" />
    <glyph glyph-name="arrowboth" unicode="&#x2194;" horiz-adv-x="950" 
d="M220 311q23 -26 45.5 -53t45.5 -54q-77 38 -153.5 77t-154.5 77q78 38 154.5 76.5t154.5 77.5l-46 -54t-46 -53h508q-23 26 -45.5 53t-45.5 54q78 -39 154.5 -77.5t154.5 -76.5q-78 -38 -154.5 -77t-154.5 -77q23 27 45.5 54t45.5 53h-508v0z" />
    <glyph glyph-name="arrowupdn" unicode="&#x2195;" horiz-adv-x="950" 
d="M427 625l-52 -50t-53 -51q38 83 76.5 165.5t76.5 165.5q38 -83 75.5 -165.5t75.5 -165.5q-26 26 -52.5 51t-52.5 50v-535q26 26 52.5 50.5t52.5 50.5q-38 -83 -75.5 -165t-75.5 -165l-153 330q27 -26 53 -51l52 -50v535v0z" />
    <glyph glyph-name="uni2196" unicode="&#x2196;" horiz-adv-x="950" 
d="M922 -48l-68 -68q-171 180 -339.5 358t-339.5 358l-4 -90t-4 -91q-38 105 -74.5 208t-73.5 208q94 -38 193 -78t204 -83l-174 -6q171 -180 340 -358t340 -358z" />
    <glyph glyph-name="uni2197" unicode="&#x2197;" horiz-adv-x="950" 
d="M90 -117q-17 17 -34.5 33.5t-34.5 33.5l681 717q-44 2 -87.5 3t-88.5 3q100 40 199.5 80t199.5 80q-38 -104 -74.5 -207t-74.5 -207q-2 45 -4 89.5t-4 89.5q-171 -180 -339 -357.5t-339 -357.5z" />
    <glyph glyph-name="uni2198" unicode="&#x2198;" horiz-adv-x="950" 
d="M19 765q18 17 35 33.5t34 33.5q171 -180 339.5 -359t339.5 -359q2 46 4.5 92t4.5 92q37 -104 73 -207t74 -208q-100 40 -198 80t-197 80q43 1 85 2.5t85 3.5q-171 180 -339.5 358t-339.5 358z" />
    <glyph glyph-name="uni2199" unicode="&#x2199;" horiz-adv-x="950" 
d="M926 764l-680 -718l174 -6l-397 -158l149 413l8 -180l678 716z" />
    <glyph glyph-name="arrowdblright" unicode="&#x21d2;" horiz-adv-x="950" 
d="M724 461l-138 100l28 39l336 -243l-336 -243l-28 39l142 102h-728v46h791l78 56l-82 58h-787v46h724z" />
    <glyph glyph-name="arrowdblboth" unicode="&#x21d4;" horiz-adv-x="950" 
d="M726 461l-140 101l28 39l336 -243l-336 -243l-28 39l139 101h-502l141 -101l-28 -39l-336 243l336 243l28 -39l-141 -101h503zM789 301l80 57l-80 57h-628l-80 -57l80 -57h628z" />
    <glyph glyph-name="universal" unicode="&#x2200;" horiz-adv-x="950" 
d="M443 2q-78 201 -155 399.5t-154 399.5h123l81 -213h299q20 54 39.5 106.5t39.5 106.5h123q-76 -201 -151.5 -399.5t-151.5 -399.5h-93zM486 188q29 77 58 152t58 151h-228q29 -76 56.5 -151t55.5 -152z" />
    <glyph glyph-name="partialdiff" unicode="&#x2202;" horiz-adv-x="950" 
d="M548 335q-27 -3 -56 -14t-53 -27q-24 -17 -39.5 -38t-15.5 -43q2 -15 6.5 -23t16.5 -8q9 0 20 4q24 8 43 24t34 36t25.5 43t18.5 46zM477 498q-25 0 -43.5 -10t-32.5 -22q-15 -13 -27.5 -23t-25.5 -10q-10 0 -17 6t-7 17q0 19 14 40t38 39q23 18 54.5 30t67.5 12
t65 -14.5t50 -38.5q21 -25 32.5 -57t11.5 -68q0 -57 -21 -110t-56 -94t-82 -66t-98 -25q-47 0 -79.5 26t-33.5 75q0 51 23 88.5t60 62.5q36 25 81.5 37t90.5 12h17q0 38 -22 65.5t-60 27.5z" />
    <glyph glyph-name="existential" unicode="&#x2203;" horiz-adv-x="950" 
d="M741 801v-799h-540v95h423v263h-393v95h393v251h-421v95h538z" />
    <glyph glyph-name="gradient" unicode="&#x2207;" horiz-adv-x="950" 
d="M475 21l-363 653h728zM234 597l242 -431l234 431h-476z" />
    <glyph glyph-name="element" unicode="&#x2208;" horiz-adv-x="950" 
d="M209 309q11 -76 62 -117.5t139 -46.5h409v-95h-398q-72 0 -130.5 22.5t-99.5 63.5q-42 40 -64.5 96.5t-22.5 124.5q0 70 24.5 126.5t67.5 96.5q42 40 100 62t125 23h398v-96h-409q-87 -2 -139.5 -45.5t-65.5 -118.5h613v-96h-609z" />
    <glyph glyph-name="suchthat" unicode="&#x220b;" horiz-adv-x="950" 
d="M113 309v96h614q-15 78 -67.5 120t-138.5 44h-409v96h398q66 -1 124 -23t101 -62t67.5 -96.5t24.5 -126.5q0 -68 -22.5 -124.5t-63.5 -96.5q-42 -41 -100.5 -63.5t-130.5 -22.5h-398v95h409q88 5 139 46.5t62 117.5h-609z" />
    <glyph glyph-name="product" unicode="&#x220f;" horiz-adv-x="950" 
d="M801 696v-80h-146v-614h-86v614h-188v-614h-86v614h-146v80h652z" />
    <glyph glyph-name="summation" unicode="&#x2211;" horiz-adv-x="950" 
d="M771 722v-275h-88v187h-392l257 -276l-256 -276h399v188h88v-276h-603v95l248 269l-246 271v93h593z" />
    <glyph glyph-name="radical" unicode="&#x221a;" horiz-adv-x="950" 
d="M102 172q-10 17 -19 33.5t-18 33.5l111 84q19 -35 37 -70l36 -70q21 121 42.5 242t42.5 242h531v-80h-467q-26 -143 -49 -284t-49 -283q-2 -14 -11.5 -21t-17.5 -7q-10 0 -16 9q-26 51 -52.5 103.5t-52.5 104.5q-12 -9 -24 -18.5t-24 -18.5z" />
    <glyph glyph-name="proportional" unicode="&#x221d;" horiz-adv-x="950" 
d="M175 358q0 -31 11 -58t30 -47q19 -21 44.5 -32.5t54.5 -11.5q35 0 59 11.5t42 31.5t31.5 47t27.5 59q-13 28 -26 54.5t-31 47.5t-42.5 33.5t-60.5 12.5q-30 0 -55.5 -12t-44.5 -32q-19 -21 -29.5 -48t-10.5 -56zM859 537q-11 -17 -22 -32.5t-22 -31.5q-23 18 -44 26
t-49 8q-42 0 -74.5 -19.5t-47.5 -51.5q-2 -2 -2 -4q-9 -19 -18 -37.5t-17 -36.5q17 -40 31 -68.5t31 -46.5q16 -18 39 -26.5t58 -8.5q28 0 50 9t42 25q11 -16 23 -31.5t23 -31.5q-35 -26 -66 -38.5t-72 -12.5q-58 0 -101.5 22.5t-69.5 62.5q-10 14 -18 28.5t-14 24.5
q-9 -13 -16.5 -26.5t-16.5 -26.5q-26 -38 -70.5 -61.5t-100.5 -23.5q-48 0 -88 19t-69 51t-45 73.5t-16 86.5q0 46 17 88t47 73q29 31 69 49.5t85 18.5q40 0 71.5 -11t55.5 -30t43 -45t34 -57q21 34 39 60t40 44q21 18 49 28t69 11q42 0 77 -12t66 -38z" />
    <glyph glyph-name="infinity" unicode="&#x221e;" horiz-adv-x="950" 
d="M294 152q-44 0 -80 16.5t-62 44.5t-40.5 65.5t-14.5 79.5q0 40 15.5 77.5t42.5 65.5q26 28 62 45t77 17q37 0 65.5 -10t50.5 -27q21 -17 36.5 -39.5t28.5 -47.5q12 25 29.5 48t40.5 40q23 16 50.5 26t59.5 10q41 0 77 -17.5t63 -45.5q26 -29 41 -66t15 -76
q0 -43 -15.5 -80.5t-41.5 -65.5q-27 -28 -63 -44t-76 -16q-38 0 -64.5 8.5t-47.5 24.5t-37.5 38.5t-32.5 51.5q-29 -57 -70.5 -90t-108.5 -33zM770 358q0 25 -9.5 47.5t-25.5 39.5q-16 16 -37 25.5t-43 9.5q-29 0 -48.5 -9t-33.5 -25q-15 -17 -27 -39.5t-26 -48.5l36 -66
q15 -27 39.5 -42t59.5 -15q24 0 44.5 10.5t36.5 27.5t25 39.5t9 45.5zM179 358q0 -25 9 -47t25 -39q15 -17 36 -27t45 -10q28 0 47.5 9.5t34.5 26.5q14 16 26 38.5t25 48.5q-13 26 -25 48t-26 39q-15 16 -34.5 25.5t-47.5 9.5q-24 0 -45 -10.5t-36 -27.5q-16 -17 -25 -39
t-9 -45z" />
    <glyph glyph-name="angle" unicode="&#x2220;" horiz-adv-x="950" 
d="M265 95h571v-80h-672q-14 0 -23 6.5t-11 16.5q-3 11 1 24t15 25l584 623l59 -59z" />
    <glyph glyph-name="uni2225" unicode="&#x2225;" horiz-adv-x="950" 
d="M325 801h94v-893h-94v893zM530 801h94v-893h-94v893z" />
    <glyph glyph-name="logicaland" unicode="&#x2227;" horiz-adv-x="950" 
d="M475 578l-273 -587l-72 40l305 654q7 16 18 24t22 9q11 0 21 -6.5t16 -19.5l308 -660l-72 -41z" />
    <glyph glyph-name="logicalor" unicode="&#x2228;" horiz-adv-x="950" 
d="M748 727l72 -42l-308 -659q-13 -27 -37.5 -26t-39.5 33l-305 653l72 41l273 -588z" />
    <glyph glyph-name="intersection" unicode="&#x2229;" horiz-adv-x="950" 
d="M475 663q-44 0 -81.5 -17t-64.5 -47q-28 -31 -43.5 -73t-15.5 -91v-433h-85v422q0 67 20 127t58 105q37 44 90.5 70t121.5 26q63 0 116 -24.5t92 -66.5q38 -42 59.5 -98.5t21.5 -120.5v-440h-85v448q0 48 -15.5 87.5t-42.5 67.5q-28 27 -65.5 42.5t-80.5 15.5z" />
    <glyph glyph-name="union" unicode="&#x222a;" horiz-adv-x="950" 
d="M475 81q42 0 79.5 15t65.5 43q27 27 43 66t16 88v449h85v-441q0 -65 -22 -121t-60 -98q-39 -42 -92 -66t-115 -24q-67 0 -120.5 25.5t-90.5 70.5q-38 44 -58.5 103.5t-20.5 127.5v423h85v-434q0 -49 15 -90.5t43 -71.5q27 -31 64.5 -48t82.5 -17z" />
    <glyph glyph-name="integral" unicode="&#x222b;" horiz-adv-x="950" 
d="M516 251q-7 -68 -20.5 -127t-33.5 -103t-47 -69.5t-61 -25.5q-24 0 -42.5 16.5t-18.5 40.5q0 26 17 42t33 16q9 0 22 -8q11 -7 10.5 -7t1.5 0q7 0 13 6.5t11 16.5q4 11 7 24t4 26v2q3 69 7 143t7 136v4q2 29 6 70t11 86t19 90t30 81q17 35 42.5 57t59.5 22q28 0 45 -17
t17 -44t-17 -40.5t-29 -13.5q-9 0 -20 7.5t-17 7.5q-16 0 -25.5 -22.5t-10.5 -50.5q-2 -43 -3.5 -89.5t-3.5 -93.5q-3 -48 -6 -94.5t-8 -88.5z" />
    <glyph glyph-name="uni222C" unicode="&#x222c;" horiz-adv-x="950" 
d="M387 251q-7 -66 -20 -125.5t-33 -103.5t-47 -70t-62 -26q-23 0 -41.5 16.5t-18.5 40.5q0 26 16.5 42t33.5 16q9 0 22 -8q7 -5 9 -6t3 -1q7 0 13 6.5t11 16.5q4 11 7 24t3 26q3 69 7 143.5t7 137.5v4q2 28 6 69t12 87q7 45 18.5 89.5t29.5 80.5t43.5 58t59.5 22
q27 0 44.5 -17t17.5 -45q0 -25 -16.5 -39t-30.5 -14q-9 0 -19.5 7.5t-16.5 7.5q-16 0 -25.5 -22t-11.5 -51q-1 -42 -2.5 -89t-3.5 -94q-3 -47 -6.5 -94t-8.5 -89zM644 251q-7 -68 -20.5 -127t-33.5 -103t-47 -69.5t-61 -25.5q-23 0 -41.5 16.5t-18.5 40.5q0 26 16.5 42
t33.5 16q5 0 11.5 -3t11.5 -6t8 -5t2 -1q7 0 13 6.5t11 16.5q4 11 7 24t4 26v2q3 69 7 143t7 136v4q2 30 6 71.5t12 86.5q7 45 18.5 89.5t29.5 79.5t43.5 57t59.5 22q28 0 45 -17.5t17 -44.5q0 -25 -16.5 -39t-30.5 -14q-9 0 -19.5 7.5t-16.5 7.5q-16 0 -26 -22t-11 -51
q-2 -43 -3.5 -89.5t-3.5 -93.5q-3 -48 -6 -94.5t-8 -88.5z" />
    <glyph glyph-name="uni222E" unicode="&#x222e;" horiz-adv-x="950" 
d="M540 401q-12 -39 -23.5 -78t-22.5 -78q32 8 52.5 33t20.5 59q0 17 -6 36t-21 28zM406 271q27 82 53 162q-35 -5 -56 -32t-21 -64q0 -39 24 -66zM383 186q-38 26 -59 64t-21 87q0 38 14 70.5t38 56.5t57 38t72 14q18 51 36 93t39 73q21 30 45.5 47t55.5 17q35 0 56.5 -19
t21.5 -47q0 -11 -3.5 -22.5t-9.5 -21.5q-7 -10 -16.5 -16t-22.5 -6q-19 0 -35 18q-1 0 -3.5 4.5t-6.5 9.5t-7.5 9.5t-5.5 4.5q-9 0 -13 -16.5t-12 -32.5q-11 -34 -21 -64t-18 -58q38 -24 60 -64t22 -88q0 -38 -14 -70.5t-38 -56.5q-25 -24 -58 -37.5t-71 -13.5
q-17 -54 -35.5 -97.5t-39.5 -74.5q-21 -30 -45 -46.5t-51 -16.5q-42 0 -63.5 21.5t-21.5 49.5q0 9 3 19.5t10 18.5q7 9 17 15t24 6q23 0 33 -10t19 -36q10 11 20.5 34.5t19.5 50.5q9 26 16 51.5t12 41.5z" />
    <glyph glyph-name="therefore" unicode="&#x2234;" horiz-adv-x="950" 
d="M715 165q20 0 35 -15.5t15 -36.5t-15 -36.5t-35 -15.5t-34.5 15.5t-14.5 36.5t14.5 36.5t34.5 15.5zM235 165q20 0 34.5 -15.5t14.5 -36.5t-14.5 -36.5t-34.5 -15.5t-35 15.5t-15 36.5t15 36.5t35 15.5zM475 643q20 0 35 -15.5t15 -36.5t-15 -36.5t-35 -15.5t-35 15.5
t-15 36.5t15 36.5t35 15.5z" />
    <glyph glyph-name="uni2235" unicode="&#x2235;" horiz-adv-x="950" 
d="M715 550q-20 0 -34.5 15.5t-14.5 36.5t14.5 36.5t34.5 15.5t35 -15.5t15 -36.5t-15 -36.5t-35 -15.5zM235 550q-20 0 -35 15.5t-15 36.5t15 36.5t35 15.5t34.5 -15.5t14.5 -36.5t-14.5 -36.5t-34.5 -15.5zM475 72q-20 0 -35 15.5t-15 36.5t15 36.5t35 15.5t35 -15.5
t15 -36.5t-15 -36.5t-35 -15.5z" />
    <glyph glyph-name="similar" unicode="&#x223c;" horiz-adv-x="950" 
d="M373 450q42 0 72 -13.5t58 -33.5q14 -10 35.5 -18.5t43.5 -8.5q27 0 52.5 15.5t47.5 54.5l64 -63q-28 -48 -76 -75t-105 -27q-21 0 -36 2.5t-28 7.5t-25.5 13t-27.5 19q-20 17 -41.5 24.5t-43.5 7.5q-26 0 -56.5 -16t-53.5 -52l-62 62q29 47 76.5 74t105.5 27z" />
    <glyph glyph-name="uni223D" unicode="&#x223d;" horiz-adv-x="950" 
d="M691 601q45 -2 83 -20.5t66 -48.5q27 -31 42 -70.5t15 -82.5q0 -47 -16 -87.5t-44 -70.5t-66 -47t-82 -17q-17 0 -37 3t-39 10q-20 6 -37 15.5t-27 22.5q10 19 19.5 38.5t19.5 38.5q25 -23 51 -35t55 -12q26 0 48 10.5t39 27.5q16 17 25.5 40t10.5 49q0 30 -9 57.5
t-25 49.5q-17 21 -40.5 34t-52.5 15q-78 0 -116 -55q-1 -1 -1.5 -2t-1.5 -2q-38 -58 -66 -112.5t-59 -96.5q-32 -43 -72.5 -68.5t-102.5 -25.5q-50 0 -90 18.5t-67 49.5q-28 31 -43 72t-15 87q0 43 16 82.5t44 69.5t66.5 47.5t82.5 17.5q38 0 75.5 -12.5t63.5 -35.5
q-9 -19 -19 -38t-19 -38q-23 21 -48 33t-57 12q-27 0 -50 -10.5t-40 -28.5t-26.5 -41t-10.5 -48q0 -69 34 -112.5t97 -47.5q37 0 67 16.5t51 46.5q44 73 76 129.5t64 94.5t70.5 58t97.5 20z" />
    <glyph glyph-name="uni2252" unicode="&#x2252;" horiz-adv-x="950" 
d="M159 494h632v-94h-632v94zM159 316h632v-94h-632v94zM282 681q23 0 38 -16.5t15 -39.5t-15 -39.5t-38 -16.5t-38 16.5t-15 39.5t15 39.5t38 16.5zM669 148q21 0 37 -16.5t16 -39.5t-16 -39.5t-37 -16.5t-37.5 16.5t-16.5 39.5t16.5 39.5t37.5 16.5z" />
    <glyph glyph-name="notequal" unicode="&#x2260;" horiz-adv-x="950" 
d="M465 536q16 49 32 97.5t32 97.5l105 -24q-13 -43 -26.5 -85.5t-27.5 -85.5h249v-104h-282q-12 -37 -24 -73.5t-25 -73.5h331v-104h-364q-17 -49 -32.5 -96t-32.5 -96q-28 5 -55.5 11t-55.5 11q14 42 29 84.5t29 85.5h-207v104h242q13 37 25 73.5t24 73.5h-291v104h325z
" />
    <glyph glyph-name="equivalence" unicode="&#x2261;" horiz-adv-x="950" 
d="M130 562h690v-88h-690v88zM130 402h690v-88h-690v88zM130 242h690v-88h-690v88z" />
    <glyph glyph-name="lessequal" unicode="&#x2264;" horiz-adv-x="950" 
d="M801 663q-115 -51 -228.5 -101t-228.5 -101q118 -52 235 -103.5t235 -103.5l-44 -92l-618 273q-11 0 -17 11.5t-6 14.5q0 14 22 24q153 69 304.5 136t304.5 136q11 -24 21 -47.5t20 -46.5zM120 109h708v-102h-708v102z" />
    <glyph glyph-name="greaterequal" unicode="&#x2265;" horiz-adv-x="950" 
d="M612 461q-115 51 -228.5 101t-228.5 101q10 23 20.5 46.5t20.5 47.5q154 -69 305 -136t305 -136q0 -3 11 -9.5t11 -14.5q0 -15 -24 -26l-618 -273l-44 92q118 52 235 103.5t235 103.5zM836 7h-709v102h709v-102z" />
    <glyph glyph-name="uni226A" unicode="&#x226a;" horiz-adv-x="950" 
d="M362 394q94 88 186 174.5t186 174.5q14 -16 27.5 -31t27.5 -30q-85 -82 -168 -162.5t-168 -161.5q169 -165 338 -326q-14 -14 -28.5 -29t-28.5 -30q-94 87 -187 173.5t-187 174.5l-1 1q-17 17 -17 37q0 19 20 35zM133 394q94 88 186.5 174.5t186.5 174.5q14 -16 27 -31
t27 -30q-85 -82 -168 -162.5t-168 -161.5q85 -82 169 -163.5t169 -162.5q-14 -14 -28 -29l-28 -30q-94 87 -187.5 173.5t-187.5 174.5l-1 1q-17 19 -17 37t20 35z" />
    <glyph glyph-name="uni226B" unicode="&#x226b;" horiz-adv-x="950" 
d="M164 743q94 -88 186.5 -174.5t186.5 -174.5q19 -17 19 -35q-1 -9 -4.5 -19.5t-12.5 -18.5q-94 -88 -187.5 -174.5t-187.5 -173.5q-27 30 -56 59q169 161 338 326q-85 81 -168 161.5t-168 162.5q14 15 27.5 30t26.5 31zM393 743q94 -88 186.5 -174.5t186.5 -174.5
q19 -19 19 -35q0 -18 -17 -38q-94 -88 -187.5 -174.5t-187.5 -173.5l-28 30t-28 29q85 81 169 162.5t169 163.5q-85 81 -168 161.5t-168 162.5q14 15 27 30t27 31z" />
    <glyph glyph-name="propersubset" unicode="&#x2282;" horiz-adv-x="950" 
d="M191 358q0 -42 13 -81t40 -69q26 -30 65.5 -48.5t92.5 -18.5h429v-86h-418q-69 0 -127 22t-99 62t-64 95.5t-23 123.5q0 67 23.5 123t65.5 96t99 62t125 22h418v-87h-429q-52 0 -91.5 -18t-65.5 -48q-27 -30 -40.5 -69t-13.5 -81z" />
    <glyph glyph-name="propersuperset" unicode="&#x2283;" horiz-adv-x="950" 
d="M757 358q0 42 -13.5 81t-40.5 69t-66.5 48t-90.5 18h-430v87h419q66 0 123.5 -22t99.5 -61q42 -40 66 -96t24 -124t-23 -124t-64 -95q-42 -40 -99.5 -62t-126.5 -22h-419v86h430q53 0 92.5 18.5t66.5 48.5q26 30 39 69t13 81z" />
    <glyph glyph-name="reflexsubset" unicode="&#x2286;" horiz-adv-x="950" 
d="M103 81h742v-79h-742v79zM182 438q0 -36 12.5 -70.5t38.5 -61.5q26 -28 66 -44.5t94 -16.5h430v-79h-419q-70 0 -127.5 20t-98.5 56q-42 36 -64.5 86t-22.5 110q0 61 23.5 111t65.5 86q42 35 99.5 54.5t124.5 19.5h419v-79h-430q-51 0 -90.5 -15.5t-66.5 -41.5
q-27 -27 -40.5 -61.5t-13.5 -73.5z" />
    <glyph glyph-name="reflexsuperset" unicode="&#x2287;" horiz-adv-x="950" 
d="M833 2h-742v79h742v-79zM754 438q0 38 -13.5 73t-39.5 62q-27 26 -66.5 41.5t-91.5 15.5h-430v79h419q67 0 124.5 -19.5t99.5 -54.5q42 -36 65.5 -86t23.5 -111q0 -60 -22.5 -110t-63.5 -86q-42 -36 -99.5 -56t-127.5 -20h-419v79h430q54 0 93.5 16.5t66.5 43.5
q26 27 38.5 61.5t12.5 71.5z" />
    <glyph glyph-name="uni2299" unicode="&#x2299;" horiz-adv-x="950" 
d="M79 357q0 85 31.5 160t85.5 131q54 55 126 87.5t154 32.5q81 0 153 -32t126 -88q53 -56 84 -131t31 -160q0 -84 -30.5 -159t-83.5 -130q-53 -56 -125 -88.5t-155 -32.5q-82 0 -154.5 31.5t-126.5 86.5t-85 130t-31 162zM184 357q0 -63 23 -117.5t63 -95.5
q39 -41 92 -64.5t114 -23.5q59 0 112 23.5t93 64.5q39 41 62 96t23 117q0 61 -23 116t-62 96q-40 41 -93 65.5t-112 24.5t-112 -23.5t-93 -63.5q-40 -41 -63.5 -96.5t-23.5 -118.5zM327 356q0 30 11.5 58t32.5 50q20 21 47 34t58 13q30 0 57 -12.5t47 -33.5q20 -22 32 -50
t12 -59t-11.5 -59t-31.5 -49q-21 -21 -48 -33.5t-57 -12.5q-31 0 -58 12.5t-47 33.5q-21 21 -32.5 49t-11.5 59z" />
    <glyph glyph-name="perpendicular" unicode="&#x22a5;" horiz-adv-x="950" 
d="M128 90h301v547h92v-547h301v-88h-694v88z" />
    <glyph glyph-name="uni2312" unicode="&#x2312;" horiz-adv-x="950" 
d="M152 373q9 64 35 121.5t67 101.5q41 43 96.5 68.5t124.5 25.5q70 0 125 -26t95 -70t66 -101.5t37 -119.5h-98q-7 43 -25 83t-46 71q-29 31 -67.5 49.5t-86.5 18.5q-50 0 -89 -19.5t-67 -50.5q-29 -32 -46.5 -72t-23.5 -80h-97z" />
    <glyph glyph-name="uni2460" unicode="&#x2460;" horiz-adv-x="950" 
d="M523 612v-525h-74v464h-55v61h129zM475 826q91 0 172 -37.5t142 -101.5t96 -149t35 -180q0 -96 -35.5 -181.5t-96.5 -149.5q-61 -63 -141.5 -100t-171.5 -37t-172 36.5t-142 99.5q-61 64 -96.5 149.5t-35.5 182.5q0 96 35 181t96 149t142 101t173 37zM475 737
q-74 0 -139.5 -30t-113.5 -81q-49 -52 -77.5 -121t-28.5 -147t28 -147t77 -120q48 -52 113.5 -82t140.5 -30q78 0 143.5 28.5t113.5 79.5q48 50 74.5 119.5t26.5 151.5q0 75 -27 143.5t-74 121.5q-48 52 -113.5 83t-143.5 31z" />
    <glyph glyph-name="uni2461" unicode="&#x2461;" horiz-adv-x="950" 
d="M475 643q38 0 69.5 -14t54.5 -37q22 -24 34.5 -54.5t12.5 -63.5q0 -49 -27.5 -92.5t-73.5 -67.5q-30 -17 -55.5 -35.5t-43.5 -36.5q-19 -18 -30 -35t-11 -31h251v-70h-357q0 32 8 64.5t29 65.5q21 32 58 64.5t95 64.5q38 19 56.5 50.5t18.5 58.5q0 18 -7 35t-19 30
q-13 13 -29 21t-34 8q-35 0 -60.5 -27t-25.5 -69h-86q0 33 14 64t38 55q23 24 54 38t66 14zM475 826q91 0 172 -37.5t142 -101.5t96 -149t35 -180q0 -96 -35.5 -181.5t-96.5 -149.5q-61 -63 -141.5 -100t-171.5 -37t-172 36.5t-142 99.5q-61 64 -96.5 149.5t-35.5 182.5
q0 96 35 181t96 149t142 101t173 37zM475 737q-74 0 -139.5 -30t-113.5 -81q-49 -52 -77.5 -121t-28.5 -147t28 -147t77 -120q48 -52 113.5 -82t140.5 -30q78 0 143.5 28.5t113.5 79.5q48 50 74.5 119.5t26.5 151.5q0 75 -27 143.5t-74 121.5q-48 52 -113.5 83t-143.5 31z
" />
    <glyph glyph-name="uni2462" unicode="&#x2462;" horiz-adv-x="950" 
d="M641 475q0 -28 -15 -58.5t-41 -49.5q33 -22 52.5 -56t19.5 -71q0 -33 -14.5 -62.5t-38.5 -51.5q-25 -23 -58.5 -36t-71.5 -13t-72 13t-59 36q-25 22 -39.5 53t-14.5 67h85q0 -21 8.5 -38.5t22.5 -30.5t32 -20.5t37 -7.5t37 7.5t32 20.5q13 12 21 28.5t8 34.5
q0 16 -8 32.5t-21 29.5q-14 12 -31 20t-36 8h-56v71h56q31 2 55.5 23.5t24.5 50.5q0 14 -7 27.5t-18 24.5q-12 10 -27 16t-31 6q-14 0 -28 -5.5t-25 -15.5t-19 -22.5t-9 -27.5h-87q2 30 16.5 56t37.5 46q23 19 52.5 30t61.5 11q35 0 66 -12t54 -32q22 -20 35 -46.5t13 -55.5
zM475 826q91 0 172 -37.5t142 -101.5t96 -149t35 -180q0 -96 -35.5 -181.5t-96.5 -149.5q-61 -63 -141.5 -100t-171.5 -37t-172 36.5t-142 99.5q-61 64 -96.5 149.5t-35.5 182.5q0 96 35 181t96 149t142 101t173 37zM475 737q-74 0 -139.5 -30t-113.5 -81
q-49 -52 -77.5 -121t-28.5 -147t28 -147t77 -120q48 -52 113.5 -82t140.5 -30q78 0 143.5 28.5t113.5 79.5q48 50 74.5 119.5t26.5 151.5q0 75 -27 143.5t-74 121.5q-48 52 -113.5 83t-143.5 31z" />
    <glyph glyph-name="uni2463" unicode="&#x2463;" horiz-adv-x="950" 
d="M265 285q63 88 126 174.5t126 174.5h60v-346h68v-72h-68v-114h-84v114h-228v69zM493 288v184q-33 -46 -65 -92t-65 -92h130zM475 826q91 0 172 -37.5t142 -101.5t96 -149t35 -180q0 -96 -35.5 -181.5t-96.5 -149.5q-61 -63 -141.5 -100t-171.5 -37t-172 36.5t-142 99.5
q-61 64 -96.5 149.5t-35.5 182.5q0 96 35 181t96 149t142 101t173 37zM475 737q-74 0 -139.5 -30t-113.5 -81q-49 -52 -77.5 -121t-28.5 -147t28 -147t77 -120q48 -52 113.5 -82t140.5 -30q78 0 143.5 28.5t113.5 79.5q48 50 74.5 119.5t26.5 151.5q0 75 -27 143.5
t-74 121.5q-48 52 -113.5 83t-143.5 31z" />
    <glyph glyph-name="uni2464" unicode="&#x2464;" horiz-adv-x="950" 
d="M629 617v-72h-213q-4 -32 -7 -63.5t-7 -63.5q15 9 37 14.5t43 5.5q37 0 69 -15t55 -39q22 -25 35 -58t13 -69t-14 -69t-39 -58t-58 -39.5t-71 -14.5q-34 0 -64.5 12t-54.5 33t-40 50t-21 64h84q8 -41 34.5 -64.5t61.5 -23.5q20 0 38 9t32 24q13 15 20.5 35t7.5 42
q0 21 -7 41t-20 35t-31.5 24t-40.5 9q-20 0 -43.5 -11.5t-37.5 -29.5h-85q8 73 17 146t17 146h290zM475 826q91 0 172 -37.5t142 -101.5t96 -149t35 -180q0 -96 -35.5 -181.5t-96.5 -149.5q-61 -63 -141.5 -100t-171.5 -37t-172 36.5t-142 99.5q-61 64 -96.5 149.5
t-35.5 182.5q0 96 35 181t96 149t142 101t173 37zM475 737q-74 0 -139.5 -30t-113.5 -81q-49 -52 -77.5 -121t-28.5 -147t28 -147t77 -120q48 -52 113.5 -82t140.5 -30q78 0 143.5 28.5t113.5 79.5q48 50 74.5 119.5t26.5 151.5q0 75 -27 143.5t-74 121.5q-48 52 -113.5 83
t-143.5 31z" />
    <glyph glyph-name="uni2465" unicode="&#x2465;" horiz-adv-x="950" 
d="M476 433q37 0 70 -13.5t58 -37.5t39 -56t14 -68t-14 -68t-39 -55q-25 -24 -58 -38t-70 -14q-39 0 -73.5 13.5t-60.5 45.5q-26 31 -41.5 82.5t-15.5 127.5q0 59 12 109.5t37 87.5q24 36 61 57t87 21q38 0 68 -12.5t52 -32.5q21 -20 33 -47t14 -55h-78q-2 14 -10 27.5
t-20 24.5t-27.5 18t-33.5 7q-24 0 -45 -13.5t-36 -36.5q-16 -24 -25.5 -56.5t-10.5 -71.5q20 29 53.5 41.5t59.5 12.5zM476 155q20 0 37.5 8t31.5 22q13 14 20.5 33t7.5 40q0 22 -7.5 41t-20.5 33q-14 14 -31.5 22t-37.5 8t-37 -8t-30 -21q-14 -14 -21.5 -33.5t-7.5 -41.5
q0 -21 7.5 -40t20.5 -33t30.5 -22t37.5 -8zM475 826q91 0 172 -37.5t142 -101.5t96 -149t35 -180q0 -96 -35.5 -181.5t-96.5 -149.5q-61 -63 -141.5 -100t-171.5 -37t-172 36.5t-142 99.5q-61 64 -96.5 149.5t-35.5 182.5q0 96 35 181t96 149t142 101t173 37zM475 737
q-74 0 -139.5 -30t-113.5 -81q-49 -52 -77.5 -121t-28.5 -147t28 -147t77 -120q48 -52 113.5 -82t140.5 -30q78 0 143.5 28.5t113.5 79.5q48 50 74.5 119.5t26.5 151.5q0 75 -27 143.5t-74 121.5q-48 52 -113.5 83t-143.5 31z" />
    <glyph glyph-name="uni2466" unicode="&#x2466;" horiz-adv-x="950" 
d="M663 612v-165q-44 -39 -81 -88.5t-63 -104.5t-40.5 -111.5t-14.5 -110.5h-92q0 50 15.5 112.5t43.5 124.5q27 61 64.5 116t82.5 91v58h-293v78h378zM475 826q91 0 172 -37.5t142 -101.5t96 -149t35 -180q0 -96 -35.5 -181.5t-96.5 -149.5q-61 -63 -141.5 -100t-171.5 -37
t-172 36.5t-142 99.5q-61 64 -96.5 149.5t-35.5 182.5q0 96 35 181t96 149t142 101t173 37zM475 737q-74 0 -139.5 -30t-113.5 -81q-49 -52 -77.5 -121t-28.5 -147t28 -147t77 -120q48 -52 113.5 -82t140.5 -30q78 0 143.5 28.5t113.5 79.5q48 50 74.5 119.5t26.5 151.5
q0 75 -27 143.5t-74 121.5q-48 52 -113.5 83t-143.5 31z" />
    <glyph glyph-name="uni2467" unicode="&#x2467;" horiz-adv-x="950" 
d="M290 248q0 38 20 71.5t51 55.5q-27 19 -41.5 49t-14.5 59t13 55.5t36 47.5q22 20 53 32t66 12t65.5 -12t53.5 -32q23 -21 36 -47.5t13 -55.5t-14.5 -59t-41.5 -49q32 -22 51.5 -55.5t19.5 -71.5q0 -33 -14.5 -62.5t-38.5 -51.5q-25 -23 -58.5 -36t-71.5 -13t-71.5 13
t-58.5 36q-25 22 -39 51.5t-14 62.5zM572 248q0 17 -8 33t-21 29q-14 13 -31.5 20.5t-36.5 7.5q-20 0 -38 -7.5t-32 -20.5t-22.5 -29t-8.5 -33q0 -19 8 -35.5t22 -28.5q14 -13 31.5 -20t37.5 -7q19 0 37 7t32 20q14 12 22 28.5t8 35.5zM556 483q0 15 -7 28.5t-18 23.5
q-12 10 -27 16t-31 6t-31 -6t-26 -16q-12 -10 -19 -23.5t-7 -28.5t7 -28t19 -22q12 -10 27.5 -16t31.5 -7q15 1 30 7t26 16q11 9 18 22t7 28zM475 826q91 0 172 -37.5t142 -101.5t96 -149t35 -180q0 -96 -35.5 -181.5t-96.5 -149.5q-61 -63 -141.5 -100t-171.5 -37
t-172 36.5t-142 99.5q-61 64 -96.5 149.5t-35.5 182.5q0 96 35 181t96 149t142 101t173 37zM475 737q-74 0 -139.5 -30t-113.5 -81q-49 -52 -77.5 -121t-28.5 -147t28 -147t77 -120q48 -52 113.5 -82t140.5 -30q78 0 143.5 28.5t113.5 79.5q48 50 74.5 119.5t26.5 151.5
q0 75 -27 143.5t-74 121.5q-48 52 -113.5 83t-143.5 31z" />
    <glyph glyph-name="uni2468" unicode="&#x2468;" horiz-adv-x="950" 
d="M476 271q-37 0 -70 13.5t-57 37.5q-25 24 -39.5 57t-14.5 72q0 38 14.5 70.5t39.5 56.5q24 24 57 37.5t70 13.5q39 0 73.5 -13t61.5 -43q26 -30 41.5 -79.5t15.5 -122.5q0 -59 -11.5 -111t-34.5 -90q-24 -39 -60.5 -61.5t-85.5 -22.5q-38 0 -68 12.5t-51 32.5
q-22 20 -34 46.5t-13 55.5h78q1 -14 9 -27.5t20 -24.5t27.5 -18t33.5 -7q24 0 44 13t35 36q14 22 22.5 53.5t10.5 67.5q-10 -14 -24.5 -24t-29.5 -17q-16 -7 -31.5 -10.5t-28.5 -3.5zM476 558q-40 0 -68.5 -30t-28.5 -77q0 -48 28.5 -78t68.5 -30q19 0 37 8.5t32 23.5
q13 15 21 34.5t8 41.5q0 21 -7.5 40.5t-20.5 34.5q-14 15 -31.5 23.5t-38.5 8.5zM475 826q91 0 172 -37.5t142 -101.5t96 -149t35 -180q0 -96 -35.5 -181.5t-96.5 -149.5q-61 -63 -141.5 -100t-171.5 -37t-172 36.5t-142 99.5q-61 64 -96.5 149.5t-35.5 182.5q0 96 35 181
t96 149t142 101t173 37zM475 737q-74 0 -139.5 -30t-113.5 -81q-49 -52 -77.5 -121t-28.5 -147t28 -147t77 -120q48 -52 113.5 -82t140.5 -30q78 0 143.5 28.5t113.5 79.5q48 50 74.5 119.5t26.5 151.5q0 75 -27 143.5t-74 121.5q-48 52 -113.5 83t-143.5 31z" />
    <glyph glyph-name="uni2469" unicode="&#x2469;" horiz-adv-x="950" 
d="M574 614q38 0 68.5 -19.5t51.5 -54.5t32 -84t11 -108t-11 -108.5t-32 -84.5t-51.5 -54.5t-68.5 -19.5q-39 0 -69 19.5t-51 54.5t-32 84.5t-11 108.5t11 108t32 84t51 54.5t69 19.5zM574 151q18 0 35.5 13.5t31.5 39.5q13 25 21.5 61.5t8.5 82.5q0 45 -8.5 81t-21.5 62
q-14 25 -31.5 38.5t-35.5 13.5q-19 0 -36.5 -13.5t-30.5 -38.5q-14 -26 -22.5 -62t-8.5 -81q0 -46 8.5 -82.5t22.5 -61.5q13 -26 30.5 -39.5t36.5 -13.5zM357 612v-525h-74v464h-54v61h128zM475 826q91 0 172 -37.5t142 -101.5t96 -149t35 -180q0 -96 -35.5 -181.5
t-96.5 -149.5q-61 -63 -141.5 -100t-171.5 -37t-172 36.5t-142 99.5q-61 64 -96.5 149.5t-35.5 182.5q0 96 35 181t96 149t142 101t173 37zM475 737q-74 0 -139.5 -30t-113.5 -81q-49 -52 -77.5 -121t-28.5 -147t28 -147t77 -120q48 -52 113.5 -82t140.5 -30
q78 0 143.5 28.5t113.5 79.5q48 50 74.5 119.5t26.5 151.5q0 75 -27 143.5t-74 121.5q-48 52 -113.5 83t-143.5 31z" />
    <glyph glyph-name="uni246A" unicode="&#x246a;" horiz-adv-x="950" 
d="M637 612v-525h-74v464h-54v61h128zM475 826q91 0 172 -37.5t142 -101.5t96 -149t35 -180q0 -96 -35.5 -181.5t-96.5 -149.5q-61 -63 -141.5 -100t-171.5 -37t-172 36.5t-142 99.5q-61 64 -96.5 149.5t-35.5 182.5q0 96 35 181t96 149t142 101t173 37zM475 737
q-74 0 -139.5 -30t-113.5 -81q-49 -52 -77.5 -121t-28.5 -147t28 -147t77 -120q48 -52 113.5 -82t140.5 -30q78 0 143.5 28.5t113.5 79.5q48 50 74.5 119.5t26.5 151.5q0 75 -27 143.5t-74 121.5q-48 52 -113.5 83t-143.5 31zM387 612v-525h-74v464h-54v61h128z" />
    <glyph glyph-name="uni246B" unicode="&#x246b;" horiz-adv-x="950" 
d="M556 625q34 0 62.5 -14t49.5 -37q20 -23 31 -53t11 -62q0 -47 -24 -89.5t-66 -68.5q-54 -34 -89.5 -70.5t-36.5 -64.5h226v-68h-321q0 31 7 63t26 64q18 32 51 64t86 64q17 9 30 21.5t22 27.5q8 14 12 28.5t4 27.5q0 18 -6.5 35t-17.5 30q-11 12 -25.5 20t-31.5 8
q-31 0 -54 -26.5t-23 -68.5h-78q0 33 12.5 63.5t34.5 54.5q21 23 49 37t59 14zM475 826q91 0 172 -37.5t142 -101.5t96 -149t35 -180q0 -96 -35.5 -181.5t-96.5 -149.5q-61 -63 -141.5 -100t-171.5 -37t-172 36.5t-142 99.5q-61 64 -96.5 149.5t-35.5 182.5q0 96 35 181
t96 149t142 101t173 37zM475 737q-74 0 -139.5 -30t-113.5 -81q-49 -52 -77.5 -121t-28.5 -147t28 -147t77 -120q48 -52 113.5 -82t140.5 -30q78 0 143.5 28.5t113.5 79.5q48 50 74.5 119.5t26.5 151.5q0 75 -27 143.5t-74 121.5q-48 52 -113.5 83t-143.5 31zM357 602v-505
h-74v444h-54v61h128z" />
    <glyph glyph-name="uni246C" unicode="&#x246c;" horiz-adv-x="950" 
d="M717 472q0 -27 -13.5 -57t-37.5 -48q31 -22 48 -55.5t17 -69.5q0 -32 -13 -61t-35 -51q-23 -22 -53 -35t-64 -13q-35 0 -65 12.5t-52 35.5q-23 22 -36 52.5t-13 66.5h76q0 -21 7.5 -38t20.5 -30t29 -20t33 -7q18 0 34.5 7t28.5 19t19.5 28t7.5 34q0 16 -7.5 32t-19.5 29
q-12 12 -28 19.5t-33 7.5h-50v70h50q28 2 50 23t22 49q0 14 -6 27t-16 23q-11 10 -24 16t-28 6q-26 0 -48 -20t-25 -49h-78q2 29 15 55t34 45q20 19 46.5 30t55.5 11q32 0 59.5 -12t48.5 -31q20 -20 31.5 -46.5t11.5 -54.5zM475 826q91 0 172 -37.5t142 -101.5t96 -149
t35 -180q0 -96 -35.5 -181.5t-96.5 -149.5q-61 -63 -141.5 -100t-171.5 -37t-172 36.5t-142 99.5q-61 64 -96.5 149.5t-35.5 182.5q0 96 35 181t96 149t142 101t173 37zM475 737q-74 0 -139.5 -30t-113.5 -81q-49 -52 -77.5 -121t-28.5 -147t28 -147t77 -120
q48 -52 113.5 -82t140.5 -30q78 0 143.5 28.5t113.5 79.5q48 50 74.5 119.5t26.5 151.5q0 75 -27 143.5t-74 121.5q-48 52 -113.5 83t-143.5 31zM357 602v-505h-74v444h-54v61h128z" />
    <glyph glyph-name="uni246D" unicode="&#x246d;" horiz-adv-x="950" 
d="M397 277q57 86 113 171t113 171h54v-339h62v-72h-62v-112h-75v112h-205v69zM602 280v179q-30 -45 -59 -89.5t-58 -89.5h117zM475 826q91 0 172 -37.5t142 -101.5t96 -149t35 -180q0 -96 -35.5 -181.5t-96.5 -149.5q-61 -63 -141.5 -100t-171.5 -37t-172 36.5t-142 99.5
q-61 64 -96.5 149.5t-35.5 182.5q0 96 35 181t96 149t142 101t173 37zM475 737q-74 0 -139.5 -30t-113.5 -81q-49 -52 -77.5 -121t-28.5 -147t28 -147t77 -120q48 -52 113.5 -82t140.5 -30q78 0 143.5 28.5t113.5 79.5q48 50 74.5 119.5t26.5 151.5q0 75 -27 143.5
t-74 121.5q-48 52 -113.5 83t-143.5 31zM357 602v-505h-74v444h-54v61h128z" />
    <glyph glyph-name="uni246E" unicode="&#x246e;" horiz-adv-x="950" 
d="M703 607v-70h-191q-4 -32 -7 -62t-7 -62q14 8 34 13.5t38 5.5q34 0 62.5 -14.5t49.5 -38.5q20 -25 31.5 -57t11.5 -67q0 -36 -13 -68t-35 -56q-22 -25 -52 -39.5t-64 -14.5q-31 0 -58 11.5t-48 32.5q-22 21 -36.5 49.5t-18.5 62.5h75q8 -39 31.5 -62.5t54.5 -23.5
q18 0 34.5 9t28.5 24t19 34.5t7 40.5t-6.5 40t-18.5 34q-12 14 -28.5 23t-36.5 9q-17 0 -38 -11t-34 -29h-76q8 72 14.5 143t14.5 143h262zM475 826q91 0 172 -37.5t142 -101.5t96 -149t35 -180q0 -96 -35.5 -181.5t-96.5 -149.5q-61 -63 -141.5 -100t-171.5 -37t-172 36.5
t-142 99.5q-61 64 -96.5 149.5t-35.5 182.5q0 96 35 181t96 149t142 101t173 37zM475 737q-74 0 -139.5 -30t-113.5 -81q-49 -52 -77.5 -121t-28.5 -147t28 -147t77 -120q48 -52 113.5 -82t140.5 -30q78 0 143.5 28.5t113.5 79.5q48 50 74.5 119.5t26.5 151.5
q0 75 -27 143.5t-74 121.5q-48 52 -113.5 83t-143.5 31zM357 602v-505h-74v444h-54v61h128z" />
    <glyph glyph-name="uni2474" unicode="&#x2474;" horiz-adv-x="950" 
d="M113 358q0 -54 7 -103t23 -96q15 -48 39 -95t59 -97h-69q-36 48 -63.5 93.5t-45.5 92.5q-19 46 -28.5 96.5t-9.5 108.5q0 59 9.5 111t28.5 100q18 47 45.5 91.5t63.5 88.5h69q-36 -50 -60.5 -97.5t-39.5 -95.5t-21.5 -97t-6.5 -101zM836 358q0 52 -6.5 101.5t-21.5 97.5
q-15 47 -39.5 94.5t-60.5 97.5h69q37 -48 64.5 -93.5t45.5 -92.5t27 -97.5t9 -107.5q0 -60 -9.5 -112t-27.5 -99q-19 -48 -46.5 -92t-62.5 -88h-69q35 51 59.5 98t39.5 95q15 47 22 95.5t7 102.5zM529 635v-571h-82v505h-59v66h141z" />
    <glyph glyph-name="uni2475" unicode="&#x2475;" horiz-adv-x="950" 
d="M467 668q42 0 76 -15.5t59 -40.5q24 -26 37.5 -59t13.5 -69q0 -54 -29.5 -101.5t-81.5 -74.5q-32 -19 -59 -39t-47 -39q-20 -20 -32 -38t-12 -33h272v-77h-389q0 34 8.5 69.5t31.5 71.5q22 36 62.5 71.5t103.5 70.5q4 2 6.5 4t5.5 4q35 23 52 51.5t17 57.5
q0 20 -7.5 38.5t-20.5 33.5q-13 14 -30.5 22.5t-36.5 8.5t-36 -8t-29 -22q-13 -14 -20.5 -33t-7.5 -42h-95q0 37 15 71t41 60q25 26 59 41.5t73 15.5zM113 358q0 -54 7 -103t23 -96q15 -48 39 -95t59 -97h-69q-36 48 -63.5 93.5t-45.5 92.5q-19 46 -28.5 96.5t-9.5 108.5
q0 59 9.5 111t28.5 100q18 47 45.5 91.5t63.5 88.5h69q-36 -50 -60.5 -97.5t-39.5 -95.5t-21.5 -97t-6.5 -101zM836 358q0 52 -6.5 101.5t-21.5 97.5q-15 47 -39.5 94.5t-60.5 97.5h69q37 -48 64.5 -93.5t45.5 -92.5t27 -97.5t9 -107.5q0 -60 -9.5 -112t-27.5 -99
q-19 -48 -46.5 -92t-62.5 -88h-69q35 51 59.5 98t39.5 95q15 47 22 95.5t7 102.5z" />
    <glyph glyph-name="uni2476" unicode="&#x2476;" horiz-adv-x="950" 
d="M647 486q0 -31 -15.5 -64t-44.5 -53q36 -23 57.5 -61t21.5 -77q0 -36 -16 -68t-43 -56q-27 -25 -63.5 -39.5t-78.5 -14.5t-78.5 14t-63.5 39q-27 24 -43 58t-16 74h93q0 -23 9.5 -42.5t24.5 -33.5q15 -15 34.5 -23t39.5 -8q21 0 40.5 8t34.5 22t23.5 32t8.5 38
q0 18 -8.5 35.5t-22.5 31.5q-15 13 -34 21.5t-40 8.5h-61v78h61q17 1 32.5 7.5t27.5 17.5t19.5 25.5t7.5 29.5q0 16 -7.5 30.5t-19.5 25.5q-13 11 -29 17.5t-33 6.5q-15 0 -30 -6t-27 -16q-13 -11 -21 -25t-10 -30h-95q2 33 17.5 61.5t40.5 49.5t57 33.5t68 12.5
q38 0 71.5 -13t58.5 -35q24 -23 38 -52t14 -60zM113 358q0 -54 7 -103t23 -96q15 -48 39 -95t59 -97h-69q-36 48 -63.5 93.5t-45.5 92.5q-19 46 -28.5 96.5t-9.5 108.5q0 59 9.5 111t28.5 100q18 47 45.5 91.5t63.5 88.5h69q-36 -50 -60.5 -97.5t-39.5 -95.5t-21.5 -97
t-6.5 -101zM836 358q0 52 -6.5 101.5t-21.5 97.5q-15 47 -39.5 94.5t-60.5 97.5h69q37 -48 64.5 -93.5t45.5 -92.5t27 -97.5t9 -107.5q0 -60 -9.5 -112t-27.5 -99q-19 -48 -46.5 -92t-62.5 -88h-69q35 51 59.5 98t39.5 95q15 47 22 95.5t7 102.5z" />
    <glyph glyph-name="uni2477" unicode="&#x2477;" horiz-adv-x="950" 
d="M231 270q69 95 137 190t137 190h66v-377h75v-79h-75v-125h-93v125h-247v76zM478 273v199q-35 -51 -69.5 -100t-69.5 -99h139zM113 358q0 -54 7 -103t23 -96q15 -48 39 -95t59 -97h-69q-36 48 -63.5 93.5t-45.5 92.5q-19 46 -28.5 96.5t-9.5 108.5q0 59 9.5 111t28.5 100
q18 47 45.5 91.5t63.5 88.5h69q-36 -50 -60.5 -97.5t-39.5 -95.5t-21.5 -97t-6.5 -101zM836 358q0 52 -6.5 101.5t-21.5 97.5q-15 47 -39.5 94.5t-60.5 97.5h69q37 -48 64.5 -93.5t45.5 -92.5t27 -97.5t9 -107.5q0 -60 -9.5 -112t-27.5 -99q-19 -48 -46.5 -92t-62.5 -88h-69
q35 51 59.5 98t39.5 95q15 47 22 95.5t7 102.5z" />
    <glyph glyph-name="uni2478" unicode="&#x2478;" horiz-adv-x="950" 
d="M635 641v-78h-231q-5 -35 -8.5 -69.5t-7.5 -69.5q17 10 40.5 16t45.5 6q41 0 75.5 -16t59.5 -43t39 -63t14 -75t-15.5 -75t-42.5 -63t-63 -43t-78 -16q-37 0 -70 12.5t-59 35.5q-27 23 -44 55t-23 70h93q9 -44 37.5 -69.5t65.5 -25.5q22 0 41.5 10t34.5 27
q14 16 22.5 37.5t8.5 44.5t-7.5 44.5t-21.5 38.5q-15 16 -35 25.5t-44 9.5q-22 0 -47 -12t-40 -32h-93l36 318h317zM113 358q0 -54 7 -103t23 -96q15 -48 39 -95t59 -97h-69q-36 48 -63.5 93.5t-45.5 92.5q-19 46 -28.5 96.5t-9.5 108.5q0 59 9.5 111t28.5 100
q18 47 45.5 91.5t63.5 88.5h69q-36 -50 -60.5 -97.5t-39.5 -95.5t-21.5 -97t-6.5 -101zM836 358q0 52 -6.5 101.5t-21.5 97.5q-15 47 -39.5 94.5t-60.5 97.5h69q37 -48 64.5 -93.5t45.5 -92.5t27 -97.5t9 -107.5q0 -60 -9.5 -112t-27.5 -99q-19 -48 -46.5 -92t-62.5 -88h-69
q35 51 59.5 98t39.5 95q15 47 22 95.5t7 102.5z" />
    <glyph glyph-name="uni2479" unicode="&#x2479;" horiz-adv-x="950" 
d="M477 432q40 0 76 -15t63 -41t42.5 -61t15.5 -74t-15.5 -73.5t-42.5 -59.5q-27 -26 -63 -41t-76 -15q-42 0 -80 14t-66 48q-29 34 -46 90t-17 139q0 64 13.5 119t40.5 96q26 40 66.5 62.5t94.5 22.5q42 0 75 -13.5t56 -35.5q23 -23 36 -51.5t15 -59.5h-86q-2 15 -10 29.5
t-21 26.5q-14 12 -31 19.5t-36 7.5q-26 0 -48.5 -14.5t-39.5 -39.5q-17 -26 -27.5 -61t-11.5 -77q10 15 25.5 26t32.5 18t34 10.5t31 3.5zM477 129q21 0 40.5 9t33.5 24t22.5 35.5t8.5 43.5t-8.5 43.5t-22.5 35.5t-33.5 24t-40.5 9t-40.5 -8.5t-33.5 -23.5t-22.5 -35.5
t-8.5 -44.5q0 -23 8 -43.5t23 -35.5q14 -15 33 -24t41 -9zM113 358q0 -54 7 -103t23 -96q15 -48 39 -95t59 -97h-69q-36 48 -63.5 93.5t-45.5 92.5q-19 46 -28.5 96.5t-9.5 108.5q0 59 9.5 111t28.5 100q18 47 45.5 91.5t63.5 88.5h69q-36 -50 -60.5 -97.5t-39.5 -95.5
t-21.5 -97t-6.5 -101zM836 358q0 52 -6.5 101.5t-21.5 97.5q-15 47 -39.5 94.5t-60.5 97.5h69q37 -48 64.5 -93.5t45.5 -92.5t27 -97.5t9 -107.5q0 -60 -9.5 -112t-27.5 -99q-19 -48 -46.5 -92t-62.5 -88h-69q35 51 59.5 98t39.5 95q15 47 22 95.5t7 102.5z" />
    <glyph glyph-name="uni247A" unicode="&#x247a;" horiz-adv-x="950" 
d="M663 612v-165q-44 -39 -81 -88.5t-63 -104.5t-40.5 -111.5t-14.5 -110.5h-92q0 50 15.5 112.5t43.5 124.5q27 61 64.5 116t82.5 91v58h-293v78h378zM113 358q0 -54 7 -103t23 -96q15 -48 39 -95t59 -97h-69q-36 48 -63.5 93.5t-45.5 92.5q-19 46 -28.5 96.5t-9.5 108.5
q0 59 9.5 111t28.5 100q18 47 45.5 91.5t63.5 88.5h69q-36 -50 -60.5 -97.5t-39.5 -95.5t-21.5 -97t-6.5 -101zM836 358q0 52 -6.5 101.5t-21.5 97.5q-15 47 -39.5 94.5t-60.5 97.5h69q37 -48 64.5 -93.5t45.5 -92.5t27 -97.5t9 -107.5q0 -60 -9.5 -112t-27.5 -99
q-19 -48 -46.5 -92t-62.5 -88h-69q35 51 59.5 98t39.5 95q15 47 22 95.5t7 102.5z" />
    <glyph glyph-name="uni247B" unicode="&#x247b;" horiz-adv-x="950" 
d="M273 239q0 40 21.5 77t55.5 61q-29 20 -44.5 53t-15.5 64q0 32 14 61t39 51t58.5 35t71.5 13t71.5 -13t58.5 -35q24 -22 38.5 -51t14.5 -61q0 -31 -16 -64t-45 -53q35 -23 56.5 -60.5t21.5 -77.5q0 -36 -16 -68.5t-43 -56.5q-27 -25 -63.5 -39t-77.5 -14q-42 0 -78.5 14
t-63.5 39q-27 24 -42.5 56.5t-15.5 68.5zM580 239q0 18 -8.5 35.5t-22.5 31.5q-15 13 -34 21.5t-40 8.5t-40.5 -8.5t-34.5 -21.5q-16 -14 -25 -31.5t-9 -35.5q0 -20 8.5 -38t23.5 -31q15 -14 34.5 -22t40.5 -8t40.5 8t34.5 22q14 13 23 31t9 38zM563 494q0 16 -7.5 30.5
t-19.5 26.5q-13 11 -29.5 17.5t-33.5 6.5t-33.5 -6.5t-28.5 -17.5q-13 -12 -20.5 -26.5t-7.5 -30.5t8 -30t21 -24q13 -11 29.5 -17.5t33.5 -7.5q17 1 33 7.5t28 17.5q12 10 19.5 24t7.5 30zM113 358q0 -54 7 -103t23 -96q15 -48 39 -95t59 -97h-69q-36 48 -63.5 93.5
t-45.5 92.5q-19 46 -28.5 96.5t-9.5 108.5q0 59 9.5 111t28.5 100q18 47 45.5 91.5t63.5 88.5h69q-36 -50 -60.5 -97.5t-39.5 -95.5t-21.5 -97t-6.5 -101zM836 358q0 52 -6.5 101.5t-21.5 97.5q-15 47 -39.5 94.5t-60.5 97.5h69q37 -48 64.5 -93.5t45.5 -92.5t27 -97.5
t9 -107.5q0 -60 -9.5 -112t-27.5 -99q-19 -48 -46.5 -92t-62.5 -88h-69q35 51 59.5 98t39.5 95q15 47 22 95.5t7 102.5z" />
    <glyph glyph-name="uni247C" unicode="&#x247c;" horiz-adv-x="950" 
d="M476 264q-41 0 -77 14.5t-63 41.5q-27 26 -42.5 61.5t-15.5 77.5t15.5 77.5t42.5 61.5t63 41t77 15q42 0 79.5 -14t66.5 -46q28 -33 45 -87t17 -135q0 -65 -12.5 -121.5t-37.5 -98.5q-26 -42 -65 -66t-93 -24q-42 0 -75 13.5t-56 35.5t-36.5 51t-14.5 60h86
q1 -15 9.5 -30t21.5 -27t30 -19.5t37 -7.5q26 0 47.5 14t37.5 39q15 24 24.5 57.5t11.5 73.5q-22 -29 -58.5 -43.5t-64.5 -14.5zM476 575q-44 0 -74.5 -32.5t-30.5 -83.5q0 -26 8 -47t23 -36q14 -16 33 -24.5t41 -8.5q21 0 40.5 9t34.5 25q14 16 22.5 37t8.5 45t-8 45
t-22 37q-15 15 -34.5 24.5t-41.5 9.5zM113 358q0 -54 7 -103t23 -96q15 -48 39 -95t59 -97h-69q-36 48 -63.5 93.5t-45.5 92.5q-19 46 -28.5 96.5t-9.5 108.5q0 59 9.5 111t28.5 100q18 47 45.5 91.5t63.5 88.5h69q-36 -50 -60.5 -97.5t-39.5 -95.5t-21.5 -97t-6.5 -101z
M836 358q0 52 -6.5 101.5t-21.5 97.5q-15 47 -39.5 94.5t-60.5 97.5h69q37 -48 64.5 -93.5t45.5 -92.5t27 -97.5t9 -107.5q0 -60 -9.5 -112t-27.5 -99q-19 -48 -46.5 -92t-62.5 -88h-69q35 51 59.5 98t39.5 95q15 47 22 95.5t7 102.5z" />
    <glyph glyph-name="uni247D" unicode="&#x247d;" horiz-adv-x="950" 
d="M582 638q42 0 75 -21.5t56 -59.5q22 -38 34 -91.5t12 -117.5q0 -65 -12 -118t-34 -91q-23 -39 -56 -60t-75 -21t-75 21t-55 60q-23 38 -35 91t-12 118q0 64 12 117.5t35 91.5q22 38 55 59.5t75 21.5zM582 133q20 0 39 15t34 43t24 67.5t9 89.5q0 49 -9 88.5t-24 67.5
q-15 27 -34 42t-39 15t-39 -15t-34 -42q-15 -28 -24 -67.5t-9 -88.5q0 -50 9 -89.5t24 -67.5t34 -43t39 -15zM357 632v-575h-74v514h-54v61h128zM113 358q0 -54 7 -103t23 -96q15 -48 39 -95t59 -97h-69q-36 48 -63.5 93.5t-45.5 92.5q-19 46 -28.5 96.5t-9.5 108.5
q0 59 9.5 111t28.5 100q18 47 45.5 91.5t63.5 88.5h69q-36 -50 -60.5 -97.5t-39.5 -95.5t-21.5 -97t-6.5 -101zM836 358q0 52 -6.5 101.5t-21.5 97.5q-15 47 -39.5 94.5t-60.5 97.5h69q37 -48 64.5 -93.5t45.5 -92.5t27 -97.5t9 -107.5q0 -60 -9.5 -112t-27.5 -99
q-19 -48 -46.5 -92t-62.5 -88h-69q35 51 59.5 98t39.5 95q15 47 22 95.5t7 102.5z" />
    <glyph glyph-name="uni247E" unicode="&#x247e;" horiz-adv-x="950" 
d="M402 635v-571h-82v505h-59v66h141zM654 635v-571h-82v505h-59v66h141zM113 358q0 -54 7 -103t23 -96q15 -48 39 -95t59 -97h-69q-36 48 -63.5 93.5t-45.5 92.5q-19 46 -28.5 96.5t-9.5 108.5q0 59 9.5 111t28.5 100q18 47 45.5 91.5t63.5 88.5h69q-36 -50 -60.5 -97.5
t-39.5 -95.5t-21.5 -97t-6.5 -101zM836 358q0 52 -6.5 101.5t-21.5 97.5q-15 47 -39.5 94.5t-60.5 97.5h69q37 -48 64.5 -93.5t45.5 -92.5t27 -97.5t9 -107.5q0 -60 -9.5 -112t-27.5 -99q-19 -48 -46.5 -92t-62.5 -88h-69q35 51 59.5 98t39.5 95q15 47 22 95.5t7 102.5z" />
    <glyph glyph-name="uni247F" unicode="&#x247f;" horiz-adv-x="950" 
d="M356 630v-561h-81v495h-58v66h139zM563 649q38 0 69 -15t53 -40t34 -57.5t12 -67.5q0 -54 -26.5 -99.5t-72.5 -73.5q-29 -19 -53.5 -39t-42.5 -38q-18 -19 -29 -36.5t-11 -32.5h245v-76h-350q0 34 7.5 68.5t28.5 70.5q20 35 56.5 70t93.5 70q18 9 32 22.5t23 29.5
t13.5 32t4.5 30q0 20 -6.5 38t-18.5 32t-28 22t-34 8q-34 0 -58.5 -28.5t-24.5 -73.5h-85q0 36 13.5 69t36.5 59q23 25 53.5 40.5t64.5 15.5zM113 358q0 -54 7 -103t23 -96q15 -48 39 -95t59 -97h-69q-36 48 -63.5 93.5t-45.5 92.5q-19 46 -28.5 96.5t-9.5 108.5
q0 59 9.5 111t28.5 100q18 47 45.5 91.5t63.5 88.5h69q-36 -50 -60.5 -97.5t-39.5 -95.5t-21.5 -97t-6.5 -101zM836 358q0 52 -6.5 101.5t-21.5 97.5q-15 47 -39.5 94.5t-60.5 97.5h69q37 -48 64.5 -93.5t45.5 -92.5t27 -97.5t9 -107.5q0 -60 -9.5 -112t-27.5 -99
q-19 -48 -46.5 -92t-62.5 -88h-69q35 51 59.5 98t39.5 95q15 47 22 95.5t7 102.5z" />
    <glyph glyph-name="uni2480" unicode="&#x2480;" horiz-adv-x="950" 
d="M356 630v-561h-81v495h-58v66h139zM738 483q0 -29 -14.5 -61.5t-40.5 -52.5q33 -23 52 -60.5t19 -75.5q0 -35 -14 -67t-38 -56q-25 -24 -58 -38t-70 -14q-38 0 -70.5 14t-57.5 39q-25 24 -39 57t-14 72h83q0 -22 8.5 -41t22.5 -33q13 -14 30.5 -22t36.5 -8t36.5 8
t30.5 21t21 30.5t8 37.5q0 17 -8 34t-21 31q-13 13 -30 21.5t-35 8.5h-56v77h56q15 1 29 7.5t25 17.5t17.5 24.5t6.5 28.5t-7 29.5t-18 25.5t-25.5 17.5t-30.5 6.5q-14 0 -27 -6t-24 -16q-11 -11 -18.5 -24.5t-9.5 -29.5h-86q2 32 16 60.5t37 49.5q22 21 51 33t61 12
q35 0 65 -13t53 -35q22 -22 34.5 -50.5t12.5 -59.5zM113 358q0 -54 7 -103t23 -96q15 -48 39 -95t59 -97h-69q-36 48 -63.5 93.5t-45.5 92.5q-19 46 -28.5 96.5t-9.5 108.5q0 59 9.5 111t28.5 100q18 47 45.5 91.5t63.5 88.5h69q-36 -50 -60.5 -97.5t-39.5 -95.5t-21.5 -97
t-6.5 -101zM836 358q0 52 -6.5 101.5t-21.5 97.5q-15 47 -39.5 94.5t-60.5 97.5h69q37 -48 64.5 -93.5t45.5 -92.5t27 -97.5t9 -107.5q0 -60 -9.5 -112t-27.5 -99q-19 -48 -46.5 -92t-62.5 -88h-69q35 51 59.5 98t39.5 95q15 47 22 95.5t7 102.5z" />
    <glyph glyph-name="uni2481" unicode="&#x2481;" horiz-adv-x="950" 
d="M356 630v-561h-81v495h-58v66h139zM389 270q61 94 122.5 187t123.5 187h60v-371h67v-78h-67v-123h-84v123h-222v75zM611 273v193q-32 -48 -63 -96.5t-62 -96.5h125zM113 358q0 -54 7 -103t23 -96q15 -48 39 -95t59 -97h-69q-36 48 -63.5 93.5t-45.5 92.5
q-19 46 -28.5 96.5t-9.5 108.5q0 59 9.5 111t28.5 100q18 47 45.5 91.5t63.5 88.5h69q-36 -50 -60.5 -97.5t-39.5 -95.5t-21.5 -97t-6.5 -101zM836 358q0 52 -6.5 101.5t-21.5 97.5q-15 47 -39.5 94.5t-60.5 97.5h69q37 -48 64.5 -93.5t45.5 -92.5t27 -97.5t9 -107.5
q0 -60 -9.5 -112t-27.5 -99q-19 -48 -46.5 -92t-62.5 -88h-69q35 51 59.5 98t39.5 95q15 47 22 95.5t7 102.5z" />
    <glyph glyph-name="uni2482" unicode="&#x2482;" horiz-adv-x="950" 
d="M356 630v-561h-81v495h-58v66h139zM723 632v-78h-208q-4 -33 -7 -67t-7 -68q15 10 36.5 15.5t41.5 5.5q37 0 67.5 -15.5t53.5 -42.5q22 -27 34.5 -62t12.5 -74t-14 -74t-38 -61q-24 -27 -56.5 -42.5t-69.5 -15.5q-34 0 -64 12.5t-53 35.5q-23 22 -39 53t-21 69h83
q8 -43 34 -68t60 -25q20 0 37.5 9.5t30.5 26.5q12 16 19.5 36.5t7.5 43.5t-7 44t-19 37q-13 16 -30.5 25.5t-39.5 9.5q-20 0 -42.5 -11.5t-36.5 -31.5h-84q8 78 16.5 156t16.5 157h285zM113 358q0 -54 7 -103t23 -96q15 -48 39 -95t59 -97h-69q-36 48 -63.5 93.5t-45.5 92.5
q-19 46 -28.5 96.5t-9.5 108.5q0 59 9.5 111t28.5 100q18 47 45.5 91.5t63.5 88.5h69q-36 -50 -60.5 -97.5t-39.5 -95.5t-21.5 -97t-6.5 -101zM836 358q0 52 -6.5 101.5t-21.5 97.5q-15 47 -39.5 94.5t-60.5 97.5h69q37 -48 64.5 -93.5t45.5 -92.5t27 -97.5t9 -107.5
q0 -60 -9.5 -112t-27.5 -99q-19 -48 -46.5 -92t-62.5 -88h-69q35 51 59.5 98t39.5 95q15 47 22 95.5t7 102.5z" />
    <glyph glyph-name="uni249C" unicode="&#x249c;" horiz-adv-x="950" 
d="M462 108q-45 0 -88 17t-76 48q-34 31 -55 73t-21 92q0 47 19.5 89t52.5 74q33 31 76.5 49.5t91.5 18.5q18 0 38 -4.5t39 -11.5q19 -8 36 -18.5t29 -21.5v54h98v-452h-98v47q-24 -25 -64 -39.5t-78 -14.5zM462 488q-29 0 -55.5 -11t-46.5 -30q-20 -20 -31.5 -47.5
t-11.5 -61.5t11.5 -61.5t31.5 -46.5q20 -20 46.5 -30.5t55.5 -10.5t55.5 10.5t46.5 30.5q20 19 31.5 46.5t11.5 61.5q0 35 -12 62.5t-32 47.5q-21 19 -47 29.5t-54 10.5zM113 358q0 -54 7 -103t23 -96q15 -48 39 -95t59 -97h-69q-36 48 -63.5 93.5t-45.5 92.5
q-19 46 -28.5 96.5t-9.5 108.5q0 59 9.5 111t28.5 100q18 47 45.5 91.5t63.5 88.5h69q-36 -50 -60.5 -97.5t-39.5 -95.5t-21.5 -97t-6.5 -101zM836 358q0 52 -6.5 101.5t-21.5 97.5q-15 47 -39.5 94.5t-60.5 97.5h69q37 -48 64.5 -93.5t45.5 -92.5t27 -97.5t9 -107.5
q0 -60 -9.5 -112t-27.5 -99q-19 -48 -46.5 -92t-62.5 -88h-69q35 51 59.5 98t39.5 95q15 47 22 95.5t7 102.5z" />
    <glyph glyph-name="uni249D" unicode="&#x249d;" horiz-adv-x="950" 
d="M504 21q-38 0 -77.5 15t-64.5 39v-47h-98v702h98v-304q12 11 29 21t36 18q19 7 39 11.5t38 4.5q48 0 91.5 -18t76.5 -49q33 -32 52.5 -74t19.5 -90q0 -50 -20.5 -92t-54.5 -72q-34 -31 -77 -48t-88 -17zM504 401q-28 0 -54 -10.5t-46 -29.5q-21 -20 -33 -48t-12 -63
q0 -34 11.5 -61.5t31.5 -46.5q20 -20 46.5 -30.5t55.5 -10.5t55.5 10.5t46.5 30.5q20 19 31.5 46.5t11.5 61.5t-11.5 61.5t-31.5 47.5t-46.5 31t-55.5 11zM113 358q0 -54 7 -103t23 -96q15 -48 39 -95t59 -97h-69q-36 48 -63.5 93.5t-45.5 92.5q-19 46 -28.5 96.5
t-9.5 108.5q0 59 9.5 111t28.5 100q18 47 45.5 91.5t63.5 88.5h69q-36 -50 -60.5 -97.5t-39.5 -95.5t-21.5 -97t-6.5 -101zM836 358q0 52 -6.5 101.5t-21.5 97.5q-15 47 -39.5 94.5t-60.5 97.5h69q37 -48 64.5 -93.5t45.5 -92.5t27 -97.5t9 -107.5q0 -60 -9.5 -112
t-27.5 -99q-19 -48 -46.5 -92t-62.5 -88h-69q35 51 59.5 98t39.5 95q15 47 22 95.5t7 102.5z" />
    <glyph glyph-name="uni249E" unicode="&#x249e;" horiz-adv-x="950" 
d="M615 242q16 -14 31.5 -29t31.5 -29q-31 -42 -81 -63.5t-100 -21.5q-49 0 -92.5 18t-75.5 49q-33 31 -52 73.5t-19 90.5q0 46 17.5 88t49.5 75q32 32 75.5 51t96.5 19q50 0 96 -22t81 -59q-16 -14 -31.5 -28t-32.5 -28q-21 26 -48.5 41.5t-64.5 15.5q-29 0 -55 -12
t-46 -33t-31.5 -49t-11.5 -59t11.5 -58t31.5 -47q20 -21 46 -33t55 -12q38 0 67.5 16.5t50.5 45.5zM113 358q0 -54 7 -103t23 -96q15 -48 39 -95t59 -97h-69q-36 48 -63.5 93.5t-45.5 92.5q-19 46 -28.5 96.5t-9.5 108.5q0 59 9.5 111t28.5 100q18 47 45.5 91.5t63.5 88.5
h69q-36 -50 -60.5 -97.5t-39.5 -95.5t-21.5 -97t-6.5 -101zM836 358q0 52 -6.5 101.5t-21.5 97.5q-15 47 -39.5 94.5t-60.5 97.5h69q37 -48 64.5 -93.5t45.5 -92.5t27 -97.5t9 -107.5q0 -60 -9.5 -112t-27.5 -99q-19 -48 -46.5 -92t-62.5 -88h-69q35 51 59.5 98t39.5 95
q15 47 22 95.5t7 102.5z" />
    <glyph glyph-name="uni249F" unicode="&#x249f;" horiz-adv-x="950" 
d="M443 51q-45 0 -87.5 17t-76.5 48q-34 30 -54.5 72t-20.5 92q0 48 19.5 90t52.5 74q32 31 75.5 49t91.5 18q18 0 38 -4.5t40 -11.5q19 -8 36 -18t29 -21v304h98v-702h-98v47q-25 -25 -64.5 -39.5t-78.5 -14.5zM443 431q-29 0 -55 -11t-46 -31t-31.5 -47.5t-11.5 -61.5
t11.5 -61.5t31.5 -46.5q20 -20 46 -30.5t55 -10.5q30 0 56.5 10.5t46.5 30.5q20 19 31.5 46.5t11.5 61.5q-1 35 -13 63t-32 48q-20 19 -46 29.5t-55 10.5zM113 358q0 -54 7 -103t23 -96q15 -48 39 -95t59 -97h-69q-36 48 -63.5 93.5t-45.5 92.5q-19 46 -28.5 96.5
t-9.5 108.5q0 59 9.5 111t28.5 100q18 47 45.5 91.5t63.5 88.5h69q-36 -50 -60.5 -97.5t-39.5 -95.5t-21.5 -97t-6.5 -101zM836 358q0 52 -6.5 101.5t-21.5 97.5q-15 47 -39.5 94.5t-60.5 97.5h69q37 -48 64.5 -93.5t45.5 -92.5t27 -97.5t9 -107.5q0 -60 -9.5 -112
t-27.5 -99q-19 -48 -46.5 -92t-62.5 -88h-69q35 51 59.5 98t39.5 95q15 47 22 95.5t7 102.5z" />
    <glyph glyph-name="uni24A0" unicode="&#x24a0;" horiz-adv-x="950" 
d="M472 567q55 0 97 -20t70 -55q28 -36 42 -83.5t14 -102.5h-346q0 -23 11.5 -44t30.5 -38t44 -27t52 -10q34 0 71.5 16.5t63.5 51.5l30 -28t29 -28q-36 -42 -85.5 -67.5t-108.5 -25.5q-45 0 -88 17t-76 48q-33 30 -53.5 73t-20.5 94q0 46 15 87.5t44 73.5q28 31 69.5 49.5
t94.5 18.5zM592 386q0 20 -10 38t-26 32q-17 14 -39 22t-45 8q-25 0 -47 -7.5t-39 -20.5q-17 -14 -27 -32.5t-10 -39.5h243zM113 358q0 -54 7 -103t23 -96q15 -48 39 -95t59 -97h-69q-36 48 -63.5 93.5t-45.5 92.5q-19 46 -28.5 96.5t-9.5 108.5q0 59 9.5 111t28.5 100
q18 47 45.5 91.5t63.5 88.5h69q-36 -50 -60.5 -97.5t-39.5 -95.5t-21.5 -97t-6.5 -101zM836 358q0 52 -6.5 101.5t-21.5 97.5q-15 47 -39.5 94.5t-60.5 97.5h69q37 -48 64.5 -93.5t45.5 -92.5t27 -97.5t9 -107.5q0 -60 -9.5 -112t-27.5 -99q-19 -48 -46.5 -92t-62.5 -88h-69
q35 51 59.5 98t39.5 95q15 47 22 95.5t7 102.5z" />
    <glyph glyph-name="uni24A1" unicode="&#x24a1;" horiz-adv-x="950" 
d="M455 447h123v-79h-123v-345h-96v345h-65v79h65v82q0 39 13.5 71.5t37.5 55.5q23 23 55.5 36t70.5 13q40 0 73.5 -18.5t56.5 -46.5l-69 -48q-10 16 -26.5 24.5t-34.5 8.5q-37 0 -59 -24.5t-22 -71.5v-82zM113 358q0 -54 7 -103t23 -96q15 -48 39 -95t59 -97h-69
q-36 48 -63.5 93.5t-45.5 92.5q-19 46 -28.5 96.5t-9.5 108.5q0 59 9.5 111t28.5 100q18 47 45.5 91.5t63.5 88.5h69q-36 -50 -60.5 -97.5t-39.5 -95.5t-21.5 -97t-6.5 -101zM836 358q0 52 -6.5 101.5t-21.5 97.5q-15 47 -39.5 94.5t-60.5 97.5h69q37 -48 64.5 -93.5
t45.5 -92.5t27 -97.5t9 -107.5q0 -60 -9.5 -112t-27.5 -99q-19 -48 -46.5 -92t-62.5 -88h-69q35 51 59.5 98t39.5 95q15 47 22 95.5t7 102.5z" />
    <glyph glyph-name="uni24A2" unicode="&#x24a2;" horiz-adv-x="950" 
d="M453 110q-45 0 -87.5 17.5t-76.5 48.5q-34 30 -54.5 72.5t-20.5 92.5q0 47 19.5 89t52.5 74q32 31 75.5 49.5t91.5 18.5q18 0 38 -4.5t40 -11.5q19 -8 36 -18t29 -21v52h98v-422q-1 -51 -20 -92t-52 -70q-33 -28 -78 -43t-97 -15q-62 0 -111.5 25t-87.5 67
q15 15 30.5 29.5t31.5 28.5q26 -27 61.5 -48t75.5 -21q31 0 58 8t47 25q20 18 32 44t12 62v18q-25 -25 -64.5 -40t-78.5 -15zM453 492q-29 0 -55 -11t-46 -31t-31.5 -47.5t-11.5 -61.5t11.5 -61.5t31.5 -46.5q20 -20 46 -30.5t55 -10.5q30 0 56.5 10.5t46.5 30.5
q20 19 31.5 46.5t11.5 61.5q-1 35 -13 63t-32 48q-20 19 -46 29.5t-55 10.5zM113 358q0 -54 7 -103t23 -96q15 -48 39 -95t59 -97h-69q-36 48 -63.5 93.5t-45.5 92.5q-19 46 -28.5 96.5t-9.5 108.5q0 59 9.5 111t28.5 100q18 47 45.5 91.5t63.5 88.5h69q-36 -50 -60.5 -97.5
t-39.5 -95.5t-21.5 -97t-6.5 -101zM836 358q0 52 -6.5 101.5t-21.5 97.5q-15 47 -39.5 94.5t-60.5 97.5h69q37 -48 64.5 -93.5t45.5 -92.5t27 -97.5t9 -107.5q0 -60 -9.5 -112t-27.5 -99q-19 -48 -46.5 -92t-62.5 -88h-69q35 51 59.5 98t39.5 95q15 47 22 95.5t7 102.5z" />
    <glyph glyph-name="uni24A3" unicode="&#x24a3;" horiz-adv-x="950" 
d="M701 19h-98v266q0 47 -31 77.5t-84 30.5q-21 0 -41.5 -8.5t-36.5 -23.5q-17 -15 -27 -34.5t-10 -41.5v-266h-98v702h98v-300q13 16 29.5 26.5t32.5 16.5t30.5 8.5t25.5 2.5q46 0 84.5 -14.5t66.5 -39.5q28 -26 43.5 -61t15.5 -75v-266zM113 358q0 -54 7 -103t23 -96
q15 -48 39 -95t59 -97h-69q-36 48 -63.5 93.5t-45.5 92.5q-19 46 -28.5 96.5t-9.5 108.5q0 59 9.5 111t28.5 100q18 47 45.5 91.5t63.5 88.5h69q-36 -50 -60.5 -97.5t-39.5 -95.5t-21.5 -97t-6.5 -101zM836 358q0 52 -6.5 101.5t-21.5 97.5q-15 47 -39.5 94.5t-60.5 97.5h69
q37 -48 64.5 -93.5t45.5 -92.5t27 -97.5t9 -107.5q0 -60 -9.5 -112t-27.5 -99q-19 -48 -46.5 -92t-62.5 -88h-69q35 51 59.5 98t39.5 95q15 47 22 95.5t7 102.5z" />
    <glyph glyph-name="uni24A4" unicode="&#x24a4;" horiz-adv-x="950" 
d="M416 512h98v-456h-98v456zM464 587q-26 0 -42.5 16.5t-16.5 39.5t16.5 39t42.5 16q28 0 44 -16t16 -39t-16 -39.5t-44 -16.5zM113 358q0 -54 7 -103t23 -96q15 -48 39 -95t59 -97h-69q-36 48 -63.5 93.5t-45.5 92.5q-19 46 -28.5 96.5t-9.5 108.5q0 59 9.5 111t28.5 100
q18 47 45.5 91.5t63.5 88.5h69q-36 -50 -60.5 -97.5t-39.5 -95.5t-21.5 -97t-6.5 -101zM836 358q0 52 -6.5 101.5t-21.5 97.5q-15 47 -39.5 94.5t-60.5 97.5h69q37 -48 64.5 -93.5t45.5 -92.5t27 -97.5t9 -107.5q0 -60 -9.5 -112t-27.5 -99q-19 -48 -46.5 -92t-62.5 -88h-69
q35 51 59.5 98t39.5 95q15 47 22 95.5t7 102.5z" />
    <glyph glyph-name="uni24A5" unicode="&#x24a5;" horiz-adv-x="950" 
d="M561 685q27 0 42.5 -15.5t15.5 -38.5q0 -22 -15.5 -39t-42.5 -17q-26 0 -43 17t-17 39q0 23 17 38.5t43 15.5zM607 104q0 -44 -13.5 -81t-37.5 -64q-25 -27 -60.5 -42.5t-78.5 -15.5q-17 0 -35 4.5t-34 11.5q-17 8 -31 18t-24 20q14 14 26.5 29t26.5 29q13 -13 32 -22
t32 -9q21 0 39 6t32 20q13 14 20.5 37.5t7.5 58.5v395h98v-395zM113 358q0 -54 7 -103t23 -96q15 -48 39 -95t59 -97h-69q-36 48 -63.5 93.5t-45.5 92.5q-19 46 -28.5 96.5t-9.5 108.5q0 59 9.5 111t28.5 100q18 47 45.5 91.5t63.5 88.5h69q-36 -50 -60.5 -97.5t-39.5 -95.5
t-21.5 -97t-6.5 -101zM836 358q0 52 -6.5 101.5t-21.5 97.5q-15 47 -39.5 94.5t-60.5 97.5h69q37 -48 64.5 -93.5t45.5 -92.5t27 -97.5t9 -107.5q0 -60 -9.5 -112t-27.5 -99q-19 -48 -46.5 -92t-62.5 -88h-69q35 51 59.5 98t39.5 95q15 47 22 95.5t7 102.5z" />
    <glyph glyph-name="uni24A6" unicode="&#x24a6;" horiz-adv-x="950" 
d="M364 319q44 41 86.5 81t86.5 81h121q-49 -45 -97.5 -90.5t-98.5 -90.5q58 -71 115 -141l114 -140h-113q-45 54 -88 106.5t-87 106.5q-3 -3 -9 -8.5t-12 -11.5l-21 -21q1 -44 1.5 -86.5t1.5 -85.5h-98v702h98v-402zM113 358q0 -54 7 -103t23 -96q15 -48 39 -95t59 -97h-69
q-36 48 -63.5 93.5t-45.5 92.5q-19 46 -28.5 96.5t-9.5 108.5q0 59 9.5 111t28.5 100q18 47 45.5 91.5t63.5 88.5h69q-36 -50 -60.5 -97.5t-39.5 -95.5t-21.5 -97t-6.5 -101zM836 358q0 52 -6.5 101.5t-21.5 97.5q-15 47 -39.5 94.5t-60.5 97.5h69q37 -48 64.5 -93.5
t45.5 -92.5t27 -97.5t9 -107.5q0 -60 -9.5 -112t-27.5 -99q-19 -48 -46.5 -92t-62.5 -88h-69q35 51 59.5 98t39.5 95q15 47 22 95.5t7 102.5z" />
    <glyph glyph-name="uni24A7" unicode="&#x24a7;" horiz-adv-x="950" 
d="M554 -7q-6 -1 -11 -1.5t-11 -1.5q-71 0 -104 29t-33 103v586h98v-582q0 -27 9 -41.5t30 -14.5h22v-77zM113 358q0 -54 7 -103t23 -96q15 -48 39 -95t59 -97h-69q-36 48 -63.5 93.5t-45.5 92.5q-19 46 -28.5 96.5t-9.5 108.5q0 59 9.5 111t28.5 100q18 47 45.5 91.5
t63.5 88.5h69q-36 -50 -60.5 -97.5t-39.5 -95.5t-21.5 -97t-6.5 -101zM836 358q0 52 -6.5 101.5t-21.5 97.5q-15 47 -39.5 94.5t-60.5 97.5h69q37 -48 64.5 -93.5t45.5 -92.5t27 -97.5t9 -107.5q0 -60 -9.5 -112t-27.5 -99q-19 -48 -46.5 -92t-62.5 -88h-69q35 51 59.5 98
t39.5 95q15 47 22 95.5t7 102.5z" />
    <glyph glyph-name="uni24A8" unicode="&#x24a8;" horiz-adv-x="950" 
d="M767 116h-88v267q0 47 -18 78t-58 31q-38 0 -57.5 -32t-19.5 -77v-267h-87v267q0 45 -19 77t-57 32t-56.5 -31t-18.5 -76v-269h-88v452h88v-25q16 14 33.5 21.5t41.5 7.5q41 0 70 -17.5t50 -49.5q22 31 51 49t69 18q39 0 69.5 -14.5t51.5 -39.5q21 -26 32 -60.5t11 -74.5
v-267zM113 358q0 -54 7 -103t23 -96q15 -48 39 -95t59 -97h-69q-36 48 -63.5 93.5t-45.5 92.5q-19 46 -28.5 96.5t-9.5 108.5q0 59 9.5 111t28.5 100q18 47 45.5 91.5t63.5 88.5h69q-36 -50 -60.5 -97.5t-39.5 -95.5t-21.5 -97t-6.5 -101zM836 358q0 52 -6.5 101.5
t-21.5 97.5q-15 47 -39.5 94.5t-60.5 97.5h69q37 -48 64.5 -93.5t45.5 -92.5t27 -97.5t9 -107.5q0 -60 -9.5 -112t-27.5 -99q-19 -48 -46.5 -92t-62.5 -88h-69q35 51 59.5 98t39.5 95q15 47 22 95.5t7 102.5z" />
    <glyph glyph-name="uni24A9" unicode="&#x24a9;" horiz-adv-x="950" 
d="M679 108h-98v268q0 47 -31 77t-84 30q-21 0 -41 -8.5t-36 -22.5q-17 -14 -27 -34t-10 -42v-268h-98v451h98v-48q12 15 28 25.5t33 16.5q16 6 30.5 8.5t25.5 2.5q45 0 83.5 -14.5t66.5 -39.5t44 -59.5t16 -74.5v-268zM113 358q0 -54 7 -103t23 -96q15 -48 39 -95t59 -97
h-69q-36 48 -63.5 93.5t-45.5 92.5q-19 46 -28.5 96.5t-9.5 108.5q0 59 9.5 111t28.5 100q18 47 45.5 91.5t63.5 88.5h69q-36 -50 -60.5 -97.5t-39.5 -95.5t-21.5 -97t-6.5 -101zM836 358q0 52 -6.5 101.5t-21.5 97.5q-15 47 -39.5 94.5t-60.5 97.5h69q37 -48 64.5 -93.5
t45.5 -92.5t27 -97.5t9 -107.5q0 -60 -9.5 -112t-27.5 -99q-19 -48 -46.5 -92t-62.5 -88h-69q35 51 59.5 98t39.5 95q15 47 22 95.5t7 102.5z" />
    <glyph glyph-name="uni24AA" unicode="&#x24aa;" horiz-adv-x="950" 
d="M232 347q0 46 19 88t52 74q32 31 75.5 50t93.5 19q48 0 91.5 -18t76.5 -49t52.5 -73.5t19.5 -90.5q0 -46 -19 -87.5t-51 -72.5q-33 -32 -76.5 -51t-93.5 -19q-47 0 -90.5 18t-76.5 50q-33 31 -53 72.5t-20 89.5zM327 347q0 -34 11.5 -61.5t31.5 -46.5q20 -20 46.5 -30.5
t55.5 -10.5t55.5 10.5t46.5 30.5q20 19 31.5 46.5t11.5 61.5t-11.5 62t-31.5 48q-20 19 -46.5 30t-55.5 11t-55.5 -11t-46.5 -30q-20 -20 -31.5 -48t-11.5 -62zM113 358q0 -54 7 -103t23 -96q15 -48 39 -95t59 -97h-69q-36 48 -63.5 93.5t-45.5 92.5q-19 46 -28.5 96.5
t-9.5 108.5q0 59 9.5 111t28.5 100q18 47 45.5 91.5t63.5 88.5h69q-36 -50 -60.5 -97.5t-39.5 -95.5t-21.5 -97t-6.5 -101zM836 358q0 52 -6.5 101.5t-21.5 97.5q-15 47 -39.5 94.5t-60.5 97.5h69q37 -48 64.5 -93.5t45.5 -92.5t27 -97.5t9 -107.5q0 -60 -9.5 -112
t-27.5 -99q-19 -48 -46.5 -92t-62.5 -88h-69q35 51 59.5 98t39.5 95q15 47 22 95.5t7 102.5z" />
    <glyph glyph-name="uni24AB" unicode="&#x24ab;" horiz-adv-x="950" 
d="M504 573q48 0 91.5 -18.5t76.5 -49.5q33 -32 52.5 -74t19.5 -89q0 -50 -20.5 -92.5t-53.5 -72.5q-34 -31 -77.5 -48.5t-88.5 -17.5q-20 0 -40 4.5t-39 12.5q-19 7 -35 17t-28 22v-227h-98v631h98v-53q12 12 29.5 22t36.5 18q19 7 39 11t37 4zM504 193q29 0 55.5 10.5
t46.5 30.5q20 19 31.5 46.5t11.5 61.5t-11.5 61.5t-31.5 47.5t-46.5 31t-55.5 11t-55 -10.5t-46 -29.5q-20 -20 -32 -48t-12 -63q0 -34 12 -61.5t32 -46.5q20 -20 46 -30.5t55 -10.5zM113 358q0 -54 7 -103t23 -96q15 -48 39 -95t59 -97h-69q-36 48 -63.5 93.5t-45.5 92.5
q-19 46 -28.5 96.5t-9.5 108.5q0 59 9.5 111t28.5 100q18 47 45.5 91.5t63.5 88.5h69q-36 -50 -60.5 -97.5t-39.5 -95.5t-21.5 -97t-6.5 -101zM836 358q0 52 -6.5 101.5t-21.5 97.5q-15 47 -39.5 94.5t-60.5 97.5h69q37 -48 64.5 -93.5t45.5 -92.5t27 -97.5t9 -107.5
q0 -60 -9.5 -112t-27.5 -99q-19 -48 -46.5 -92t-62.5 -88h-69q35 51 59.5 98t39.5 95q15 47 22 95.5t7 102.5z" />
    <glyph glyph-name="uni24AC" unicode="&#x24ac;" horiz-adv-x="950" 
d="M443 573q18 0 37.5 -4t39.5 -11q19 -8 36.5 -18t29.5 -22v53h98v-631h-98v227q-12 -12 -28 -22t-35 -17q-19 -8 -39.5 -12.5t-40.5 -4.5q-45 0 -88 17.5t-76 48.5q-34 30 -54.5 72.5t-20.5 92.5q0 47 19.5 89t52.5 74q33 31 76 49.5t91 18.5zM443 193q29 0 55.5 10.5
t46.5 30.5q20 19 32 46.5t12 61.5q-1 35 -13 63t-32 48q-20 19 -46 29.5t-55 10.5t-55 -11t-46 -31t-31.5 -47.5t-11.5 -61.5t11.5 -61.5t31.5 -46.5q20 -20 46 -30.5t55 -10.5zM113 358q0 -54 7 -103t23 -96q15 -48 39 -95t59 -97h-69q-36 48 -63.5 93.5t-45.5 92.5
q-19 46 -28.5 96.5t-9.5 108.5q0 59 9.5 111t28.5 100q18 47 45.5 91.5t63.5 88.5h69q-36 -50 -60.5 -97.5t-39.5 -95.5t-21.5 -97t-6.5 -101zM836 358q0 52 -6.5 101.5t-21.5 97.5q-15 47 -39.5 94.5t-60.5 97.5h69q37 -48 64.5 -93.5t45.5 -92.5t27 -97.5t9 -107.5
q0 -60 -9.5 -112t-27.5 -99q-19 -48 -46.5 -92t-62.5 -88h-69q35 51 59.5 98t39.5 95q15 47 22 95.5t7 102.5z" />
    <glyph glyph-name="uni24AD" unicode="&#x24ad;" horiz-adv-x="950" 
d="M625 466q-32 0 -60 -11t-49 -31t-33.5 -47.5t-12.5 -60.5v-228h-98v453h98v-77q28 42 68.5 62.5t86.5 20.5v-81zM113 358q0 -54 7 -103t23 -96q15 -48 39 -95t59 -97h-69q-36 48 -63.5 93.5t-45.5 92.5q-19 46 -28.5 96.5t-9.5 108.5q0 59 9.5 111t28.5 100
q18 47 45.5 91.5t63.5 88.5h69q-36 -50 -60.5 -97.5t-39.5 -95.5t-21.5 -97t-6.5 -101zM836 358q0 52 -6.5 101.5t-21.5 97.5q-15 47 -39.5 94.5t-60.5 97.5h69q37 -48 64.5 -93.5t45.5 -92.5t27 -97.5t9 -107.5q0 -60 -9.5 -112t-27.5 -99q-19 -48 -46.5 -92t-62.5 -88h-69
q35 51 59.5 98t39.5 95q15 47 22 95.5t7 102.5z" />
    <glyph glyph-name="uni24AE" unicode="&#x24ae;" horiz-adv-x="950" 
d="M467 567q48 0 93 -21t76 -59l-30 -24t-29 -23q-20 24 -52 35.5t-59 11.5q-8 0 -19 -2.5t-21 -7.5q-10 -6 -17 -14.5t-7 -20.5q0 -15 9.5 -24.5t24.5 -14.5q14 -6 30 -8.5t29 -5.5q30 -4 58 -15.5t49 -29.5q21 -19 34 -45t13 -59q0 -28 -14.5 -52t-39.5 -41
q-25 -18 -60 -28t-75 -10q-24 0 -50 5t-51 16q-26 11 -48 27.5t-37 40.5q15 14 29.5 27t31.5 29q12 -17 27.5 -29t32.5 -20q16 -9 33 -13t31 -4q15 0 31 4t30 12q13 7 21.5 18t8.5 26q0 19 -10.5 31t-25.5 20q-16 8 -34 12.5l-34 8.5h1q-27 6 -53 14.5t-47 23.5t-34 36.5
t-13 53.5q0 28 15 50.5t39 37.5t53.5 23t59.5 8zM113 358q0 -54 7 -103t23 -96q15 -48 39 -95t59 -97h-69q-36 48 -63.5 93.5t-45.5 92.5q-19 46 -28.5 96.5t-9.5 108.5q0 59 9.5 111t28.5 100q18 47 45.5 91.5t63.5 88.5h69q-36 -50 -60.5 -97.5t-39.5 -95.5t-21.5 -97
t-6.5 -101zM836 358q0 52 -6.5 101.5t-21.5 97.5q-15 47 -39.5 94.5t-60.5 97.5h69q37 -48 64.5 -93.5t45.5 -92.5t27 -97.5t9 -107.5q0 -60 -9.5 -112t-27.5 -99q-19 -48 -46.5 -92t-62.5 -88h-69q35 51 59.5 98t39.5 95q15 47 22 95.5t7 102.5z" />
    <glyph glyph-name="uni24AF" unicode="&#x24af;" horiz-adv-x="950" 
d="M454 211q0 -26 5.5 -42.5t14.5 -25.5q8 -9 18.5 -12t21.5 -3q20 0 38 13.5t29 26.5l51 -54q-9 -14 -24 -26t-33 -21t-37.5 -14.5t-37.5 -5.5q-77 0 -110.5 40t-33.5 132v189h-61v81h61v221h98v-221h103v-81h-103v-197zM113 358q0 -54 7 -103t23 -96q15 -48 39 -95t59 -97
h-69q-36 48 -63.5 93.5t-45.5 92.5q-19 46 -28.5 96.5t-9.5 108.5q0 59 9.5 111t28.5 100q18 47 45.5 91.5t63.5 88.5h69q-36 -50 -60.5 -97.5t-39.5 -95.5t-21.5 -97t-6.5 -101zM836 358q0 52 -6.5 101.5t-21.5 97.5q-15 47 -39.5 94.5t-60.5 97.5h69q37 -48 64.5 -93.5
t45.5 -92.5t27 -97.5t9 -107.5q0 -60 -9.5 -112t-27.5 -99q-19 -48 -46.5 -92t-62.5 -88h-69q35 51 59.5 98t39.5 95q15 47 22 95.5t7 102.5z" />
    <glyph glyph-name="uni24B0" unicode="&#x24b0;" horiz-adv-x="950" 
d="M254 557h98v-273q0 -46 31 -76.5t84 -30.5q21 0 41 8.5t37 23.5q16 14 26 33.5t10 41.5v273h98v-452h-98v44q-12 -15 -28 -25.5t-32 -16.5q-17 -6 -32 -8.5t-25 -2.5q-45 0 -83.5 14.5t-66.5 39.5t-44 59.5t-16 74.5v273zM113 358q0 -54 7 -103t23 -96q15 -48 39 -95
t59 -97h-69q-36 48 -63.5 93.5t-45.5 92.5q-19 46 -28.5 96.5t-9.5 108.5q0 59 9.5 111t28.5 100q18 47 45.5 91.5t63.5 88.5h69q-36 -50 -60.5 -97.5t-39.5 -95.5t-21.5 -97t-6.5 -101zM836 358q0 52 -6.5 101.5t-21.5 97.5q-15 47 -39.5 94.5t-60.5 97.5h69
q37 -48 64.5 -93.5t45.5 -92.5t27 -97.5t9 -107.5q0 -60 -9.5 -112t-27.5 -99q-19 -48 -46.5 -92t-62.5 -88h-69q35 51 59.5 98t39.5 95q15 47 22 95.5t7 102.5z" />
    <glyph glyph-name="uni24B1" unicode="&#x24b1;" horiz-adv-x="950" 
d="M680 521q-52 -117 -104.5 -232.5t-105.5 -231.5q-53 116 -105 231.5t-105 232.5h104q27 -61 53.5 -121t52.5 -120q26 60 53 120.5t53 120.5h104zM113 358q0 -54 7 -103t23 -96q15 -48 39 -95t59 -97h-69q-36 48 -63.5 93.5t-45.5 92.5q-19 46 -28.5 96.5t-9.5 108.5
q0 59 9.5 111t28.5 100q18 47 45.5 91.5t63.5 88.5h69q-36 -50 -60.5 -97.5t-39.5 -95.5t-21.5 -97t-6.5 -101zM836 358q0 52 -6.5 101.5t-21.5 97.5q-15 47 -39.5 94.5t-60.5 97.5h69q37 -48 64.5 -93.5t45.5 -92.5t27 -97.5t9 -107.5q0 -60 -9.5 -112t-27.5 -99
q-19 -48 -46.5 -92t-62.5 -88h-69q35 51 59.5 98t39.5 95q15 47 22 95.5t7 102.5z" />
    <glyph glyph-name="uni24B2" unicode="&#x24b2;" horiz-adv-x="950" 
d="M695 531q-20 -117 -38.5 -232.5t-38.5 -232.5q-38 67 -76 133.5t-76 133.5q-38 -67 -76 -133.5t-76 -133.5q-19 117 -38 232.5t-39 232.5h100q7 -57 13 -112t13 -111q23 43 52 91.5t51 89.5q26 -46 52 -91l52 -90q6 56 12 111t13 112h100zM113 358q0 -54 7 -103t23 -96
q15 -48 39 -95t59 -97h-69q-36 48 -63.5 93.5t-45.5 92.5q-19 46 -28.5 96.5t-9.5 108.5q0 59 9.5 111t28.5 100q18 47 45.5 91.5t63.5 88.5h69q-36 -50 -60.5 -97.5t-39.5 -95.5t-21.5 -97t-6.5 -101zM836 358q0 52 -6.5 101.5t-21.5 97.5q-15 47 -39.5 94.5t-60.5 97.5h69
q37 -48 64.5 -93.5t45.5 -92.5t27 -97.5t9 -107.5q0 -60 -9.5 -112t-27.5 -99q-19 -48 -46.5 -92t-62.5 -88h-69q35 51 59.5 98t39.5 95q15 47 22 95.5t7 102.5z" />
    <glyph glyph-name="uni24B3" unicode="&#x24b3;" horiz-adv-x="950" 
d="M665 557q-35 -52 -69 -104t-69 -104q40 -62 80 -123t81 -122h-107l-108 160q-27 -40 -53.5 -80t-53.5 -80h-107l80 122t81 123q-35 52 -69 104t-69 104h107q20 -30 41.5 -61t42.5 -61q21 30 42 61t43 61h107zM113 358q0 -54 7 -103t23 -96q15 -48 39 -95t59 -97h-69
q-36 48 -63.5 93.5t-45.5 92.5q-19 46 -28.5 96.5t-9.5 108.5q0 59 9.5 111t28.5 100q18 47 45.5 91.5t63.5 88.5h69q-36 -50 -60.5 -97.5t-39.5 -95.5t-21.5 -97t-6.5 -101zM836 358q0 52 -6.5 101.5t-21.5 97.5q-15 47 -39.5 94.5t-60.5 97.5h69q37 -48 64.5 -93.5
t45.5 -92.5t27 -97.5t9 -107.5q0 -60 -9.5 -112t-27.5 -99q-19 -48 -46.5 -92t-62.5 -88h-69q35 51 59.5 98t39.5 95q15 47 22 95.5t7 102.5z" />
    <glyph glyph-name="uni24B4" unicode="&#x24b4;" horiz-adv-x="950" 
d="M691 552q-61 -158 -121 -313t-121 -312h-101q20 50 38.5 98t37.5 97q-45 108 -90.5 215t-91.5 215h103q32 -78 62.5 -155t62.5 -155q30 78 59.5 155t59.5 155h102zM113 358q0 -54 7 -103t23 -96q15 -48 39 -95t59 -97h-69q-36 48 -63.5 93.5t-45.5 92.5
q-19 46 -28.5 96.5t-9.5 108.5q0 59 9.5 111t28.5 100q18 47 45.5 91.5t63.5 88.5h69q-36 -50 -60.5 -97.5t-39.5 -95.5t-21.5 -97t-6.5 -101zM836 358q0 52 -6.5 101.5t-21.5 97.5q-15 47 -39.5 94.5t-60.5 97.5h69q37 -48 64.5 -93.5t45.5 -92.5t27 -97.5t9 -107.5
q0 -60 -9.5 -112t-27.5 -99q-19 -48 -46.5 -92t-62.5 -88h-69q35 51 59.5 98t39.5 95q15 47 22 95.5t7 102.5z" />
    <glyph glyph-name="uni24B5" unicode="&#x24b5;" horiz-adv-x="950" 
d="M677 562q-64 -96 -127.5 -191.5t-127.5 -192.5h262v-81h-423l255 384h-233v81h394zM113 358q0 -54 7 -103t23 -96q15 -48 39 -95t59 -97h-69q-36 48 -63.5 93.5t-45.5 92.5q-19 46 -28.5 96.5t-9.5 108.5q0 59 9.5 111t28.5 100q18 47 45.5 91.5t63.5 88.5h69
q-36 -50 -60.5 -97.5t-39.5 -95.5t-21.5 -97t-6.5 -101zM836 358q0 52 -6.5 101.5t-21.5 97.5q-15 47 -39.5 94.5t-60.5 97.5h69q37 -48 64.5 -93.5t45.5 -92.5t27 -97.5t9 -107.5q0 -60 -9.5 -112t-27.5 -99q-19 -48 -46.5 -92t-62.5 -88h-69q35 51 59.5 98t39.5 95
q15 47 22 95.5t7 102.5z" />
    <glyph glyph-name="uni24D0" unicode="&#x24d0;" horiz-adv-x="950" 
d="M462 108q-45 0 -88 17t-76 48q-34 31 -55 73t-21 92q0 47 19.5 89t52.5 74q33 31 76.5 49.5t91.5 18.5q18 0 38 -4.5t39 -11.5q19 -8 36 -18.5t29 -21.5v54h98v-452h-98v47q-24 -25 -64 -39.5t-78 -14.5zM462 488q-29 0 -55.5 -11t-46.5 -30q-20 -20 -31.5 -47.5
t-11.5 -61.5t11.5 -61.5t31.5 -46.5q20 -20 46.5 -30.5t55.5 -10.5t55.5 10.5t46.5 30.5q20 19 31.5 46.5t11.5 61.5q0 35 -12 62.5t-32 47.5q-21 19 -47 29.5t-54 10.5zM475 826q91 0 172 -37.5t142 -101.5t96 -149t35 -180q0 -96 -35.5 -181.5t-96.5 -149.5
q-61 -63 -141.5 -100t-171.5 -37t-172 36.5t-142 99.5q-61 64 -96.5 149.5t-35.5 182.5q0 96 35 181t96 149t142 101t173 37zM475 737q-74 0 -139.5 -30t-113.5 -81q-49 -52 -77.5 -121t-28.5 -147q0 -79 28 -148t77 -120q48 -52 113.5 -81.5t140.5 -29.5q78 0 143.5 28.5
t113.5 79.5q48 50 74.5 119.5t26.5 151.5q0 75 -27 143.5t-74 121.5q-48 52 -113.5 83t-143.5 31z" />
    <glyph glyph-name="uni24D1" unicode="&#x24d1;" horiz-adv-x="950" 
d="M521 34q-37 0 -75 14.5t-61 38.5v-45h-94v625h94v-245q11 11 27 20.5t35 17.5q19 7 38 11t36 4q46 0 88 -17.5t74 -47.5q31 -30 49.5 -70t18.5 -86q0 -48 -20 -88t-52 -69q-33 -30 -74 -46.5t-84 -16.5zM521 399q-27 0 -52 -10t-44 -29q-20 -19 -31.5 -45.5t-11.5 -60.5
q0 -32 11 -58.5t30 -44.5q19 -19 44.5 -29t53.5 -10t53 10t44 29q19 18 30.5 44.5t11.5 58.5q0 33 -11.5 59.5t-30.5 45.5t-44 29.5t-53 10.5zM475 826q91 0 172 -37.5t142 -101.5t96 -149t35 -180q0 -96 -35.5 -181.5t-96.5 -149.5q-61 -63 -141.5 -100t-171.5 -37
t-172 36.5t-142 99.5q-61 64 -96.5 149.5t-35.5 182.5q0 96 35 181t96 149t142 101t173 37zM475 737q-74 0 -139.5 -30t-113.5 -81q-49 -52 -77.5 -121t-28.5 -147q0 -79 28 -148t77 -120q48 -52 113.5 -81.5t140.5 -29.5q78 0 143.5 28.5t113.5 79.5q48 50 74.5 119.5
t26.5 151.5q0 75 -27 143.5t-74 121.5q-48 52 -113.5 83t-143.5 31z" />
    <glyph glyph-name="uni24D2" unicode="&#x24d2;" horiz-adv-x="950" 
d="M605 260q16 -14 31.5 -29t31.5 -29q-31 -42 -81 -63.5t-100 -21.5q-49 0 -92.5 18t-75.5 50q-33 31 -52 73.5t-19 90.5q0 46 17.5 88t49.5 75q32 32 75.5 51t96.5 19q50 0 96 -22t81 -59q-16 -14 -31.5 -28.5t-32.5 -28.5q-21 26 -48.5 41.5t-64.5 15.5q-29 0 -55 -12
t-46 -33t-31.5 -48.5t-11.5 -58.5t11.5 -58.5t31.5 -47.5q20 -21 46 -33t55 -12q38 0 67.5 16.5t50.5 45.5zM475 826q91 0 172 -37.5t142 -101.5t96 -149t35 -180q0 -96 -35.5 -181.5t-96.5 -149.5q-61 -63 -141.5 -100t-171.5 -37t-172 36.5t-142 99.5q-61 64 -96.5 149.5
t-35.5 182.5q0 96 35 181t96 149t142 101t173 37zM475 737q-74 0 -139.5 -30t-113.5 -81q-49 -52 -77.5 -121t-28.5 -147q0 -79 28 -148t77 -120q48 -52 113.5 -81.5t140.5 -29.5q78 0 143.5 28.5t113.5 79.5q48 50 74.5 119.5t26.5 151.5q0 75 -27 143.5t-74 121.5
q-48 52 -113.5 83t-143.5 31z" />
    <glyph glyph-name="uni24D3" unicode="&#x24d3;" horiz-adv-x="950" 
d="M443 49q-43 0 -84 16.5t-73 45.5q-33 29 -52.5 69t-19.5 88q0 46 18.5 86.5t50.5 70.5q31 30 72.5 47.5t87.5 17.5q17 0 36.5 -4.5t38.5 -11.5q19 -8 35 -17.5t27 -20.5v229h94v-609h-94v45q-23 -24 -61 -38t-76 -14zM443 413q-28 0 -53 -10.5t-44 -29.5t-30 -45.5
t-11 -59.5q0 -32 11 -58t30 -45t44 -29t53 -10t53.5 10t44.5 29t30.5 45t11.5 58q0 34 -12 60.5t-31 45.5q-20 19 -45 29t-52 10zM475 826q91 0 172 -37.5t142 -101.5t96 -149t35 -180q0 -96 -35.5 -181.5t-96.5 -149.5q-61 -63 -141.5 -100t-171.5 -37t-172 36.5t-142 99.5
q-61 64 -96.5 149.5t-35.5 182.5q0 96 35 181t96 149t142 101t173 37zM475 737q-74 0 -139.5 -30t-113.5 -81q-49 -52 -77.5 -121t-28.5 -147q0 -79 28 -148t77 -120q48 -52 113.5 -81.5t140.5 -29.5q78 0 143.5 28.5t113.5 79.5q48 50 74.5 119.5t26.5 151.5
q0 75 -27 143.5t-74 121.5q-48 52 -113.5 83t-143.5 31z" />
    <glyph glyph-name="uni24D4" unicode="&#x24d4;" horiz-adv-x="950" 
d="M472 577q55 0 97 -20t70 -55q28 -36 42 -83.5t14 -102.5h-346q0 -23 11.5 -44t30.5 -38t44 -27t52 -10q34 0 71.5 16.5t63.5 51.5l30 -28t29 -28q-36 -42 -85.5 -67.5t-108.5 -25.5q-45 0 -88 17t-76 48q-33 30 -53.5 73t-20.5 94q0 46 15 87.5t44 73.5q28 31 69.5 49.5
t94.5 18.5zM592 396q0 20 -10 38t-26 32q-17 14 -39 22t-45 8q-25 0 -47 -7.5t-39 -20.5q-17 -14 -27 -32.5t-10 -39.5h243zM475 826q91 0 172 -37.5t142 -101.5t96 -149t35 -180q0 -96 -35.5 -181.5t-96.5 -149.5q-61 -63 -141.5 -100t-171.5 -37t-172 36.5t-142 99.5
q-61 64 -96.5 149.5t-35.5 182.5q0 96 35 181t96 149t142 101t173 37zM475 737q-74 0 -139.5 -30t-113.5 -81q-49 -52 -77.5 -121t-28.5 -147q0 -79 28 -148t77 -120q48 -52 113.5 -81.5t140.5 -29.5q78 0 143.5 28.5t113.5 79.5q48 50 74.5 119.5t26.5 151.5
q0 75 -27 143.5t-74 121.5q-48 52 -113.5 83t-143.5 31z" />
    <glyph glyph-name="uni24D5" unicode="&#x24d5;" horiz-adv-x="950" 
d="M452 443h123v-80h-123v-321h-97v321h-65v80h65v81q0 40 14 72.5t38 55.5t57 35t72 12t71.5 -18t55.5 -46q-18 -12 -35 -24l-34 -24q-11 16 -27.5 25t-33.5 9q-37 0 -59 -25t-22 -72v-81zM475 826q91 0 172 -37.5t142 -101.5t96 -149t35 -180q0 -96 -35.5 -181.5
t-96.5 -149.5q-61 -63 -141.5 -100t-171.5 -37t-172 36.5t-142 99.5q-61 64 -96.5 149.5t-35.5 182.5q0 96 35 181t96 149t142 101t173 37zM475 737q-74 0 -139.5 -30t-113.5 -81q-49 -52 -77.5 -121t-28.5 -147t28 -147t77 -120q48 -52 113.5 -82t140.5 -30
q78 0 143.5 28.5t113.5 79.5q48 50 74.5 119.5t26.5 151.5q0 75 -27 143.5t-74 121.5q-48 52 -113.5 83t-143.5 31z" />
    <glyph glyph-name="uni24D6" unicode="&#x24d6;" horiz-adv-x="950" 
d="M463 188q-43 0 -84 16.5t-73 46.5q-33 29 -52.5 69.5t-19.5 88.5q0 45 18.5 85.5t50.5 70.5q31 30 72.5 48t87.5 18q17 0 36.5 -4.5t38.5 -11.5q19 -8 35 -18t27 -21v52h94v-406q-1 -49 -19.5 -88t-49.5 -66q-32 -27 -75 -41.5t-93 -14.5q-59 0 -106 24.5t-85 62.5l60 57
q25 -26 59 -47t72 -21q30 0 56 8t46 25q19 16 30 41t11 60v19q-23 -24 -61 -38.5t-76 -14.5zM463 553q-28 0 -53 -10.5t-44 -29.5t-30 -45.5t-11 -58.5t11 -58.5t30 -45.5t44 -29.5t53 -10.5t53.5 10.5t44.5 29.5t30.5 45.5t11.5 58.5q0 33 -12 60t-31 46q-20 18 -45 28
t-52 10zM475 826q91 0 172 -37.5t142 -101.5t96 -149t35 -180q0 -96 -35.5 -181.5t-96.5 -149.5q-61 -63 -141.5 -100t-171.5 -37t-172 36.5t-142 99.5q-61 64 -96.5 149.5t-35.5 182.5q0 96 35 181t96 149t142 101t173 37zM475 737q-74 0 -139.5 -30t-113.5 -81
q-49 -52 -77.5 -121t-28.5 -147t28 -147t77 -120q48 -52 113.5 -82t140.5 -30q78 0 143.5 28.5t113.5 79.5q48 50 74.5 119.5t26.5 151.5q0 75 -27 143.5t-74 121.5q-48 52 -113.5 83t-143.5 31z" />
    <glyph glyph-name="uni24D7" unicode="&#x24d7;" horiz-adv-x="950" 
d="M692 63h-93v176q0 30 -3.5 57t-15.5 48q-12 20 -34 32.5t-58 12.5q-19 0 -37.5 -7.5t-33.5 -19.5q-16 -13 -26.5 -30.5t-11.5 -37.5q-1 -14 -1 -27.5v-27.5v-176h-94v598h94v-246q13 15 28.5 25t31.5 16q15 6 29 8.5t24 2.5q44 0 81 -14t64 -38q26 -25 41 -58t15 -72
v-222zM475 826q91 0 172 -37.5t142 -101.5t96 -149t35 -180q0 -96 -35.5 -181.5t-96.5 -149.5q-61 -63 -141.5 -100t-171.5 -37t-172 36.5t-142 99.5q-61 64 -96.5 149.5t-35.5 182.5q0 96 35 181t96 149t142 101t173 37zM475 737q-74 0 -139.5 -30t-113.5 -81
q-49 -52 -77.5 -121t-28.5 -147q0 -79 28 -148t77 -120q48 -52 113.5 -81.5t140.5 -29.5q78 0 143.5 28.5t113.5 79.5q48 50 74.5 119.5t26.5 151.5q0 75 -27 143.5t-74 121.5q-48 52 -113.5 83t-143.5 31z" />
    <glyph glyph-name="uni24D8" unicode="&#x24d8;" horiz-adv-x="950" 
d="M416 512h98v-456h-98v456zM464 587q-26 0 -42.5 16.5t-16.5 39.5t16.5 39t42.5 16q28 0 44 -16t16 -39t-16 -39.5t-44 -16.5zM475 826q91 0 172 -37.5t142 -101.5t96 -149t35 -180q0 -96 -35.5 -181.5t-96.5 -149.5q-61 -63 -141.5 -100t-171.5 -37t-172 36.5t-142 99.5
q-61 64 -96.5 149.5t-35.5 182.5q0 96 35 181t96 149t142 101t173 37zM475 737q-74 0 -139.5 -30t-113.5 -81q-49 -52 -77.5 -121t-28.5 -147q0 -79 28 -148t77 -120q48 -52 113.5 -81.5t140.5 -29.5q78 0 143.5 28.5t113.5 79.5q48 50 74.5 119.5t26.5 151.5
q0 75 -27 143.5t-74 121.5q-48 52 -113.5 83t-143.5 31z" />
    <glyph glyph-name="uni24D9" unicode="&#x24d9;" horiz-adv-x="950" 
d="M561 685q27 0 42.5 -15.5t15.5 -38.5q0 -22 -15.5 -39t-42.5 -17q-26 0 -43 17t-17 39q0 23 17 38.5t43 15.5zM607 247q0 -44 -13.5 -81t-37.5 -64q-25 -27 -60.5 -42t-78.5 -15q-35 0 -69.5 16t-54.5 36q14 15 26.5 29.5t26.5 29.5q13 -13 32 -22.5t32 -9.5q21 0 39 6
t32 20q13 14 20.5 38t7.5 59v252h98v-252zM475 826q91 0 172 -37.5t142 -101.5t96 -149t35 -180q0 -96 -35.5 -181.5t-96.5 -149.5q-61 -63 -141.5 -100t-171.5 -37t-172 36.5t-142 99.5q-61 64 -96.5 149.5t-35.5 182.5q0 96 35 181t96 149t142 101t173 37zM475 737
q-74 0 -139.5 -30t-113.5 -81q-49 -52 -77.5 -121t-28.5 -147q0 -79 28 -148t77 -120q48 -52 113.5 -81.5t140.5 -29.5q78 0 143.5 28.5t113.5 79.5q48 50 74.5 119.5t26.5 151.5q0 75 -27 143.5t-74 121.5q-48 52 -113.5 83t-143.5 31z" />
    <glyph glyph-name="uni24DA" unicode="&#x24da;" horiz-adv-x="950" 
d="M385 351q42 39 83.5 77.5t83.5 77.5h115q-47 -44 -93.5 -87t-94.5 -87q56 -67 110.5 -134t109.5 -135h-108q-42 51 -84 102.5t-84 102.5l-20 -20q-6 -6 -12 -11.5t-9 -8.5q1 -42 1.5 -82.5t1.5 -82.5h-93v603h93v-315zM475 826q91 0 172 -37.5t142 -101.5t96 -149
t35 -180q0 -96 -35.5 -181.5t-96.5 -149.5q-61 -63 -141.5 -100t-171.5 -37t-172 36.5t-142 99.5q-61 64 -96.5 149.5t-35.5 182.5q0 96 35 181t96 149t142 101t173 37zM475 737q-74 0 -139.5 -30t-113.5 -81q-49 -52 -77.5 -121t-28.5 -147q0 -79 28 -148t77 -120
q48 -52 113.5 -81.5t140.5 -29.5q78 0 143.5 28.5t113.5 79.5q48 50 74.5 119.5t26.5 151.5q0 75 -27 143.5t-74 121.5q-48 52 -113.5 83t-143.5 31z" />
    <glyph glyph-name="uni24DB" unicode="&#x24db;" horiz-adv-x="950" 
d="M554 10q-6 -1 -11 -1.5t-11 -1.5q-71 0 -104 29t-33 103v552h98v-535q0 -35 19 -52.5t42 -17.5v-76zM475 826q91 0 172 -37.5t142 -101.5t96 -149t35 -180q0 -96 -35.5 -181.5t-96.5 -149.5q-61 -63 -141.5 -100t-171.5 -37t-172 36.5t-142 99.5q-61 64 -96.5 149.5
t-35.5 182.5q0 96 35 181t96 149t142 101t173 37zM475 737q-74 0 -139.5 -30t-113.5 -81q-49 -52 -77.5 -121t-28.5 -147q0 -79 28 -148t77 -120q48 -52 113.5 -81.5t140.5 -29.5q78 0 143.5 28.5t113.5 79.5q48 50 74.5 119.5t26.5 151.5q0 75 -27 143.5t-74 121.5
q-48 52 -113.5 83t-143.5 31z" />
    </font>
</defs>
</svg>
